NotoSansArabic-ExtraCondensedThin.ufo
<glyph name="exclam" format="2">
  <advance width="195"/>
  <unicode hex="0021"/>
  <outline>
    <contour>
      <point x="87" y="174" type="line"/>
      <point x="110" y="174" type="line"/>
      <point x="112" y="714" type="line"/>
      <point x="85" y="714" type="line"/>
    </contour>
    <contour>
      <point x="96" y="-8" type="curve" smooth="yes"/>
      <point x="116" y="-8"/>
      <point x="121" y="6"/>
      <point x="121" y="23" type="curve" smooth="yes"/>
      <point x="121" y="39"/>
      <point x="115" y="54"/>
      <point x="96" y="54" type="curve" smooth="yes"/>
      <point x="77" y="54"/>
      <point x="73" y="39"/>
      <point x="73" y="23" type="curve" smooth="yes"/>
      <point x="73" y="6"/>
      <point x="79" y="-8"/>
    </contour>
  </outline>
</glyph>
<glyph name="parenleft" format="2">
  <advance width="290"/>
  <unicode hex="0028"/>
  <outline>
    <contour>
      <point x="206" y="-172" type="curve"/>
      <point x="232" y="-172" type="line"/>
      <point x="158" y="-23"/>
      <point x="124" y="131"/>
      <point x="124" y="309" type="curve" smooth="yes"/>
      <point x="124" y="468"/>
      <point x="157" y="640"/>
      <point x="232" y="785" type="curve"/>
      <point x="206" y="785" type="line"/>
      <point x="135" y="648"/>
      <point x="99" y="480"/>
      <point x="99" y="317" type="curve" smooth="yes"/>
      <point x="99" y="128"/>
      <point x="132" y="-29"/>
    </contour>
  </outline>
</glyph>
<glyph name="comma" format="2">
  <advance width="177"/>
  <unicode hex="002C"/>
  <outline>
    <contour>
      <point x="54" y="-129" type="curve"/>
      <point x="71" y="-129" type="line"/>
      <point x="94" y="-60"/>
      <point x="111" y="30"/>
      <point x="123" y="104" type="curve"/>
      <point x="121" y="116" type="line"/>
      <point x="98" y="116" type="line"/>
      <point x="90" y="40"/>
      <point x="77" y="-32"/>
    </contour>
  </outline>
</glyph>
<glyph name="hyphen" format="2">
  <advance width="258"/>
  <unicode hex="002D"/>
  <outline>
    <contour>
      <point x="32" y="259" type="line"/>
      <point x="226" y="259" type="line"/>
      <point x="226" y="284" type="line"/>
      <point x="32" y="284" type="line"/>
    </contour>
  </outline>
</glyph>
<glyph name="period" format="2">
  <advance width="176"/>
  <unicode hex="002E"/>
  <outline>
    <contour>
      <point x="88" y="-8" type="curve" smooth="yes"/>
      <point x="106" y="-8"/>
      <point x="112" y="4"/>
      <point x="112" y="23" type="curve" smooth="yes"/>
      <point x="112" y="41"/>
      <point x="107" y="54"/>
      <point x="89" y="54" type="curve" smooth="yes"/>
      <point x="73" y="54"/>
      <point x="66" y="39"/>
      <point x="66" y="23" type="curve" smooth="yes"/>
      <point x="66" y="6"/>
      <point x="72" y="-8"/>
    </contour>
  </outline>
</glyph>
<glyph name="colon" format="2">
  <advance width="178"/>
  <unicode hex="003A"/>
  <outline>
    <contour>
      <point x="89" y="470" type="curve" smooth="yes"/>
      <point x="108" y="470"/>
      <point x="114" y="484"/>
      <point x="114" y="501" type="curve" smooth="yes"/>
      <point x="114" y="517"/>
      <point x="108" y="532"/>
      <point x="89" y="532" type="curve" smooth="yes"/>
      <point x="72" y="532"/>
      <point x="66" y="517"/>
      <point x="66" y="501" type="curve" smooth="yes"/>
      <point x="66" y="484"/>
      <point x="72" y="470"/>
    </contour>
    <contour>
      <point x="89" y="-8" type="curve" smooth="yes"/>
      <point x="109" y="-8"/>
      <point x="114" y="6"/>
      <point x="114" y="23" type="curve" smooth="yes"/>
      <point x="114" y="39"/>
      <point x="108" y="54"/>
      <point x="89" y="54" type="curve" smooth="yes"/>
      <point x="70" y="54"/>
      <point x="66" y="39"/>
      <point x="66" y="23" type="curve" smooth="yes"/>
      <point x="66" y="6"/>
      <point x="72" y="-8"/>
    </contour>
  </outline>
</glyph>
<glyph name="guillemotleft" format="2">
  <advance width="327"/>
  <unicode hex="00AB"/>
  <outline>
    <contour>
      <point x="282" y="87" type="line"/>
      <point x="298" y="100" type="line"/>
      <point x="187" y="279" type="line"/>
      <point x="298" y="457" type="line"/>
      <point x="282" y="472" type="line"/>
      <point x="164" y="285" type="line"/>
      <point x="164" y="272" type="line"/>
    </contour>
    <contour>
      <point x="147" y="87" type="line"/>
      <point x="163" y="100" type="line"/>
      <point x="52" y="279" type="line"/>
      <point x="163" y="457" type="line"/>
      <point x="147" y="472" type="line"/>
      <point x="29" y="285" type="line"/>
      <point x="29" y="272" type="line"/>
    </contour>
  </outline>
</glyph>
<glyph name="guillemotright" format="2">
  <advance width="327"/>
  <unicode hex="00BB"/>
  <outline>
    <contour>
      <point x="180" y="87" type="line"/>
      <point x="298" y="274" type="line"/>
      <point x="298" y="287" type="line"/>
      <point x="180" y="472" type="line"/>
      <point x="164" y="457" type="line"/>
      <point x="275" y="280" type="line"/>
      <point x="164" y="101" type="line"/>
    </contour>
    <contour>
      <point x="45" y="87" type="line"/>
      <point x="163" y="274" type="line"/>
      <point x="163" y="287" type="line"/>
      <point x="45" y="472" type="line"/>
      <point x="29" y="457" type="line"/>
      <point x="140" y="280" type="line"/>
      <point x="29" y="101" type="line"/>
    </contour>
  </outline>
</glyph>
<glyph name="ray-ar" format="2">
  <advance width="733"/>
  <unicode hex="0608"/>
  <outline>
    <contour>
      <point x="365" y="-260" type="curve" smooth="yes"/>
      <point x="580" y="-260"/>
      <point x="658" y="-146"/>
      <point x="658" y="55" type="curve" smooth="yes"/>
      <point x="658" y="211"/>
      <point x="614" y="346"/>
      <point x="509" y="346" type="curve" smooth="yes"/>
      <point x="429" y="346"/>
      <point x="373" y="255"/>
      <point x="373" y="142" type="curve" smooth="yes"/>
      <point x="373" y="48"/>
      <point x="416" y="-5"/>
      <point x="522" y="-5" type="curve" smooth="yes"/>
      <point x="734" y="-5" type="line" smooth="yes"/>
      <point x="740" y="-5"/>
      <point x="745" y="2"/>
      <point x="745" y="8" type="curve" smooth="yes"/>
      <point x="745" y="14"/>
      <point x="742" y="21"/>
      <point x="736" y="21" type="curve" smooth="yes"/>
      <point x="648" y="21" type="line"/>
      <point x="606" y="21"/>
      <point x="564" y="21"/>
      <point x="522" y="21" type="curve" smooth="yes"/>
      <point x="438" y="21"/>
      <point x="397" y="56"/>
      <point x="397" y="145" type="curve" smooth="yes"/>
      <point x="397" y="240"/>
      <point x="441" y="319"/>
      <point x="507" y="319" type="curve" smooth="yes"/>
      <point x="596" y="319"/>
      <point x="634" y="205"/>
      <point x="634" y="48" type="curve" smooth="yes"/>
      <point x="634" y="-135"/>
      <point x="566" y="-233"/>
      <point x="368" y="-233" type="curve" smooth="yes"/>
      <point x="209" y="-233"/>
      <point x="147" y="-142"/>
      <point x="147" y="-9" type="curve" smooth="yes"/>
      <point x="147" y="43"/>
      <point x="154" y="101"/>
      <point x="175" y="163" type="curve"/>
      <point x="160" y="173" type="line"/>
      <point x="4" y="108" type="line"/>
      <point x="9" y="85" type="line"/>
      <point x="155" y="146" type="line"/>
      <point x="151" y="151" type="line"/>
      <point x="130" y="85"/>
      <point x="124" y="34"/>
      <point x="124" y="-12" type="curve" smooth="yes"/>
      <point x="124" y="-155"/>
      <point x="195" y="-260"/>
    </contour>
  </outline>
</glyph>
<glyph name="pertenthousand-ar" format="2">
  <advance width="658"/>
  <unicode hex="060A"/>
  <outline>
    <contour>
      <point x="594" y="-9" type="curve"/>
      <point x="627" y="31" type="line"/>
      <point x="617" y="47"/>
      <point x="604" y="64"/>
      <point x="589" y="78" type="curve"/>
      <point x="557" y="35" type="line"/>
      <point x="572" y="20"/>
      <point x="580" y="9"/>
    </contour>
    <contour>
      <point x="456" y="-9" type="curve"/>
      <point x="489" y="31" type="line"/>
      <point x="480" y="47"/>
      <point x="466" y="64"/>
      <point x="452" y="78" type="curve"/>
      <point x="420" y="35" type="line"/>
      <point x="434" y="20"/>
      <point x="442" y="9"/>
    </contour>
    <component base="percent-ar"/>
  </outline>
</glyph>
<glyph name="comma-ar" format="2">
  <advance width="183"/>
  <unicode hex="060C"/>
  <outline>
    <contour>
      <point x="89" y="-4" type="curve" smooth="yes"/>
      <point x="106" y="-4"/>
      <point x="114" y="9"/>
      <point x="114" y="25" type="curve" smooth="yes"/>
      <point x="114" y="43"/>
      <point x="101" y="54"/>
      <point x="82" y="58" type="curve"/>
      <point x="82" y="106"/>
      <point x="100" y="158"/>
      <point x="132" y="212" type="curve"/>
      <point x="117" y="223" type="line"/>
      <point x="83" y="171"/>
      <point x="61" y="109"/>
      <point x="61" y="52" type="curve" smooth="yes"/>
      <point x="61" y="11"/>
      <point x="77" y="-4"/>
    </contour>
  </outline>
</glyph>
<glyph name="sadabove-ar" format="2">
  <unicode hex="0610"/>
  <anchor x="118" y="356" name="_top"/>
  <anchor x="125" y="656" name="top"/>
  <outline>
    <contour>
      <point x="27" y="401" type="curve"/>
      <point x="43" y="398" type="line"/>
      <point x="50" y="436"/>
      <point x="52" y="478"/>
      <point x="52" y="516" type="curve"/>
      <point x="45" y="516" type="line"/>
      <point x="51" y="491"/>
      <point x="77" y="479"/>
      <point x="126" y="479" type="curve" smooth="yes"/>
      <point x="193" y="479"/>
      <point x="228" y="498"/>
      <point x="228" y="554" type="curve" smooth="yes"/>
      <point x="228" y="598"/>
      <point x="206" y="625"/>
      <point x="173" y="625" type="curve" smooth="yes"/>
      <point x="125" y="625"/>
      <point x="89" y="559"/>
      <point x="63" y="505" type="curve"/>
      <point x="76" y="496" type="line"/>
      <point x="103" y="551"/>
      <point x="134" y="606"/>
      <point x="171" y="606" type="curve" smooth="yes"/>
      <point x="199" y="606"/>
      <point x="210" y="580"/>
      <point x="210" y="554" type="curve" smooth="yes"/>
      <point x="210" y="514"/>
      <point x="188" y="497"/>
      <point x="127" y="497" type="curve" smooth="yes"/>
      <point x="83" y="497"/>
      <point x="58" y="504"/>
      <point x="51" y="536" type="curve" smooth="yes"/>
      <point x="48" y="549"/>
      <point x="46" y="568"/>
      <point x="41" y="594" type="curve"/>
      <point x="25" y="591" type="line"/>
      <point x="30" y="563"/>
      <point x="35" y="532"/>
      <point x="35" y="494" type="curve" smooth="yes"/>
      <point x="35" y="475"/>
      <point x="34" y="438"/>
    </contour>
  </outline>
</glyph>
<glyph name="ainabove-ar" format="2">
  <unicode hex="0611"/>
  <anchor x="110" y="356" name="_top"/>
  <anchor x="117" y="656" name="top"/>
  <outline>
    <contour>
      <point x="27" y="401" type="curve"/>
      <point x="43" y="398" type="line"/>
      <point x="50" y="436"/>
      <point x="52" y="478"/>
      <point x="52" y="516" type="curve"/>
      <point x="45" y="516" type="line"/>
      <point x="51" y="491"/>
      <point x="77" y="479"/>
      <point x="125" y="479" type="curve" smooth="yes"/>
      <point x="161" y="479"/>
      <point x="184" y="485"/>
      <point x="214" y="499" type="curve"/>
      <point x="210" y="516" type="line"/>
      <point x="190" y="507"/>
      <point x="172" y="501"/>
      <point x="154" y="501" type="curve" smooth="yes"/>
      <point x="128" y="501"/>
      <point x="114" y="525"/>
      <point x="114" y="554" type="curve" smooth="yes"/>
      <point x="114" y="588"/>
      <point x="133" y="610"/>
      <point x="162" y="610" type="curve" smooth="yes"/>
      <point x="174" y="610"/>
      <point x="181" y="607"/>
      <point x="191" y="603" type="curve"/>
      <point x="194" y="620" type="line"/>
      <point x="184" y="625"/>
      <point x="172" y="628"/>
      <point x="161" y="628" type="curve" smooth="yes"/>
      <point x="126" y="628"/>
      <point x="99" y="602"/>
      <point x="99" y="555" type="curve" smooth="yes"/>
      <point x="99" y="520"/>
      <point x="113" y="496"/>
      <point x="133" y="490" type="curve"/>
      <point x="137" y="497" type="line"/>
      <point x="79" y="497"/>
      <point x="57" y="505"/>
      <point x="51" y="536" type="curve" smooth="yes"/>
      <point x="48" y="551"/>
      <point x="46" y="568"/>
      <point x="41" y="594" type="curve"/>
      <point x="25" y="591" type="line"/>
      <point x="30" y="563"/>
      <point x="35" y="535"/>
      <point x="35" y="494" type="curve" smooth="yes"/>
      <point x="35" y="475"/>
      <point x="34" y="438"/>
    </contour>
  </outline>
</glyph>
<glyph name="rehHahabove-ar" format="2">
  <unicode hex="0612"/>
  <anchor x="126" y="356" name="_top"/>
  <anchor x="126" y="646" name="top"/>
  <outline>
    <contour>
      <point x="22" y="412" type="curve"/>
      <point x="39" y="412" type="line"/>
      <point x="39" y="512"/>
      <point x="97" y="556"/>
      <point x="168" y="565" type="curve"/>
      <point x="170" y="584" type="line"/>
      <point x="126" y="586"/>
      <point x="92" y="619"/>
      <point x="53" y="619" type="curve" smooth="yes"/>
      <point x="38" y="619"/>
      <point x="26" y="616"/>
      <point x="18" y="610" type="curve"/>
      <point x="18" y="592" type="line"/>
      <point x="27" y="597"/>
      <point x="36" y="600"/>
      <point x="50" y="600" type="curve" smooth="yes"/>
      <point x="82" y="600"/>
      <point x="104" y="580"/>
      <point x="148" y="570" type="curve"/>
      <point x="148" y="579" type="line"/>
      <point x="55" y="558"/>
      <point x="22" y="494"/>
    </contour>
    <contour>
      <point x="159" y="420" type="curve" smooth="yes"/>
      <point x="210" y="420"/>
      <point x="243" y="451"/>
      <point x="243" y="518" type="curve" smooth="yes"/>
      <point x="243" y="545"/>
      <point x="237" y="579"/>
      <point x="226" y="606" type="curve"/>
      <point x="209" y="600" type="line"/>
      <point x="220" y="571"/>
      <point x="225" y="545"/>
      <point x="225" y="517" type="curve" smooth="yes"/>
      <point x="225" y="460"/>
      <point x="201" y="439"/>
      <point x="158" y="439" type="curve" smooth="yes"/>
      <point x="147" y="439"/>
      <point x="140" y="441"/>
      <point x="130" y="443" type="curve"/>
      <point x="129" y="425" type="line"/>
      <point x="136" y="422"/>
      <point x="149" y="420"/>
    </contour>
  </outline>
</glyph>
<glyph name="rehDadabove-ar" format="2">
  <unicode hex="0613"/>
  <guideline x="31" y="825" angle="0"/>
  <anchor x="158" y="356" name="_top"/>
  <anchor x="158" y="656" name="top"/>
  <outline>
    <contour>
      <point x="223" y="420" type="curve" smooth="yes"/>
      <point x="274" y="420"/>
      <point x="307" y="451"/>
      <point x="307" y="518" type="curve" smooth="yes"/>
      <point x="307" y="545"/>
      <point x="301" y="579"/>
      <point x="290" y="606" type="curve"/>
      <point x="273" y="600" type="line"/>
      <point x="284" y="571"/>
      <point x="289" y="545"/>
      <point x="289" y="517" type="curve" smooth="yes"/>
      <point x="289" y="460"/>
      <point x="265" y="439"/>
      <point x="222" y="439" type="curve" smooth="yes"/>
      <point x="211" y="439"/>
      <point x="204" y="441"/>
      <point x="194" y="443" type="curve"/>
      <point x="193" y="425" type="line"/>
      <point x="200" y="422"/>
      <point x="213" y="420"/>
    </contour>
    <contour>
      <point x="74" y="630" type="curve" smooth="yes"/>
      <point x="81" y="630"/>
      <point x="87" y="638"/>
      <point x="87" y="646" type="curve" smooth="yes"/>
      <point x="87" y="656"/>
      <point x="81" y="663"/>
      <point x="74" y="663" type="curve" smooth="yes"/>
      <point x="66" y="663"/>
      <point x="61" y="656"/>
      <point x="61" y="646" type="curve" smooth="yes"/>
      <point x="61" y="638"/>
      <point x="66" y="630"/>
    </contour>
    <component base="sadabove-ar" xOffset="-8"/>
  </outline>
</glyph>
<glyph name="takhallusabove-ar" format="2">
  <unicode hex="0614"/>
  <anchor x="178" y="356" name="_top"/>
  <anchor x="178" y="594" name="top"/>
  <outline>
    <contour>
      <point x="160" y="420" type="curve" smooth="yes"/>
      <point x="189" y="420"/>
      <point x="213" y="431"/>
      <point x="218" y="463" type="curve"/>
      <point x="213" y="464" type="line"/>
      <point x="214" y="433"/>
      <point x="233" y="420"/>
      <point x="262" y="420" type="curve" smooth="yes"/>
      <point x="296" y="420"/>
      <point x="312" y="440"/>
      <point x="312" y="480" type="curve" smooth="yes"/>
      <point x="312" y="508"/>
      <point x="307" y="537"/>
      <point x="299" y="571" type="curve"/>
      <point x="281" y="567" type="line"/>
      <point x="289" y="531"/>
      <point x="293" y="505"/>
      <point x="293" y="479" type="curve" smooth="yes"/>
      <point x="293" y="451"/>
      <point x="286" y="439"/>
      <point x="263" y="439" type="curve" smooth="yes"/>
      <point x="238" y="439"/>
      <point x="228" y="447"/>
      <point x="226" y="472" type="curve" smooth="yes"/>
      <point x="225" y="486"/>
      <point x="226" y="512"/>
      <point x="226" y="538" type="curve"/>
      <point x="208" y="538" type="line"/>
      <point x="208" y="509"/>
      <point x="208" y="492"/>
      <point x="206" y="475" type="curve" smooth="yes"/>
      <point x="203" y="449"/>
      <point x="189" y="439"/>
      <point x="158" y="439" type="curve" smooth="yes"/>
      <point x="130" y="439"/>
      <point x="82" y="442"/>
      <point x="26" y="457" type="curve"/>
      <point x="24" y="439" type="line"/>
      <point x="83" y="424"/>
      <point x="127" y="420"/>
    </contour>
  </outline>
</glyph>
<glyph name="alefLamYehabove-ar" format="2">
  <unicode hex="0616"/>
  <anchor x="153" y="356" name="_top"/>
  <anchor x="154" y="715" name="top"/>
  <outline>
    <contour>
      <point x="142" y="417" type="curve" smooth="yes"/>
      <point x="182" y="417"/>
      <point x="238" y="425"/>
      <point x="270" y="434" type="curve"/>
      <point x="270" y="452" type="line"/>
      <point x="238" y="444"/>
      <point x="186" y="436"/>
      <point x="146" y="436" type="curve" smooth="yes"/>
      <point x="73" y="436"/>
      <point x="44" y="446"/>
      <point x="44" y="473" type="curve" smooth="yes"/>
      <point x="44" y="491"/>
      <point x="56" y="499"/>
      <point x="107" y="519" type="curve" smooth="yes"/>
      <point x="150" y="536"/>
      <point x="166" y="550"/>
      <point x="164" y="604" type="curve" smooth="yes"/>
      <point x="160" y="694" type="line"/>
      <point x="142" y="694" type="line"/>
      <point x="146" y="602" type="line" smooth="yes"/>
      <point x="148" y="561"/>
      <point x="138" y="552"/>
      <point x="104" y="538" type="curve" smooth="yes"/>
      <point x="53" y="517"/>
      <point x="24" y="509"/>
      <point x="24" y="472" type="curve" smooth="yes"/>
      <point x="24" y="423"/>
      <point x="81" y="417"/>
    </contour>
    <contour>
      <point x="234" y="510" type="line"/>
      <point x="252" y="510" type="line"/>
      <point x="244" y="694" type="line"/>
      <point x="226" y="694" type="line"/>
    </contour>
  </outline>
</glyph>
<glyph name="zainabove-ar" format="2">
  <unicode hex="0617"/>
  <anchor x="69" y="356" name="_top"/>
  <anchor x="68" y="666" name="top"/>
  <outline>
    <contour>
      <point x="46" y="420" type="curve" smooth="yes"/>
      <point x="98" y="420"/>
      <point x="130" y="451"/>
      <point x="130" y="518" type="curve" smooth="yes"/>
      <point x="130" y="545"/>
      <point x="124" y="579"/>
      <point x="114" y="606" type="curve"/>
      <point x="97" y="600" type="line"/>
      <point x="107" y="571"/>
      <point x="112" y="545"/>
      <point x="112" y="517" type="curve" smooth="yes"/>
      <point x="112" y="460"/>
      <point x="88" y="439"/>
      <point x="46" y="439" type="curve" smooth="yes"/>
      <point x="34" y="439"/>
      <point x="27" y="441"/>
      <point x="17" y="443" type="curve"/>
      <point x="16" y="425" type="line"/>
      <point x="23" y="422"/>
      <point x="36" y="420"/>
    </contour>
    <contour>
      <point x="100" y="630" type="curve" smooth="yes"/>
      <point x="108" y="630"/>
      <point x="114" y="636"/>
      <point x="114" y="646" type="curve" smooth="yes"/>
      <point x="114" y="657"/>
      <point x="109" y="663"/>
      <point x="101" y="663" type="curve" smooth="yes"/>
      <point x="93" y="663"/>
      <point x="87" y="657"/>
      <point x="87" y="646" type="curve" smooth="yes"/>
      <point x="87" y="636"/>
      <point x="92" y="630"/>
    </contour>
  </outline>
</glyph>
<glyph name="fathasmall-ar" format="2">
  <unicode hex="0618"/>
  <anchor x="89" y="383" name="_top"/>
  <anchor x="92" y="492" name="top"/>
  <outline>
    <contour>
      <point x="27" y="397" type="line"/>
      <point x="160" y="435" type="line"/>
      <point x="157" y="458" type="line"/>
      <point x="24" y="419" type="line"/>
    </contour>
  </outline>
</glyph>
<glyph name="dammasmall-ar" format="2">
  <unicode hex="0619"/>
  <anchor x="103" y="376" name="_top"/>
  <anchor x="109" y="654" name="top"/>
  <outline>
    <contour>
      <point x="27" y="402" type="line"/>
      <point x="110" y="415"/>
      <point x="178" y="459"/>
      <point x="178" y="550" type="curve" smooth="yes"/>
      <point x="178" y="607"/>
      <point x="151" y="633"/>
      <point x="117" y="633" type="curve" smooth="yes"/>
      <point x="82" y="633"/>
      <point x="54" y="604"/>
      <point x="54" y="556" type="curve" smooth="yes"/>
      <point x="54" y="509"/>
      <point x="83" y="467"/>
      <point x="120" y="446" type="curve"/>
      <point x="132" y="462" type="line"/>
      <point x="100" y="479"/>
      <point x="74" y="514"/>
      <point x="74" y="554" type="curve" smooth="yes"/>
      <point x="74" y="589"/>
      <point x="88" y="612"/>
      <point x="117" y="612" type="curve" smooth="yes"/>
      <point x="140" y="612"/>
      <point x="158" y="594"/>
      <point x="158" y="550" type="curve" smooth="yes"/>
      <point x="158" y="479"/>
      <point x="116" y="438"/>
      <point x="24" y="422" type="curve"/>
    </contour>
  </outline>
</glyph>
<glyph name="semicolon-ar" format="2">
  <advance width="192"/>
  <unicode hex="061B"/>
  <outline>
    <contour>
      <point x="67" y="225" type="curve"/>
      <point x="92" y="225" type="line"/>
      <point x="102" y="295"/>
      <point x="117" y="384"/>
      <point x="141" y="460" type="curve"/>
      <point x="118" y="460" type="line"/>
      <point x="95" y="388"/>
      <point x="77" y="296"/>
    </contour>
    <contour>
      <point x="88" y="-14" type="curve" smooth="yes"/>
      <point x="101" y="-14"/>
      <point x="113" y="-4"/>
      <point x="113" y="19" type="curve" smooth="yes"/>
      <point x="113" y="42"/>
      <point x="101" y="51"/>
      <point x="88" y="51" type="curve" smooth="yes"/>
      <point x="74" y="51"/>
      <point x="62" y="42"/>
      <point x="62" y="19" type="curve" smooth="yes"/>
      <point x="62" y="-4"/>
      <point x="74" y="-14"/>
    </contour>
  </outline>
</glyph>
<glyph name="question-ar" format="2">
  <advance width="331"/>
  <unicode hex="061F"/>
  <outline>
    <contour>
      <point x="190" y="174" type="curve"/>
      <point x="212" y="174" type="line"/>
      <point x="212" y="262"/>
      <point x="202" y="311"/>
      <point x="144" y="373" type="curve" smooth="yes"/>
      <point x="85" y="436"/>
      <point x="50" y="465"/>
      <point x="50" y="542" type="curve" smooth="yes"/>
      <point x="50" y="625"/>
      <point x="110" y="679"/>
      <point x="198" y="679" type="curve" smooth="yes"/>
      <point x="245" y="679"/>
      <point x="287" y="665"/>
      <point x="321" y="645" type="curve"/>
      <point x="326" y="669" type="line"/>
      <point x="291" y="692"/>
      <point x="240" y="704"/>
      <point x="198" y="704" type="curve" smooth="yes"/>
      <point x="90" y="704"/>
      <point x="26" y="636"/>
      <point x="26" y="540" type="curve" smooth="yes"/>
      <point x="26" y="450"/>
      <point x="73" y="415"/>
      <point x="131" y="351" type="curve" smooth="yes"/>
      <point x="179" y="299"/>
      <point x="190" y="257"/>
    </contour>
    <contour>
      <point x="197" y="-14" type="curve" smooth="yes"/>
      <point x="210" y="-14"/>
      <point x="222" y="-4"/>
      <point x="222" y="19" type="curve" smooth="yes"/>
      <point x="222" y="42"/>
      <point x="210" y="51"/>
      <point x="197" y="51" type="curve" smooth="yes"/>
      <point x="183" y="51"/>
      <point x="171" y="42"/>
      <point x="171" y="19" type="curve" smooth="yes"/>
      <point x="171" y="-4"/>
      <point x="183" y="-14"/>
    </contour>
  </outline>
</glyph>
<glyph name="hamza-ar" format="2">
  <advance width="349"/>
  <unicode hex="0621"/>
  <anchor x="179" y="-67" name="bottom"/>
  <anchor x="175" y="443" name="top"/>
  <outline>
    <contour>
      <point x="21" y="-34" type="line"/>
      <point x="111" y="-9"/>
      <point x="256" y="19"/>
      <point x="335" y="37" type="curve"/>
      <point x="333" y="62" type="line"/>
      <point x="274" y="49"/>
      <point x="226" y="37"/>
      <point x="192" y="37" type="curve" smooth="yes"/>
      <point x="118" y="37"/>
      <point x="72" y="107"/>
      <point x="72" y="188" type="curve" smooth="yes"/>
      <point x="72" y="283"/>
      <point x="122" y="337"/>
      <point x="200" y="337" type="curve" smooth="yes"/>
      <point x="236" y="337"/>
      <point x="263" y="328"/>
      <point x="290" y="316" type="curve"/>
      <point x="295" y="338" type="line"/>
      <point x="272" y="351"/>
      <point x="239" y="361"/>
      <point x="202" y="361" type="curve" smooth="yes"/>
      <point x="109" y="361"/>
      <point x="48" y="293"/>
      <point x="48" y="189" type="curve" smooth="yes"/>
      <point x="48" y="87"/>
      <point x="107" y="23"/>
      <point x="166" y="16" type="curve"/>
      <point x="166" y="27" type="line"/>
      <point x="121" y="17"/>
      <point x="72" y="6"/>
      <point x="18" y="-8" type="curve"/>
    </contour>
  </outline>
</glyph>
<glyph name="alef-ar" format="2">
  <advance width="211"/>
  <unicode hex="0627"/>
  <anchor x="113" y="-111" name="bottom"/>
  <anchor x="113" y="-20" name="bottom.dot"/>
  <anchor x="98" y="735" name="top"/>
  <outline>
    <contour>
      <point x="101" y="0" type="line"/>
      <point x="125" y="0" type="line"/>
      <point x="109" y="714" type="line"/>
      <point x="85" y="714" type="line"/>
    </contour>
  </outline>
</glyph>
<glyph name="hah-ar" format="2">
  <advance width="568"/>
  <unicode hex="062D"/>
  <anchor x="266" y="-435" name="bottom"/>
  <anchor x="313" y="-55" name="center"/>
  <anchor x="275" y="590" name="top"/>
  <anchor x="274" y="478" name="top.dot"/>
  <outline>
    <contour>
      <point x="312" y="-394" type="curve" smooth="yes"/>
      <point x="396" y="-394"/>
      <point x="466" y="-378"/>
      <point x="512" y="-358" type="curve"/>
      <point x="510" y="-334" type="line"/>
      <point x="464" y="-352"/>
      <point x="398" y="-368"/>
      <point x="316" y="-368" type="curve" smooth="yes"/>
      <point x="151" y="-368"/>
      <point x="60" y="-277"/>
      <point x="60" y="-116" type="curve" smooth="yes"/>
      <point x="60" y="117"/>
      <point x="295" y="240"/>
      <point x="523" y="293" type="curve"/>
      <point x="523" y="320" type="line"/>
      <point x="474" y="317"/>
      <point x="437" y="328"/>
      <point x="398" y="343" type="curve" smooth="yes"/>
      <point x="311" y="377"/>
      <point x="247" y="456"/>
      <point x="155" y="456" type="curve" smooth="yes"/>
      <point x="113" y="456"/>
      <point x="83" y="445"/>
      <point x="59" y="433" type="curve"/>
      <point x="60" y="408" type="line"/>
      <point x="86" y="420"/>
      <point x="112" y="430"/>
      <point x="157" y="430" type="curve" smooth="yes"/>
      <point x="268" y="430"/>
      <point x="352" y="285"/>
      <point x="506" y="299" type="curve"/>
      <point x="506" y="314" type="line"/>
      <point x="293" y="262"/>
      <point x="36" y="141"/>
      <point x="36" y="-119" type="curve" smooth="yes"/>
      <point x="36" y="-296"/>
      <point x="139" y="-394"/>
    </contour>
  </outline>
</glyph>
<glyph name="dal-ar" format="2">
  <advance width="371"/>
  <unicode hex="062F"/>
  <anchor x="162" y="-111" name="bottom"/>
  <anchor x="164" y="-21" name="bottom.dot"/>
  <anchor x="172" y="582" name="top"/>
  <anchor x="172" y="486" name="top.dot"/>
  <outline>
    <contour>
      <point x="150" y="-10" type="curve" smooth="yes"/>
      <point x="272" y="-10"/>
      <point x="334" y="41"/>
      <point x="334" y="136" type="curve" smooth="yes"/>
      <point x="334" y="231"/>
      <point x="277" y="355"/>
      <point x="180" y="487" type="curve"/>
      <point x="160" y="472" type="line"/>
      <point x="255" y="345"/>
      <point x="310" y="215"/>
      <point x="310" y="136" type="curve" smooth="yes"/>
      <point x="310" y="56"/>
      <point x="255" y="16"/>
      <point x="154" y="16" type="curve" smooth="yes"/>
      <point x="107" y="16"/>
      <point x="58" y="27"/>
      <point x="22" y="46" type="curve"/>
      <point x="18" y="21" type="line"/>
      <point x="52" y="2"/>
      <point x="102" y="-10"/>
    </contour>
  </outline>
</glyph>
<glyph name="reh-ar" format="2">
  <advance width="350"/>
  <unicode hex="0631"/>
  <anchor x="94" y="-297" name="bottom"/>
  <anchor x="94" y="-242" name="bottom.dot"/>
  <anchor x="156" y="1" name="center"/>
  <anchor x="198" y="481" name="top"/>
  <anchor x="201" y="350" name="top.dot"/>
  <outline>
    <contour>
      <point x="53" y="-260" type="curve" smooth="yes"/>
      <point x="204" y="-260"/>
      <point x="282" y="-150"/>
      <point x="282" y="35" type="curve" smooth="yes"/>
      <point x="282" y="127"/>
      <point x="254" y="225"/>
      <point x="214" y="308" type="curve"/>
      <point x="192" y="297" type="line"/>
      <point x="231" y="217"/>
      <point x="258" y="120"/>
      <point x="258" y="34" type="curve" smooth="yes"/>
      <point x="258" y="-135"/>
      <point x="188" y="-234"/>
      <point x="54" y="-234" type="curve" smooth="yes"/>
      <point x="3" y="-234"/>
      <point x="-26" y="-223"/>
      <point x="-60" y="-205" type="curve"/>
      <point x="-60" y="-231" type="line"/>
      <point x="-34" y="-248"/>
      <point x="1" y="-260"/>
    </contour>
  </outline>
</glyph>
<glyph name="seen-ar" format="2">
  <advance width="1014"/>
  <unicode hex="0633"/>
  <anchor x="723" y="-111" name="bottom"/>
  <anchor x="723" y="-20" name="bottom.dot"/>
  <anchor x="730" y="451" name="top"/>
  <anchor x="731" y="341" name="top.dot"/>
  <outline>
    <contour>
      <point x="250" y="-240" type="curve" smooth="yes"/>
      <point x="424" y="-240"/>
      <point x="508" y="-111"/>
      <point x="500" y="92" type="curve"/>
      <point x="487" y="93" type="line"/>
      <point x="497" y="42"/>
      <point x="526" y="-10"/>
      <point x="607" y="-10" type="curve" smooth="yes"/>
      <point x="670" y="-10"/>
      <point x="719" y="17"/>
      <point x="735" y="102" type="curve"/>
      <point x="725" y="100" type="line"/>
      <point x="731" y="30"/>
      <point x="762" y="-10"/>
      <point x="846" y="-10" type="curve" smooth="yes"/>
      <point x="918" y="-10"/>
      <point x="966" y="35"/>
      <point x="966" y="137" type="curve" smooth="yes"/>
      <point x="966" y="213"/>
      <point x="951" y="277"/>
      <point x="929" y="363" type="curve"/>
      <point x="906" y="357" type="line"/>
      <point x="930" y="266"/>
      <point x="942" y="200"/>
      <point x="942" y="131" type="curve" smooth="yes"/>
      <point x="942" y="55"/>
      <point x="910" y="16"/>
      <point x="850" y="16" type="curve" smooth="yes"/>
      <point x="774" y="16"/>
      <point x="752" y="46"/>
      <point x="747" y="110" type="curve" smooth="yes"/>
      <point x="744" y="145"/>
      <point x="746" y="218"/>
      <point x="744" y="284" type="curve"/>
      <point x="720" y="282" type="line"/>
      <point x="722" y="212"/>
      <point x="723" y="160"/>
      <point x="717" y="121" type="curve" smooth="yes"/>
      <point x="706" y="53"/>
      <point x="680" y="16"/>
      <point x="610" y="16" type="curve" smooth="yes"/>
      <point x="554" y="16"/>
      <point x="514" y="43"/>
      <point x="501" y="108" type="curve" smooth="yes"/>
      <point x="493" y="148"/>
      <point x="486" y="195"/>
      <point x="472" y="265" type="curve"/>
      <point x="448" y="260" type="line"/>
      <point x="462" y="187"/>
      <point x="477" y="114"/>
      <point x="477" y="56" type="curve" smooth="yes"/>
      <point x="477" y="-91"/>
      <point x="415" y="-214"/>
      <point x="253" y="-214" type="curve" smooth="yes"/>
      <point x="118" y="-214"/>
      <point x="64" y="-122"/>
      <point x="64" y="1" type="curve" smooth="yes"/>
      <point x="64" y="62"/>
      <point x="73" y="118"/>
      <point x="88" y="175" type="curve"/>
      <point x="66" y="181" type="line"/>
      <point x="50" y="117"/>
      <point x="40" y="55"/>
      <point x="40" y="-2" type="curve" smooth="yes"/>
      <point x="40" y="-135"/>
      <point x="102" y="-240"/>
    </contour>
  </outline>
</glyph>
<glyph name="sad-ar" format="2">
  <advance width="1056"/>
  <unicode hex="0635"/>
  <anchor x="751" y="-112" name="bottom"/>
  <anchor x="751" y="-20" name="bottom.dot"/>
  <anchor x="566" y="459" name="top"/>
  <anchor x="839" y="439" name="top.dot"/>
  <outline>
    <contour>
      <point x="250" y="-240" type="curve" smooth="yes"/>
      <point x="424" y="-240"/>
      <point x="508" y="-109"/>
      <point x="500" y="92" type="curve"/>
      <point x="487" y="89" type="line"/>
      <point x="509" y="23"/>
      <point x="534" y="-5"/>
      <point x="702" y="-5" type="curve" smooth="yes"/>
      <point x="930" y="-5"/>
      <point x="1019" y="63"/>
      <point x="1019" y="193" type="curve" smooth="yes"/>
      <point x="1019" y="306"/>
      <point x="966" y="398"/>
      <point x="873" y="398" type="curve" smooth="yes"/>
      <point x="738" y="398"/>
      <point x="625" y="205"/>
      <point x="528" y="43" type="curve"/>
      <point x="548" y="29" type="line"/>
      <point x="641" y="181"/>
      <point x="748" y="372"/>
      <point x="874" y="372" type="curve" smooth="yes"/>
      <point x="956" y="372"/>
      <point x="995" y="282"/>
      <point x="995" y="194" type="curve" smooth="yes"/>
      <point x="995" y="94"/>
      <point x="933" y="21"/>
      <point x="706" y="21" type="curve" smooth="yes"/>
      <point x="558" y="21"/>
      <point x="518" y="43"/>
      <point x="503" y="100" type="curve" smooth="yes"/>
      <point x="492" y="143"/>
      <point x="486" y="190"/>
      <point x="472" y="264" type="curve"/>
      <point x="448" y="258" type="line"/>
      <point x="464" y="179"/>
      <point x="477" y="114"/>
      <point x="477" y="56" type="curve" smooth="yes"/>
      <point x="477" y="-91"/>
      <point x="415" y="-214"/>
      <point x="253" y="-214" type="curve" smooth="yes"/>
      <point x="118" y="-214"/>
      <point x="64" y="-122"/>
      <point x="64" y="1" type="curve" smooth="yes"/>
      <point x="64" y="62"/>
      <point x="73" y="118"/>
      <point x="88" y="175" type="curve"/>
      <point x="66" y="181" type="line"/>
      <point x="50" y="117"/>
      <point x="40" y="55"/>
      <point x="40" y="-2" type="curve" smooth="yes"/>
      <point x="40" y="-135"/>
      <point x="102" y="-240"/>
    </contour>
  </outline>
</glyph>
<glyph name="tah-ar" format="2">
  <advance width="686"/>
  <unicode hex="0637"/>
  <anchor x="351" y="-112" name="bottom"/>
  <anchor x="351" y="-20" name="bottom.dot"/>
  <anchor x="462" y="536" name="top"/>
  <anchor x="479" y="439" name="top.dot"/>
  <outline>
    <contour>
      <point x="284" y="-5" type="curve" smooth="yes"/>
      <point x="571" y="-5"/>
      <point x="649" y="70"/>
      <point x="649" y="193" type="curve" smooth="yes"/>
      <point x="649" y="301"/>
      <point x="596" y="398"/>
      <point x="502" y="398" type="curve" smooth="yes"/>
      <point x="368" y="398"/>
      <point x="236" y="175"/>
      <point x="147" y="13" type="curve"/>
      <point x="171" y="7" type="line"/>
      <point x="256" y="159"/>
      <point x="379" y="372"/>
      <point x="502" y="372" type="curve" smooth="yes"/>
      <point x="585" y="372"/>
      <point x="625" y="282"/>
      <point x="625" y="194" type="curve" smooth="yes"/>
      <point x="625" y="84"/>
      <point x="549" y="21"/>
      <point x="290" y="21" type="curve" smooth="yes"/>
      <point x="201" y="21"/>
      <point x="103" y="25"/>
      <point x="26" y="32" type="curve"/>
      <point x="24" y="6" type="line"/>
      <point x="98" y="0"/>
      <point x="196" y="-5"/>
    </contour>
    <contour>
      <point x="218" y="124" type="line"/>
      <point x="240" y="161" type="line"/>
      <point x="226" y="714" type="line"/>
      <point x="202" y="714" type="line"/>
    </contour>
  </outline>
</glyph>
<glyph name="ain-ar" format="2">
  <advance width="444"/>
  <unicode hex="0639"/>
  <anchor x="266" y="-435" name="bottom"/>
  <anchor x="282" y="-105" name="center"/>
  <anchor x="216" y="630" name="top"/>
  <anchor x="216" y="510" name="top.dot"/>
  <outline>
    <contour>
      <point x="268" y="-384" type="curve" smooth="yes"/>
      <point x="326" y="-384"/>
      <point x="402" y="-369"/>
      <point x="454" y="-344" type="curve"/>
      <point x="453" y="-319" type="line"/>
      <point x="399" y="-344"/>
      <point x="326" y="-358"/>
      <point x="268" y="-358" type="curve" smooth="yes"/>
      <point x="144" y="-358"/>
      <point x="53" y="-299"/>
      <point x="53" y="-151" type="curve" smooth="yes"/>
      <point x="53" y="-49"/>
      <point x="112" y="34"/>
      <point x="211" y="90" type="curve" smooth="yes"/>
      <point x="256" y="115"/>
      <point x="334" y="137"/>
      <point x="390" y="154" type="curve"/>
      <point x="389" y="180" type="line"/>
      <point x="331" y="162"/>
      <point x="266" y="140"/>
      <point x="227" y="140" type="curve" smooth="yes"/>
      <point x="158" y="140"/>
      <point x="85" y="193"/>
      <point x="85" y="306" type="curve" smooth="yes"/>
      <point x="85" y="421"/>
      <point x="156" y="486"/>
      <point x="245" y="486" type="curve" smooth="yes"/>
      <point x="290" y="486"/>
      <point x="319" y="474"/>
      <point x="347" y="463" type="curve"/>
      <point x="350" y="487" type="line"/>
      <point x="321" y="501"/>
      <point x="289" y="512"/>
      <point x="243" y="512" type="curve" smooth="yes"/>
      <point x="137" y="512"/>
      <point x="63" y="427"/>
      <point x="63" y="305" type="curve" smooth="yes"/>
      <point x="63" y="178"/>
      <point x="149" y="114"/>
      <point x="222" y="114" type="curve"/>
      <point x="222" y="123" type="line"/>
      <point x="114" y="68"/>
      <point x="29" y="-20"/>
      <point x="29" y="-156" type="curve" smooth="yes"/>
      <point x="29" y="-306"/>
      <point x="122" y="-384"/>
    </contour>
  </outline>
</glyph>
<glyph name="kashida-ar" format="2">
  <advance width="223"/>
  <unicode hex="0640"/>
  <outline>
    <contour>
      <point x="0" y="-5" type="line"/>
      <point x="224" y="-5" type="line" smooth="yes"/>
      <point x="230" y="-5"/>
      <point x="235" y="2"/>
      <point x="235" y="8" type="curve" smooth="yes"/>
      <point x="235" y="14"/>
      <point x="233" y="21"/>
      <point x="226" y="21" type="curve" smooth="yes"/>
      <point x="3" y="21" type="line"/>
    </contour>
  </outline>
</glyph>
<glyph name="kaf-ar" format="2">
  <advance width="736"/>
  <unicode hex="0643"/>
  <anchor x="355" y="-111" name="bottom"/>
  <anchor x="356" y="-20" name="bottom.dot"/>
  <anchor x="358" y="600" name="top"/>
  <anchor x="358" y="582" name="top.dot"/>
  <outline>
    <contour>
      <point x="312" y="-15" type="line"/>
      <point x="569" y="-15"/>
      <point x="656" y="74"/>
      <point x="650" y="246" type="curve" smooth="yes"/>
      <point x="634" y="714" type="line"/>
      <point x="610" y="714" type="line"/>
      <point x="625" y="240" type="line" smooth="yes"/>
      <point x="630" y="70"/>
      <point x="516" y="11"/>
      <point x="333" y="11" type="curve"/>
    </contour>
    <contour>
      <point x="252" y="276" type="line"/>
      <point x="358" y="277"/>
      <point x="424" y="307"/>
      <point x="424" y="365" type="curve" smooth="yes"/>
      <point x="424" y="395"/>
      <point x="411" y="412"/>
      <point x="358" y="430" type="curve" smooth="yes"/>
      <point x="316" y="444"/>
      <point x="299" y="459"/>
      <point x="299" y="479" type="curve" smooth="yes"/>
      <point x="299" y="504"/>
      <point x="321" y="535"/>
      <point x="416" y="562" type="curve"/>
      <point x="413" y="585" type="line"/>
      <point x="318" y="559"/>
      <point x="277" y="525"/>
      <point x="277" y="476" type="curve" smooth="yes"/>
      <point x="277" y="441"/>
      <point x="296" y="427"/>
      <point x="355" y="407" type="curve" smooth="yes"/>
      <point x="396" y="393"/>
      <point x="402" y="380"/>
      <point x="402" y="363" type="curve" smooth="yes"/>
      <point x="402" y="328"/>
      <point x="351" y="301"/>
      <point x="250" y="299" type="curve"/>
    </contour>
    <component base="_part.beh.fina" xOffset="-8"/>
  </outline>
</glyph>
<glyph name="lam-ar" format="2">
  <advance width="545"/>
  <unicode hex="0644"/>
  <anchor x="251" y="-271" name="bottom"/>
  <anchor x="251" y="-223" name="bottom.dot"/>
  <anchor x="442" y="389" name="center"/>
  <anchor x="156" y="494" name="top"/>
  <anchor x="435" y="715" name="top.dot"/>
  <outline>
    <contour>
      <point x="241" y="-239" type="curve" smooth="yes"/>
      <point x="378" y="-239"/>
      <point x="466" y="-144"/>
      <point x="459" y="130" type="curve" smooth="yes"/>
      <point x="444" y="714" type="line"/>
      <point x="420" y="714" type="line"/>
      <point x="435" y="138" type="line" smooth="yes"/>
      <point x="442" y="-134"/>
      <point x="365" y="-213"/>
      <point x="242" y="-213" type="curve" smooth="yes"/>
      <point x="118" y="-213"/>
      <point x="64" y="-132"/>
      <point x="64" y="1" type="curve" smooth="yes"/>
      <point x="64" y="72"/>
      <point x="75" y="122"/>
      <point x="88" y="175" type="curve"/>
      <point x="66" y="181" type="line"/>
      <point x="52" y="129"/>
      <point x="40" y="68"/>
      <point x="40" y="-2" type="curve" smooth="yes"/>
      <point x="40" y="-144"/>
      <point x="102" y="-239"/>
    </contour>
  </outline>
</glyph>
<glyph name="meem-ar" format="2">
  <advance width="431"/>
  <unicode hex="0645"/>
  <anchor x="226" y="-111" name="bottom"/>
  <anchor x="226" y="-20" name="bottom.dot"/>
  <anchor x="210" y="490" name="top"/>
  <anchor x="211" y="391" name="top.dot"/>
  <outline>
    <contour>
      <point x="51" y="-393" type="curve"/>
      <point x="75" y="-391" type="line"/>
      <point x="66" y="-273"/>
      <point x="56" y="-169"/>
      <point x="56" y="-99" type="curve" smooth="yes"/>
      <point x="56" y="15"/>
      <point x="107" y="65"/>
      <point x="219" y="65" type="curve" smooth="yes"/>
      <point x="278" y="65"/>
      <point x="335" y="56"/>
      <point x="390" y="46" type="curve"/>
      <point x="398" y="76" type="line"/>
      <point x="363" y="236"/>
      <point x="306" y="382"/>
      <point x="208" y="382" type="curve" smooth="yes"/>
      <point x="150" y="382"/>
      <point x="104" y="334"/>
      <point x="71" y="234" type="curve"/>
      <point x="94" y="225" type="line"/>
      <point x="124" y="311"/>
      <point x="157" y="355"/>
      <point x="208" y="355" type="curve" smooth="yes"/>
      <point x="287" y="355"/>
      <point x="341" y="219"/>
      <point x="375" y="66" type="curve"/>
      <point x="385" y="73" type="line"/>
      <point x="339" y="81"/>
      <point x="285" y="91"/>
      <point x="220" y="91" type="curve" smooth="yes"/>
      <point x="99" y="91"/>
      <point x="32" y="35"/>
      <point x="32" y="-99" type="curve" smooth="yes"/>
      <point x="32" y="-165"/>
      <point x="39" y="-252"/>
    </contour>
  </outline>
</glyph>
<glyph name="heh-ar" format="2">
  <advance width="364"/>
  <unicode hex="0647"/>
  <anchor x="175" y="-111" name="bottom"/>
  <anchor x="166" y="600" name="top"/>
  <anchor x="166" y="531" name="top.dot"/>
  <outline>
    <contour>
      <point x="172" y="0" type="curve" smooth="yes"/>
      <point x="286" y="0"/>
      <point x="340" y="68"/>
      <point x="340" y="171" type="curve" smooth="yes"/>
      <point x="340" y="292"/>
      <point x="274" y="393"/>
      <point x="142" y="510" type="curve"/>
      <point x="125" y="490" type="line"/>
      <point x="258" y="376"/>
      <point x="316" y="275"/>
      <point x="316" y="172" type="curve" smooth="yes"/>
      <point x="316" y="85"/>
      <point x="275" y="26"/>
      <point x="174" y="26" type="curve" smooth="yes"/>
      <point x="90" y="26"/>
      <point x="48" y="83"/>
      <point x="48" y="162" type="curve" smooth="yes"/>
      <point x="48" y="271"/>
      <point x="104" y="349"/>
      <point x="191" y="445" type="curve"/>
      <point x="172" y="462" type="line"/>
      <point x="85" y="363"/>
      <point x="24" y="278"/>
      <point x="24" y="161" type="curve" smooth="yes"/>
      <point x="24" y="64"/>
      <point x="80" y="0"/>
    </contour>
  </outline>
</glyph>
<glyph name="alefMaksura-ar" format="2">
  <advance width="631"/>
  <unicode hex="0649"/>
  <anchor x="278" y="-271" name="bottom"/>
  <anchor x="278" y="-236" name="bottom.dot"/>
  <anchor x="165" y="306" name="top"/>
  <anchor x="92" y="181" name="top.dot"/>
  <outline>
    <contour>
      <point x="266" y="-240" type="curve" smooth="yes"/>
      <point x="458" y="-240"/>
      <point x="577" y="-113"/>
      <point x="577" y="-1" type="curve" smooth="yes"/>
      <point x="577" y="66"/>
      <point x="538" y="86"/>
      <point x="440" y="114" type="curve" smooth="yes"/>
      <point x="356" y="138"/>
      <point x="322" y="159"/>
      <point x="322" y="218" type="curve" smooth="yes"/>
      <point x="322" y="303"/>
      <point x="394" y="400"/>
      <point x="496" y="400" type="curve" smooth="yes"/>
      <point x="530" y="400"/>
      <point x="563" y="388"/>
      <point x="591" y="368" type="curve"/>
      <point x="598" y="392" type="line"/>
      <point x="574" y="411"/>
      <point x="538" y="426"/>
      <point x="496" y="426" type="curve" smooth="yes"/>
      <point x="383" y="426"/>
      <point x="298" y="318"/>
      <point x="298" y="215" type="curve" smooth="yes"/>
      <point x="298" y="141"/>
      <point x="346" y="112"/>
      <point x="434" y="88" type="curve" smooth="yes"/>
      <point x="526" y="63"/>
      <point x="553" y="46"/>
      <point x="553" y="-2" type="curve" smooth="yes"/>
      <point x="553" y="-100"/>
      <point x="440" y="-214"/>
      <point x="270" y="-214" type="curve" smooth="yes"/>
      <point x="127" y="-214"/>
      <point x="64" y="-149"/>
      <point x="64" y="-19" type="curve" smooth="yes"/>
      <point x="64" y="32"/>
      <point x="75" y="103"/>
      <point x="96" y="165" type="curve"/>
      <point x="74" y="171" type="line"/>
      <point x="48" y="97"/>
      <point x="40" y="28"/>
      <point x="40" y="-22" type="curve" smooth="yes"/>
      <point x="40" y="-176"/>
      <point x="125" y="-240"/>
    </contour>
  </outline>
</glyph>
<glyph name="fathatan-ar" format="2">
  <unicode hex="064B"/>
  <anchor x="117" y="383" name="_top"/>
  <anchor x="114" y="613" name="top"/>
  <outline>
    <contour>
      <point x="27" y="516" type="line"/>
      <point x="200" y="564" type="line"/>
      <point x="197" y="587" type="line"/>
      <point x="24" y="538" type="line"/>
    </contour>
    <contour>
      <point x="27" y="397" type="line"/>
      <point x="200" y="445" type="line"/>
      <point x="197" y="468" type="line"/>
      <point x="24" y="419" type="line"/>
    </contour>
  </outline>
</glyph>
<glyph name="dammatan-ar" format="2">
  <unicode hex="064C"/>
  <anchor x="132" y="383" name="_top"/>
  <anchor x="135" y="608" name="top"/>
  <outline>
    <contour>
      <point x="37" y="399" type="line"/>
      <point x="148" y="404"/>
      <point x="238" y="458"/>
      <point x="238" y="549" type="curve" smooth="yes"/>
      <point x="238" y="595"/>
      <point x="216" y="622"/>
      <point x="182" y="622" type="curve" smooth="yes"/>
      <point x="152" y="622"/>
      <point x="125" y="596"/>
      <point x="125" y="548" type="curve" smooth="yes"/>
      <point x="125" y="505"/>
      <point x="150" y="471"/>
      <point x="176" y="452" type="curve"/>
      <point x="188" y="469" type="line"/>
      <point x="162" y="488"/>
      <point x="144" y="513"/>
      <point x="144" y="547" type="curve" smooth="yes"/>
      <point x="144" y="579"/>
      <point x="158" y="598"/>
      <point x="182" y="598" type="curve" smooth="yes"/>
      <point x="207" y="598"/>
      <point x="218" y="579"/>
      <point x="218" y="546" type="curve" smooth="yes"/>
      <point x="218" y="472"/>
      <point x="132" y="430"/>
      <point x="62" y="422" type="curve"/>
      <point x="56" y="415" type="line"/>
      <point x="87" y="416"/>
      <point x="104" y="445"/>
      <point x="104" y="482" type="curve" smooth="yes"/>
      <point x="104" y="520"/>
      <point x="89" y="545"/>
      <point x="60" y="545" type="curve" smooth="yes"/>
      <point x="46" y="545"/>
      <point x="33" y="539"/>
      <point x="24" y="531" type="curve"/>
      <point x="27" y="513" type="line"/>
      <point x="37" y="520"/>
      <point x="47" y="524"/>
      <point x="58" y="524" type="curve" smooth="yes"/>
      <point x="77" y="524"/>
      <point x="85" y="504"/>
      <point x="85" y="481" type="curve" smooth="yes"/>
      <point x="85" y="455"/>
      <point x="74" y="426"/>
      <point x="35" y="421" type="curve"/>
    </contour>
  </outline>
</glyph>
<glyph name="fatha-ar" format="2">
  <unicode hex="064E"/>
  <anchor x="114" y="363" name="_top"/>
  <anchor x="114" y="356" name="_top.dot"/>
  <anchor x="106" y="472" name="top"/>
  <outline>
    <contour>
      <point x="27" y="397" type="line"/>
      <point x="200" y="445" type="line"/>
      <point x="197" y="468" type="line"/>
      <point x="24" y="419" type="line"/>
    </contour>
  </outline>
</glyph>
<glyph name="shadda-ar" format="2">
  <unicode hex="0651"/>
  <anchor x="116" y="383" name="_top"/>
  <anchor x="118" y="574" name="top"/>
  <outline>
    <contour>
      <point x="70" y="402" type="curve" smooth="yes"/>
      <point x="103" y="402"/>
      <point x="120" y="440"/>
      <point x="120" y="482" type="curve"/>
      <point x="112" y="480" type="line"/>
      <point x="114" y="446"/>
      <point x="130" y="429"/>
      <point x="152" y="429" type="curve" smooth="yes"/>
      <point x="186" y="429"/>
      <point x="203" y="461"/>
      <point x="203" y="504" type="curve" smooth="yes"/>
      <point x="203" y="535"/>
      <point x="199" y="553"/>
      <point x="194" y="577" type="curve"/>
      <point x="176" y="571" type="line"/>
      <point x="181" y="549"/>
      <point x="184" y="528"/>
      <point x="184" y="504" type="curve" smooth="yes"/>
      <point x="184" y="467"/>
      <point x="172" y="452"/>
      <point x="153" y="452" type="curve" smooth="yes"/>
      <point x="136" y="452"/>
      <point x="125" y="466"/>
      <point x="125" y="502" type="curve" smooth="yes"/>
      <point x="125" y="548" type="line"/>
      <point x="106" y="543" type="line"/>
      <point x="105" y="499" type="line" smooth="yes"/>
      <point x="104" y="447"/>
      <point x="90" y="425"/>
      <point x="69" y="425" type="curve" smooth="yes"/>
      <point x="50" y="425"/>
      <point x="44" y="443"/>
      <point x="44" y="472" type="curve" smooth="yes"/>
      <point x="44" y="485"/>
      <point x="45" y="498"/>
      <point x="48" y="523" type="curve"/>
      <point x="29" y="517" type="line"/>
      <point x="26" y="497"/>
      <point x="24" y="483"/>
      <point x="24" y="470" type="curve" smooth="yes"/>
      <point x="24" y="426"/>
      <point x="38" y="402"/>
    </contour>
  </outline>
</glyph>
<glyph name="madda-ar" format="2">
  <unicode hex="0653"/>
  <guideline x="60" y="1351" angle="0"/>
  <anchor x="119" y="383" name="_top"/>
  <anchor x="119" y="356" name="_top.dot"/>
  <anchor x="119" y="531" name="top"/>
  <outline>
    <contour>
      <point x="173" y="426" type="curve" smooth="yes"/>
      <point x="201" y="426"/>
      <point x="222" y="442"/>
      <point x="245" y="473" type="curve"/>
      <point x="231" y="487" type="line"/>
      <point x="211" y="463"/>
      <point x="196" y="449"/>
      <point x="173" y="449" type="curve" smooth="yes"/>
      <point x="134" y="449"/>
      <point x="100" y="500"/>
      <point x="62" y="500" type="curve" smooth="yes"/>
      <point x="32" y="500"/>
      <point x="14" y="475"/>
      <point x="0" y="451" type="curve"/>
      <point x="14" y="438" type="line"/>
      <point x="27" y="459"/>
      <point x="42" y="477"/>
      <point x="59" y="477" type="curve" smooth="yes"/>
      <point x="88" y="477"/>
      <point x="126" y="426"/>
    </contour>
  </outline>
</glyph>
<glyph name="noonghunnaabove-ar" format="2">
  <unicode hex="0658"/>
  <anchor x="110" y="383" name="_top"/>
  <anchor x="110" y="613" name="top"/>
  <outline>
    <contour>
      <point x="106" y="413" type="curve" smooth="yes"/>
      <point x="163" y="413"/>
      <point x="195" y="448"/>
      <point x="195" y="523" type="curve" smooth="yes"/>
      <point x="195" y="547"/>
      <point x="193" y="573"/>
      <point x="188" y="597" type="curve"/>
      <point x="170" y="593" type="line"/>
      <point x="174" y="569"/>
      <point x="176" y="540"/>
      <point x="176" y="523" type="curve" smooth="yes"/>
      <point x="176" y="459"/>
      <point x="154" y="435"/>
      <point x="106" y="435" type="curve" smooth="yes"/>
      <point x="59" y="435"/>
      <point x="42" y="461"/>
      <point x="42" y="509" type="curve" smooth="yes"/>
      <point x="42" y="532"/>
      <point x="44" y="550"/>
      <point x="48" y="572" type="curve"/>
      <point x="32" y="575" type="line"/>
      <point x="27" y="553"/>
      <point x="24" y="531"/>
      <point x="24" y="509" type="curve" smooth="yes"/>
      <point x="24" y="445"/>
      <point x="51" y="413"/>
    </contour>
  </outline>
</glyph>
<glyph name="fathaHorizont-ar" format="2">
  <unicode hex="0659"/>
  <anchor x="114" y="420" name="_top"/>
  <anchor x="113" y="598" name="top"/>
  <outline>
    <contour>
      <point x="24" y="523" type="line"/>
      <point x="203" y="523" type="line"/>
      <point x="203" y="545" type="line"/>
      <point x="24" y="544" type="line"/>
    </contour>
  </outline>
</glyph>
<glyph name="fathatwodots-ar" format="2">
  <unicode hex="065E"/>
  <anchor x="106" y="388" name="_top"/>
  <anchor x="108" y="653" name="top"/>
  <outline>
    <contour>
      <point x="24" y="429" type="line"/>
      <point x="182" y="595" type="line"/>
      <point x="182" y="624" type="line"/>
      <point x="24" y="457" type="line"/>
    </contour>
    <contour>
      <point x="153" y="422" type="curve"/>
      <point x="180" y="453" type="line"/>
      <point x="169" y="467"/>
      <point x="163" y="475"/>
      <point x="153" y="484" type="curve"/>
      <point x="128" y="452" type="line"/>
      <point x="139" y="440"/>
      <point x="145" y="433"/>
    </contour>
    <contour>
      <point x="49" y="578" type="curve"/>
      <point x="75" y="609" type="line"/>
      <point x="65" y="623"/>
      <point x="58" y="631"/>
      <point x="49" y="640" type="curve"/>
      <point x="23" y="608" type="line"/>
      <point x="35" y="596"/>
      <point x="41" y="589"/>
    </contour>
  </outline>
</glyph>
<glyph name="zero-ar" format="2">
  <advance width="235"/>
  <unicode hex="0660"/>
  <outline>
    <contour>
      <point x="122" y="193" type="curve"/>
      <point x="150" y="229" type="line"/>
      <point x="137" y="247"/>
      <point x="127" y="260"/>
      <point x="113" y="275" type="curve"/>
      <point x="85" y="238" type="line"/>
      <point x="100" y="222"/>
      <point x="108" y="211"/>
    </contour>
  </outline>
</glyph>
<glyph name="one-ar" format="2">
  <advance width="299"/>
  <unicode hex="0661"/>
  <outline>
    <contour>
      <point x="180" y="-5" type="curve"/>
      <point x="203" y="-3" type="line"/>
      <point x="194" y="211"/>
      <point x="165" y="457"/>
      <point x="120" y="664" type="curve"/>
      <point x="96" y="657" type="line"/>
      <point x="142" y="451"/>
      <point x="169" y="203"/>
    </contour>
  </outline>
</glyph>
<glyph name="two-ar" format="2">
  <advance width="398"/>
  <unicode hex="0662"/>
  <outline>
    <contour>
      <point x="154" y="-5" type="curve"/>
      <point x="177" y="-3" type="line"/>
      <point x="151" y="242"/>
      <point x="87" y="433"/>
      <point x="87" y="531" type="curve" smooth="yes"/>
      <point x="87" y="600"/>
      <point x="118" y="637"/>
      <point x="228" y="637" type="curve" smooth="yes"/>
      <point x="270" y="637"/>
      <point x="325" y="630"/>
      <point x="372" y="615" type="curve"/>
      <point x="376" y="639" type="line"/>
      <point x="329" y="656"/>
      <point x="275" y="663"/>
      <point x="229" y="663" type="curve" smooth="yes"/>
      <point x="109" y="663"/>
      <point x="63" y="616"/>
      <point x="63" y="534" type="curve" smooth="yes"/>
      <point x="63" y="442"/>
      <point x="128" y="229"/>
    </contour>
  </outline>
</glyph>
<glyph name="three-ar" format="2">
  <advance width="516"/>
  <unicode hex="0663"/>
  <outline>
    <contour>
      <point x="123" y="-5" type="curve"/>
      <point x="147" y="-3" type="line"/>
      <point x="139" y="196"/>
      <point x="124" y="332"/>
      <point x="101" y="479" type="curve"/>
      <point x="87" y="473" type="line"/>
      <point x="99" y="424"/>
      <point x="136" y="403"/>
      <point x="185" y="403" type="curve" smooth="yes"/>
      <point x="246" y="403"/>
      <point x="272" y="439"/>
      <point x="280" y="487" type="curve"/>
      <point x="273" y="487" type="line"/>
      <point x="278" y="432"/>
      <point x="311" y="407"/>
      <point x="364" y="407" type="curve" smooth="yes"/>
      <point x="433" y="407"/>
      <point x="464" y="459"/>
      <point x="464" y="549" type="curve" smooth="yes"/>
      <point x="464" y="588"/>
      <point x="461" y="626"/>
      <point x="450" y="675" type="curve"/>
      <point x="428" y="669" type="line"/>
      <point x="438" y="622"/>
      <point x="440" y="587"/>
      <point x="440" y="547" type="curve" smooth="yes"/>
      <point x="440" y="476"/>
      <point x="423" y="433"/>
      <point x="367" y="433" type="curve" smooth="yes"/>
      <point x="317" y="433"/>
      <point x="299" y="456"/>
      <point x="294" y="496" type="curve" smooth="yes"/>
      <point x="290" y="527"/>
      <point x="292" y="588"/>
      <point x="292" y="657" type="curve"/>
      <point x="268" y="657" type="line"/>
      <point x="268" y="589"/>
      <point x="267" y="535"/>
      <point x="263" y="501" type="curve" smooth="yes"/>
      <point x="258" y="458"/>
      <point x="238" y="429"/>
      <point x="189" y="429" type="curve" smooth="yes"/>
      <point x="135" y="429"/>
      <point x="109" y="451"/>
      <point x="101" y="498" type="curve" smooth="yes"/>
      <point x="94" y="538"/>
      <point x="83" y="600"/>
      <point x="72" y="657" type="curve"/>
      <point x="48" y="651" type="line"/>
      <point x="95" y="430"/>
      <point x="115" y="191"/>
    </contour>
  </outline>
</glyph>
<glyph name="four-ar" format="2">
  <advance width="364"/>
  <unicode hex="0664"/>
  <outline>
    <contour>
      <point x="209" y="-6" type="curve" smooth="yes"/>
      <point x="260" y="-6"/>
      <point x="317" y="6"/>
      <point x="358" y="26" type="curve"/>
      <point x="355" y="49" type="line"/>
      <point x="316" y="33"/>
      <point x="265" y="20"/>
      <point x="212" y="20" type="curve" smooth="yes"/>
      <point x="109" y="20"/>
      <point x="71" y="62"/>
      <point x="71" y="131" type="curve" smooth="yes"/>
      <point x="71" y="212"/>
      <point x="126" y="265"/>
      <point x="268" y="335" type="curve"/>
      <point x="265" y="359" type="line"/>
      <point x="171" y="361"/>
      <point x="70" y="380"/>
      <point x="70" y="464" type="curve" smooth="yes"/>
      <point x="70" y="547"/>
      <point x="165" y="609"/>
      <point x="272" y="648" type="curve"/>
      <point x="268" y="672" type="line"/>
      <point x="156" y="629"/>
      <point x="46" y="568"/>
      <point x="46" y="463" type="curve" smooth="yes"/>
      <point x="46" y="376"/>
      <point x="132" y="343"/>
      <point x="244" y="338" type="curve"/>
      <point x="244" y="345" type="line"/>
      <point x="104" y="285"/>
      <point x="47" y="209"/>
      <point x="47" y="134" type="curve" smooth="yes"/>
      <point x="47" y="45"/>
      <point x="101" y="-6"/>
    </contour>
  </outline>
</glyph>
<glyph name="five-ar" format="2">
  <advance width="420"/>
  <unicode hex="0665"/>
  <outline>
    <contour>
      <point x="209" y="0" type="curve" smooth="yes"/>
      <point x="311" y="0"/>
      <point x="366" y="77"/>
      <point x="366" y="219" type="curve" smooth="yes"/>
      <point x="366" y="379"/>
      <point x="301" y="485"/>
      <point x="216" y="485" type="curve" smooth="yes"/>
      <point x="132" y="485"/>
      <point x="54" y="376"/>
      <point x="54" y="209" type="curve" smooth="yes"/>
      <point x="54" y="64"/>
      <point x="117" y="0"/>
    </contour>
    <contour>
      <point x="210" y="26" type="curve" smooth="yes"/>
      <point x="130" y="26"/>
      <point x="78" y="78"/>
      <point x="78" y="209" type="curve" smooth="yes"/>
      <point x="78" y="358"/>
      <point x="136" y="459"/>
      <point x="215" y="459" type="curve" smooth="yes"/>
      <point x="290" y="459"/>
      <point x="342" y="364"/>
      <point x="342" y="216" type="curve" smooth="yes"/>
      <point x="342" y="85"/>
      <point x="292" y="26"/>
    </contour>
  </outline>
</glyph>
<glyph name="six-ar" format="2">
  <advance width="404"/>
  <unicode hex="0666"/>
  <outline>
    <contour>
      <point x="326" y="0" type="curve"/>
      <point x="350" y="5" type="line"/>
      <point x="325" y="207"/>
      <point x="306" y="447"/>
      <point x="296" y="641" type="curve"/>
      <point x="259" y="637"/>
      <point x="207" y="635"/>
      <point x="167" y="635" type="curve" smooth="yes"/>
      <point x="120" y="635"/>
      <point x="62" y="638"/>
      <point x="22" y="646" type="curve"/>
      <point x="20" y="620" type="line"/>
      <point x="61" y="612"/>
      <point x="115" y="609"/>
      <point x="163" y="609" type="curve" smooth="yes"/>
      <point x="203" y="609"/>
      <point x="256" y="612"/>
      <point x="290" y="616" type="curve"/>
      <point x="274" y="625" type="line"/>
      <point x="284" y="434"/>
      <point x="302" y="203"/>
    </contour>
  </outline>
</glyph>
<glyph name="seven-ar" format="2">
  <advance width="478"/>
  <unicode hex="0667"/>
  <outline>
    <contour>
      <point x="234" y="0" type="curve"/>
      <point x="252" y="2" type="line"/>
      <point x="306" y="231"/>
      <point x="376" y="476"/>
      <point x="438" y="667" type="curve"/>
      <point x="415" y="675" type="line"/>
      <point x="354" y="485"/>
      <point x="283" y="236"/>
      <point x="235" y="23" type="curve"/>
      <point x="249" y="23" type="line"/>
      <point x="206" y="238"/>
      <point x="125" y="489"/>
      <point x="63" y="673" type="curve"/>
      <point x="40" y="664" type="line"/>
      <point x="103" y="478"/>
      <point x="182" y="227"/>
    </contour>
  </outline>
</glyph>
<glyph name="nine-ar" format="2">
  <advance width="426"/>
  <unicode hex="0669"/>
  <outline>
    <contour>
      <point x="347" y="-5" type="curve"/>
      <point x="370" y="-1" type="line"/>
      <point x="357" y="108"/>
      <point x="342" y="240"/>
      <point x="330" y="395" type="curve" smooth="yes"/>
      <point x="317" y="572"/>
      <point x="276" y="675"/>
      <point x="180" y="675" type="curve" smooth="yes"/>
      <point x="96" y="675"/>
      <point x="28" y="588"/>
      <point x="28" y="460" type="curve" smooth="yes"/>
      <point x="28" y="359"/>
      <point x="77" y="301"/>
      <point x="180" y="301" type="curve" smooth="yes"/>
      <point x="233" y="301"/>
      <point x="285" y="311"/>
      <point x="322" y="325" type="curve"/>
      <point x="322" y="350" type="line"/>
      <point x="282" y="337"/>
      <point x="239" y="327"/>
      <point x="184" y="327" type="curve" smooth="yes"/>
      <point x="86" y="327"/>
      <point x="52" y="377"/>
      <point x="52" y="463" type="curve" smooth="yes"/>
      <point x="52" y="555"/>
      <point x="99" y="649"/>
      <point x="179" y="649" type="curve" smooth="yes"/>
      <point x="259" y="649"/>
      <point x="293" y="559"/>
      <point x="307" y="389" type="curve" smooth="yes"/>
      <point x="320" y="235"/>
      <point x="333" y="103"/>
    </contour>
  </outline>
</glyph>
<glyph name="percent-ar" format="2">
  <advance width="384"/>
  <unicode hex="066A"/>
  <outline>
    <contour>
      <point x="51" y="-9" type="line"/>
      <point x="353" y="678" type="line"/>
      <point x="333" y="688" type="line"/>
      <point x="30" y="2" type="line"/>
    </contour>
    <contour>
      <point x="319" y="-9" type="curve"/>
      <point x="352" y="31" type="line"/>
      <point x="342" y="47"/>
      <point x="329" y="64"/>
      <point x="314" y="78" type="curve"/>
      <point x="282" y="35" type="line"/>
      <point x="297" y="20"/>
      <point x="305" y="9"/>
    </contour>
    <contour>
      <point x="74" y="597" type="curve"/>
      <point x="106" y="637" type="line"/>
      <point x="97" y="653"/>
      <point x="83" y="670"/>
      <point x="69" y="684" type="curve"/>
      <point x="37" y="641" type="line"/>
      <point x="51" y="626"/>
      <point x="59" y="615"/>
    </contour>
  </outline>
</glyph>
<glyph name="thousandseparator-ar" format="2">
  <advance width="196"/>
  <unicode hex="066C"/>
  <outline>
    <contour>
      <point x="94" y="0" type="curve" smooth="yes"/>
      <point x="110" y="0"/>
      <point x="118" y="11"/>
      <point x="118" y="30" type="curve" smooth="yes"/>
      <point x="118" y="41"/>
      <point x="111" y="49"/>
      <point x="103" y="56" type="curve" smooth="yes"/>
      <point x="95" y="63"/>
      <point x="86" y="70"/>
      <point x="86" y="84" type="curve" smooth="yes"/>
      <point x="86" y="118"/>
      <point x="98" y="160"/>
      <point x="140" y="220" type="curve"/>
      <point x="125" y="235" type="line"/>
      <point x="87" y="186"/>
      <point x="59" y="130"/>
      <point x="59" y="63" type="curve" smooth="yes"/>
      <point x="59" y="21"/>
      <point x="75" y="0"/>
    </contour>
  </outline>
</glyph>
<glyph name="asterisk-ar" format="2">
  <advance width="419"/>
  <unicode hex="066D"/>
  <outline>
    <contour>
      <point x="84" y="-1" type="line"/>
      <point x="210" y="137" type="line"/>
      <point x="335" y="-1" type="line"/>
      <point x="339" y="3" type="line"/>
      <point x="258" y="194" type="line"/>
      <point x="403" y="279" type="line"/>
      <point x="402" y="287" type="line"/>
      <point x="243" y="267" type="line"/>
      <point x="213" y="458" type="line"/>
      <point x="207" y="458" type="line"/>
      <point x="176" y="266" type="line"/>
      <point x="18" y="287" type="line"/>
      <point x="16" y="279" type="line"/>
      <point x="160" y="192" type="line"/>
      <point x="80" y="3" type="line"/>
    </contour>
  </outline>
</glyph>
<glyph name="dotlessbeh-ar" format="2">
  <advance width="750"/>
  <unicode hex="066E"/>
  <anchor x="370" y="-111" name="bottom"/>
  <anchor x="370" y="-40" name="bottom.dot"/>
  <anchor x="370" y="448" name="top"/>
  <anchor x="370" y="289" name="top.dot"/>
  <outline>
    <contour>
      <point x="312" y="-15" type="line"/>
      <point x="593" y="-15"/>
      <point x="702" y="43"/>
      <point x="702" y="181" type="curve" smooth="yes"/>
      <point x="702" y="240"/>
      <point x="691" y="295"/>
      <point x="674" y="363" type="curve"/>
      <point x="650" y="357" type="line"/>
      <point x="670" y="287"/>
      <point x="678" y="232"/>
      <point x="678" y="180" type="curve" smooth="yes"/>
      <point x="678" y="68"/>
      <point x="585" y="11"/>
      <point x="333" y="11" type="curve"/>
    </contour>
    <component base="_part.beh.fina" xOffset="-8"/>
  </outline>
</glyph>
<glyph name="dotlessqaf-ar" format="2">
  <advance width="612"/>
  <unicode hex="066F"/>
  <anchor x="294" y="-291" name="bottom"/>
  <anchor x="294" y="-241" name="bottom.dot"/>
  <anchor x="294" y="495" name="top"/>
  <anchor x="428" y="376" name="top.dot"/>
  <outline>
    <contour>
      <point x="282" y="-261" type="curve" smooth="yes"/>
      <point x="497" y="-261"/>
      <point x="575" y="-138"/>
      <point x="575" y="63" type="curve" smooth="yes"/>
      <point x="575" y="234"/>
      <point x="529" y="359"/>
      <point x="427" y="359" type="curve" smooth="yes"/>
      <point x="349" y="359"/>
      <point x="290" y="268"/>
      <point x="290" y="155" type="curve" smooth="yes"/>
      <point x="290" y="61"/>
      <point x="332" y="6"/>
      <point x="428" y="6" type="curve" smooth="yes"/>
      <point x="478" y="6"/>
      <point x="534" y="25"/>
      <point x="564" y="47" type="curve"/>
      <point x="565" y="75" type="line"/>
      <point x="528" y="49"/>
      <point x="480" y="33"/>
      <point x="433" y="33" type="curve" smooth="yes"/>
      <point x="342" y="33"/>
      <point x="314" y="73"/>
      <point x="314" y="158" type="curve" smooth="yes"/>
      <point x="314" y="252"/>
      <point x="358" y="332"/>
      <point x="424" y="332" type="curve" smooth="yes"/>
      <point x="511" y="332"/>
      <point x="551" y="229"/>
      <point x="551" y="56" type="curve" smooth="yes"/>
      <point x="551" y="-127"/>
      <point x="482" y="-234"/>
      <point x="285" y="-234" type="curve" smooth="yes"/>
      <point x="126" y="-234"/>
      <point x="64" y="-133"/>
      <point x="64" y="0" type="curve" smooth="yes"/>
      <point x="64" y="71"/>
      <point x="74" y="123"/>
      <point x="88" y="174" type="curve"/>
      <point x="66" y="180" type="line"/>
      <point x="50" y="128"/>
      <point x="40" y="67"/>
      <point x="40" y="-3" type="curve" smooth="yes"/>
      <point x="40" y="-146"/>
      <point x="112" y="-261"/>
    </contour>
  </outline>
</glyph>
<glyph name="dotlessfeh-ar" format="2">
  <advance width="768"/>
  <unicode hex="06A1"/>
  <anchor x="365" y="-111" name="bottom"/>
  <anchor x="569" y="-20" name="bottom.dot"/>
  <anchor x="266" y="571" name="top"/>
  <anchor x="571" y="535" name="top.dot"/>
  <outline>
    <contour>
      <point x="330" y="-15" type="line"/>
      <point x="471" y="-15"/>
      <point x="615" y="1"/>
      <point x="664" y="47" type="curve" smooth="yes"/>
      <point x="709" y="89"/>
      <point x="720" y="142"/>
      <point x="720" y="235" type="curve" smooth="yes"/>
      <point x="720" y="392"/>
      <point x="671" y="509"/>
      <point x="572" y="509" type="curve" smooth="yes"/>
      <point x="490" y="509"/>
      <point x="434" y="426"/>
      <point x="434" y="323" type="curve" smooth="yes"/>
      <point x="434" y="227"/>
      <point x="479" y="176"/>
      <point x="568" y="176" type="curve" smooth="yes"/>
      <point x="622" y="176"/>
      <point x="672" y="190"/>
      <point x="708" y="208" type="curve"/>
      <point x="707" y="234" type="line"/>
      <point x="671" y="216"/>
      <point x="617" y="202"/>
      <point x="572" y="202" type="curve" smooth="yes"/>
      <point x="487" y="202"/>
      <point x="458" y="242"/>
      <point x="458" y="328" type="curve" smooth="yes"/>
      <point x="458" y="409"/>
      <point x="500" y="482"/>
      <point x="570" y="482" type="curve" smooth="yes"/>
      <point x="659" y="482"/>
      <point x="696" y="376"/>
      <point x="696" y="237" type="curve" smooth="yes"/>
      <point x="696" y="151"/>
      <point x="690" y="107"/>
      <point x="654" y="70" type="curve" smooth="yes"/>
      <point x="611" y="25"/>
      <point x="465" y="11"/>
      <point x="333" y="11" type="curve"/>
    </contour>
    <component base="_part.beh.fina" xOffset="-8"/>
  </outline>
</glyph>
<glyph name="keheh-ar" format="2">
  <advance width="695"/>
  <unicode hex="06A9"/>
  <anchor x="339" y="-111" name="bottom"/>
  <anchor x="339" y="-20" name="bottom.dot"/>
  <anchor x="626" y="539" name="center"/>
  <anchor x="223" y="539" name="top"/>
  <anchor x="416" y="565" name="top.dot"/>
  <outline>
    <contour>
      <point x="325" y="-15" type="line"/>
      <point x="552" y="-15"/>
      <point x="624" y="26"/>
      <point x="624" y="136" type="curve" smooth="yes"/>
      <point x="624" y="237"/>
      <point x="554" y="307"/>
      <point x="350" y="458" type="curve"/>
      <point x="349" y="448" type="line"/>
      <point x="686" y="674" type="line"/>
      <point x="678" y="698" type="line"/>
      <point x="339" y="469" type="line"/>
      <point x="334" y="440" type="line"/>
      <point x="544" y="285"/>
      <point x="600" y="218"/>
      <point x="600" y="135" type="curve" smooth="yes"/>
      <point x="600" y="53"/>
      <point x="550" y="11"/>
      <point x="332" y="11" type="curve"/>
    </contour>
    <component base="_part.beh.fina" xOffset="-8"/>
  </outline>
</glyph>
<glyph name="noonghunna-ar" format="2">
  <advance width="531"/>
  <unicode hex="06BA"/>
  <anchor x="259" y="-284" name="bottom"/>
  <anchor x="260" y="-243" name="bottom.dot"/>
  <anchor x="274" y="260" name="top.dot"/>
  <outline>
    <contour>
      <point x="250" y="-240" type="curve" smooth="yes"/>
      <point x="424" y="-240"/>
      <point x="491" y="-129"/>
      <point x="491" y="49" type="curve" smooth="yes"/>
      <point x="491" y="110"/>
      <point x="478" y="183"/>
      <point x="464" y="254" type="curve"/>
      <point x="441" y="248" type="line"/>
      <point x="457" y="174"/>
      <point x="468" y="103"/>
      <point x="468" y="46" type="curve" smooth="yes"/>
      <point x="468" y="-111"/>
      <point x="415" y="-214"/>
      <point x="253" y="-214" type="curve" smooth="yes"/>
      <point x="118" y="-214"/>
      <point x="64" y="-132"/>
      <point x="64" y="1" type="curve" smooth="yes"/>
      <point x="64" y="72"/>
      <point x="74" y="124"/>
      <point x="88" y="175" type="curve"/>
      <point x="66" y="181" type="line"/>
      <point x="50" y="129"/>
      <point x="40" y="68"/>
      <point x="40" y="-2" type="curve" smooth="yes"/>
      <point x="40" y="-145"/>
      <point x="104" y="-240"/>
    </contour>
  </outline>
</glyph>
<glyph name="hehDoachashmee-ar" format="2">
  <advance width="615"/>
  <unicode hex="06BE"/>
  <anchor x="306" y="-112" name="bottom"/>
  <anchor x="306" y="619" name="top"/>
  <anchor x="306" y="564" name="top.dot"/>
  <outline>
    <contour>
      <point x="108" y="-5" type="curve" smooth="yes"/>
      <point x="162" y="-5"/>
      <point x="234" y="8"/>
      <point x="294" y="45" type="curve" smooth="yes"/>
      <point x="368" y="90"/>
      <point x="416" y="163"/>
      <point x="416" y="261" type="curve" smooth="yes"/>
      <point x="416" y="388"/>
      <point x="339" y="447"/>
      <point x="284" y="447" type="curve" smooth="yes"/>
      <point x="205" y="447"/>
      <point x="153" y="363"/>
      <point x="153" y="268" type="curve" smooth="yes"/>
      <point x="153" y="107"/>
      <point x="293" y="-5"/>
      <point x="435" y="-5" type="curve" smooth="yes"/>
      <point x="525" y="-5"/>
      <point x="578" y="42"/>
      <point x="578" y="135" type="curve" smooth="yes"/>
      <point x="578" y="253"/>
      <point x="482" y="374"/>
      <point x="215" y="509" type="curve"/>
      <point x="204" y="485" type="line"/>
      <point x="464" y="351"/>
      <point x="554" y="237"/>
      <point x="554" y="133" type="curve" smooth="yes"/>
      <point x="554" y="54"/>
      <point x="507" y="21"/>
      <point x="438" y="21" type="curve" smooth="yes"/>
      <point x="307" y="21"/>
      <point x="177" y="118"/>
      <point x="177" y="271" type="curve" smooth="yes"/>
      <point x="177" y="349"/>
      <point x="214" y="423"/>
      <point x="285" y="423" type="curve" smooth="yes"/>
      <point x="345" y="423"/>
      <point x="392" y="359"/>
      <point x="392" y="260" type="curve" smooth="yes"/>
      <point x="392" y="155"/>
      <point x="326" y="89"/>
      <point x="270" y="60" type="curve" smooth="yes"/>
      <point x="220" y="34"/>
      <point x="163" y="21"/>
      <point x="110" y="21" type="curve" smooth="yes"/>
      <point x="83" y="21"/>
      <point x="59" y="23"/>
      <point x="26" y="32" type="curve"/>
      <point x="24" y="6" type="line"/>
      <point x="52" y="-2"/>
      <point x="80" y="-5"/>
    </contour>
  </outline>
</glyph>
<glyph name="yehbarree-ar" format="2">
  <advance width="754"/>
  <unicode hex="06D2"/>
  <anchor x="331" y="-81" name="bottom"/>
  <anchor x="337" y="552" name="top"/>
  <anchor x="336" y="488" name="top_1"/>
  <outline>
    <contour>
      <point x="383" y="-21" type="curve" smooth="yes"/>
      <point x="532" y="-21"/>
      <point x="637" y="-3"/>
      <point x="710" y="15" type="curve"/>
      <point x="711" y="40" type="line"/>
      <point x="638" y="24"/>
      <point x="534" y="5"/>
      <point x="386" y="5" type="curve" smooth="yes"/>
      <point x="134" y="5"/>
      <point x="64" y="52"/>
      <point x="64" y="116" type="curve" smooth="yes"/>
      <point x="64" y="181"/>
      <point x="141" y="216"/>
      <point x="200" y="283" type="curve" smooth="yes"/>
      <point x="255" y="346"/>
      <point x="292" y="414"/>
      <point x="339" y="414" type="curve" smooth="yes"/>
      <point x="389" y="414"/>
      <point x="413" y="360"/>
      <point x="443" y="244" type="curve"/>
      <point x="465" y="251" type="line"/>
      <point x="436" y="367"/>
      <point x="406" y="440"/>
      <point x="342" y="440" type="curve" smooth="yes"/>
      <point x="278" y="440"/>
      <point x="247" y="375"/>
      <point x="183" y="301" type="curve" smooth="yes"/>
      <point x="125" y="234"/>
      <point x="40" y="200"/>
      <point x="40" y="114" type="curve" smooth="yes"/>
      <point x="40" y="29"/>
      <point x="126" y="-21"/>
    </contour>
  </outline>
</glyph>
<glyph name="fullstop-ar" format="2">
  <advance width="239"/>
  <unicode hex="06D4"/>
  <outline>
    <contour>
      <point x="26" y="0" type="line"/>
      <point x="210" y="0" type="line"/>
      <point x="213" y="24" type="line"/>
      <point x="29" y="24" type="line"/>
    </contour>
  </outline>
</glyph>
<glyph name="threedotsabove-ar" format="2">
  <unicode hex="06DB"/>
  <anchor x="78" y="356" name="_top.dot"/>
  <anchor x="78" y="587" name="top"/>
  <outline>
    <contour>
      <point x="35" y="422" type="curve"/>
      <point x="62" y="452" type="line"/>
      <point x="51" y="465"/>
      <point x="44" y="473"/>
      <point x="34" y="482" type="curve"/>
      <point x="9" y="451" type="line"/>
      <point x="20" y="439"/>
      <point x="26" y="433"/>
    </contour>
    <contour>
      <point x="120" y="422" type="curve"/>
      <point x="147" y="452" type="line"/>
      <point x="137" y="465"/>
      <point x="129" y="473"/>
      <point x="120" y="482" type="curve"/>
      <point x="94" y="451" type="line"/>
      <point x="106" y="439"/>
      <point x="111" y="433"/>
    </contour>
    <contour>
      <point x="78" y="510" type="curve"/>
      <point x="105" y="540" type="line"/>
      <point x="94" y="553"/>
      <point x="87" y="562"/>
      <point x="77" y="571" type="curve"/>
      <point x="51" y="540" type="line"/>
      <point x="63" y="528"/>
      <point x="69" y="521"/>
    </contour>
  </outline>
</glyph>
<glyph name="seenabove-ar" format="2">
  <unicode hex="06DC"/>
  <anchor x="189" y="390" name="_top"/>
  <anchor x="189" y="642" name="top"/>
  <outline>
    <contour>
      <point x="100" y="411" type="curve" smooth="yes"/>
      <point x="154" y="411"/>
      <point x="194" y="445"/>
      <point x="189" y="529" type="curve"/>
      <point x="181" y="525" type="line"/>
      <point x="188" y="497"/>
      <point x="206" y="489"/>
      <point x="226" y="489" type="curve" smooth="yes"/>
      <point x="245" y="489"/>
      <point x="268" y="497"/>
      <point x="273" y="533" type="curve"/>
      <point x="265" y="532" type="line"/>
      <point x="270" y="497"/>
      <point x="289" y="489"/>
      <point x="308" y="489" type="curve" smooth="yes"/>
      <point x="346" y="489"/>
      <point x="361" y="517"/>
      <point x="361" y="558" type="curve" smooth="yes"/>
      <point x="361" y="581"/>
      <point x="358" y="604"/>
      <point x="350" y="631" type="curve"/>
      <point x="334" y="626" type="line"/>
      <point x="341" y="599"/>
      <point x="343" y="578"/>
      <point x="343" y="558" type="curve" smooth="yes"/>
      <point x="343" y="523"/>
      <point x="333" y="511"/>
      <point x="309" y="511" type="curve" smooth="yes"/>
      <point x="290" y="511"/>
      <point x="279" y="521"/>
      <point x="278" y="542" type="curve" smooth="yes"/>
      <point x="277" y="558"/>
      <point x="278" y="582"/>
      <point x="277" y="609" type="curve"/>
      <point x="261" y="608" type="line"/>
      <point x="261" y="582"/>
      <point x="261" y="554"/>
      <point x="259" y="540" type="curve" smooth="yes"/>
      <point x="256" y="520"/>
      <point x="247" y="511"/>
      <point x="226" y="511" type="curve" smooth="yes"/>
      <point x="205" y="511"/>
      <point x="196" y="520"/>
      <point x="191" y="538" type="curve" smooth="yes"/>
      <point x="187" y="554"/>
      <point x="186" y="572"/>
      <point x="181" y="600" type="curve"/>
      <point x="165" y="596" type="line"/>
      <point x="170" y="568"/>
      <point x="173" y="542"/>
      <point x="173" y="516" type="curve" smooth="yes"/>
      <point x="173" y="457"/>
      <point x="149" y="433"/>
      <point x="102" y="433" type="curve" smooth="yes"/>
      <point x="60" y="433"/>
      <point x="41" y="456"/>
      <point x="41" y="496" type="curve" smooth="yes"/>
      <point x="41" y="521"/>
      <point x="45" y="538"/>
      <point x="51" y="561" type="curve"/>
      <point x="36" y="565" type="line"/>
      <point x="27" y="539"/>
      <point x="24" y="515"/>
      <point x="24" y="491" type="curve" smooth="yes"/>
      <point x="24" y="437"/>
      <point x="54" y="411"/>
    </contour>
  </outline>
</glyph>
<glyph name="sukunoval-ar" format="2">
  <unicode hex="06E0"/>
  <anchor x="82" y="396" name="_top"/>
  <anchor x="82" y="651" name="top"/>
  <outline>
    <contour>
      <point x="82" y="416" type="curve" smooth="yes"/>
      <point x="118" y="416"/>
      <point x="142" y="449"/>
      <point x="142" y="525" type="curve" smooth="yes"/>
      <point x="142" y="600"/>
      <point x="121" y="632"/>
      <point x="86" y="632" type="curve" smooth="yes"/>
      <point x="48" y="632"/>
      <point x="24" y="593"/>
      <point x="24" y="520" type="curve" smooth="yes"/>
      <point x="24" y="450"/>
      <point x="46" y="416"/>
    </contour>
    <contour>
      <point x="81" y="438" type="curve" smooth="yes"/>
      <point x="58" y="438"/>
      <point x="45" y="457"/>
      <point x="45" y="521" type="curve" smooth="yes"/>
      <point x="45" y="587"/>
      <point x="59" y="609"/>
      <point x="85" y="609" type="curve" smooth="yes"/>
      <point x="110" y="609"/>
      <point x="120" y="586"/>
      <point x="120" y="525" type="curve" smooth="yes"/>
      <point x="120" y="460"/>
      <point x="107" y="438"/>
    </contour>
  </outline>
</glyph>
<glyph name="hahabove-ar" format="2">
  <unicode hex="06E1"/>
  <anchor x="95" y="378" name="_top"/>
  <anchor x="101" y="624" name="top"/>
  <outline>
    <contour>
      <point x="27" y="434" type="line"/>
      <point x="103" y="434"/>
      <point x="150" y="475"/>
      <point x="173" y="529" type="curve"/>
      <point x="173" y="550" type="line"/>
      <point x="147" y="575"/>
      <point x="125" y="595"/>
      <point x="93" y="595" type="curve" smooth="yes"/>
      <point x="64" y="595"/>
      <point x="42" y="582"/>
      <point x="26" y="564" type="curve"/>
      <point x="32" y="546" type="line"/>
      <point x="51" y="563"/>
      <point x="68" y="572"/>
      <point x="91" y="572" type="curve" smooth="yes"/>
      <point x="117" y="572"/>
      <point x="135" y="555"/>
      <point x="162" y="530" type="curve"/>
      <point x="161" y="547" type="line"/>
      <point x="137" y="492"/>
      <point x="97" y="456"/>
      <point x="24" y="455" type="curve"/>
    </contour>
  </outline>
</glyph>
<glyph name="meemStopabove-ar" format="2">
  <unicode hex="06E2"/>
  <anchor x="76" y="356" name="_top.dot"/>
  <anchor x="82" y="672" name="top"/>
  <outline>
    <contour>
      <point x="26" y="411" type="curve"/>
      <point x="45" y="412" type="line"/>
      <point x="43" y="448"/>
      <point x="42" y="457"/>
      <point x="42" y="481" type="curve" smooth="yes"/>
      <point x="42" y="518"/>
      <point x="54" y="532"/>
      <point x="87" y="532" type="curve" smooth="yes"/>
      <point x="108" y="532"/>
      <point x="122" y="529"/>
      <point x="142" y="526" type="curve"/>
      <point x="147" y="545" type="line"/>
      <point x="133" y="610"/>
      <point x="114" y="646"/>
      <point x="82" y="646" type="curve" smooth="yes"/>
      <point x="61" y="646"/>
      <point x="45" y="630"/>
      <point x="34" y="595" type="curve"/>
      <point x="49" y="587" type="line"/>
      <point x="58" y="614"/>
      <point x="66" y="623"/>
      <point x="80" y="623" type="curve" smooth="yes"/>
      <point x="99" y="623"/>
      <point x="113" y="602"/>
      <point x="130" y="539" type="curve"/>
      <point x="139" y="547" type="line"/>
      <point x="122" y="550"/>
      <point x="106" y="554"/>
      <point x="86" y="554" type="curve" smooth="yes"/>
      <point x="41" y="554"/>
      <point x="23" y="530"/>
      <point x="23" y="483" type="curve" smooth="yes"/>
      <point x="23" y="460"/>
      <point x="24" y="448"/>
    </contour>
  </outline>
</glyph>
<glyph name="maddalong-ar" format="2">
  <unicode hex="06E4"/>
  <anchor x="151" y="378" name="_top"/>
  <anchor x="146" y="519" name="top"/>
  <outline>
    <contour>
      <point x="214" y="433" type="curve" smooth="yes"/>
      <point x="240" y="433"/>
      <point x="269" y="448"/>
      <point x="294" y="487" type="curve"/>
      <point x="279" y="500" type="line"/>
      <point x="256" y="469"/>
      <point x="239" y="456"/>
      <point x="215" y="456" type="curve" smooth="yes"/>
      <point x="155" y="456"/>
      <point x="122" y="518"/>
      <point x="75" y="518" type="curve" smooth="yes"/>
      <point x="46" y="518"/>
      <point x="23" y="495"/>
      <point x="1" y="463" type="curve"/>
      <point x="14" y="449" type="line"/>
      <point x="35" y="478"/>
      <point x="52" y="495"/>
      <point x="74" y="495" type="curve" smooth="yes"/>
      <point x="113" y="495"/>
      <point x="149" y="433"/>
    </contour>
  </outline>
</glyph>
<glyph name="yehabove-ar" format="2">
  <unicode hex="06E7"/>
  <anchor x="135" y="378" name="_top"/>
  <anchor x="141" y="634" name="top"/>
  <outline>
    <contour>
      <point x="140" y="427" type="curve" smooth="yes"/>
      <point x="179" y="427"/>
      <point x="226" y="434"/>
      <point x="258" y="443" type="curve"/>
      <point x="258" y="465" type="line"/>
      <point x="225" y="456"/>
      <point x="181" y="449"/>
      <point x="140" y="449" type="curve" smooth="yes"/>
      <point x="75" y="449"/>
      <point x="42" y="454"/>
      <point x="42" y="478" type="curve" smooth="yes"/>
      <point x="42" y="498"/>
      <point x="60" y="505"/>
      <point x="81" y="534" type="curve" smooth="yes"/>
      <point x="103" y="564"/>
      <point x="111" y="584"/>
      <point x="128" y="584" type="curve" smooth="yes"/>
      <point x="146" y="584"/>
      <point x="153" y="566"/>
      <point x="166" y="528" type="curve"/>
      <point x="183" y="535" type="line"/>
      <point x="172" y="577"/>
      <point x="157" y="607"/>
      <point x="130" y="607" type="curve" smooth="yes"/>
      <point x="105" y="607"/>
      <point x="90" y="581"/>
      <point x="69" y="550" type="curve" smooth="yes"/>
      <point x="47" y="518"/>
      <point x="22" y="506"/>
      <point x="22" y="478" type="curve" smooth="yes"/>
      <point x="22" y="437"/>
      <point x="59" y="427"/>
    </contour>
  </outline>
</glyph>
<glyph name="noonabove-ar" format="2">
  <unicode hex="06E8"/>
  <anchor x="93" y="356" name="_top.dot"/>
  <anchor x="93" y="691" name="top"/>
  <outline>
    <contour>
      <point x="90" y="431" type="curve" smooth="yes"/>
      <point x="152" y="431"/>
      <point x="178" y="475"/>
      <point x="178" y="534" type="curve" smooth="yes"/>
      <point x="178" y="566"/>
      <point x="173" y="592"/>
      <point x="166" y="613" type="curve"/>
      <point x="149" y="608" type="line"/>
      <point x="155" y="584"/>
      <point x="159" y="563"/>
      <point x="159" y="532" type="curve" smooth="yes"/>
      <point x="159" y="484"/>
      <point x="137" y="453"/>
      <point x="92" y="453" type="curve" smooth="yes"/>
      <point x="49" y="453"/>
      <point x="33" y="478"/>
      <point x="33" y="521" type="curve" smooth="yes"/>
      <point x="33" y="543"/>
      <point x="37" y="563"/>
      <point x="41" y="580" type="curve"/>
      <point x="24" y="585" type="line"/>
      <point x="19" y="568"/>
      <point x="14" y="546"/>
      <point x="14" y="521" type="curve" smooth="yes"/>
      <point x="14" y="468"/>
      <point x="37" y="431"/>
    </contour>
    <contour>
      <point x="95" y="633" type="curve"/>
      <point x="111" y="654" type="line"/>
      <point x="105" y="662"/>
      <point x="101" y="667"/>
      <point x="93" y="674" type="curve"/>
      <point x="77" y="653" type="line"/>
      <point x="84" y="645"/>
      <point x="88" y="641"/>
    </contour>
  </outline>
</glyph>
<glyph name="sajdah-ar" format="2">
  <advance width="430"/>
  <unicode hex="06E9"/>
  <guideline x="60" y="391" angle="0"/>
  <outline>
    <contour>
      <point x="42" y="0" type="line"/>
      <point x="388" y="0" type="line"/>
      <point x="387" y="31" type="line"/>
      <point x="352" y="55"/>
      <point x="342" y="83"/>
      <point x="342" y="161" type="curve" smooth="yes"/>
      <point x="342" y="368" type="line"/>
      <point x="376" y="392"/>
      <point x="398" y="420"/>
      <point x="398" y="468" type="curve" smooth="yes"/>
      <point x="398" y="554"/>
      <point x="303" y="597"/>
      <point x="215" y="676" type="curve"/>
      <point x="128" y="599"/>
      <point x="32" y="550"/>
      <point x="32" y="468" type="curve" smooth="yes"/>
      <point x="32" y="420"/>
      <point x="54" y="391"/>
      <point x="89" y="367" type="curve"/>
      <point x="88" y="161" type="line" smooth="yes"/>
      <point x="88" y="83"/>
      <point x="78" y="55"/>
      <point x="43" y="31" type="curve"/>
    </contour>
    <contour>
      <point x="69" y="24" type="line"/>
      <point x="98" y="52"/>
      <point x="107" y="83"/>
      <point x="107" y="166" type="curve" smooth="yes"/>
      <point x="108" y="382" type="line"/>
      <point x="74" y="403"/>
      <point x="53" y="426"/>
      <point x="53" y="464" type="curve" smooth="yes"/>
      <point x="53" y="536"/>
      <point x="125" y="570"/>
      <point x="214" y="647" type="curve"/>
      <point x="304" y="570"/>
      <point x="378" y="535"/>
      <point x="378" y="466" type="curve" smooth="yes"/>
      <point x="378" y="425"/>
      <point x="356" y="403"/>
      <point x="322" y="382" type="curve"/>
      <point x="323" y="166" type="line" smooth="yes"/>
      <point x="323" y="83"/>
      <point x="331" y="52"/>
      <point x="361" y="24" type="curve"/>
    </contour>
  </outline>
</glyph>
<glyph name="rhombusStopabove-ar" format="2">
  <unicode hex="06EB"/>
  <anchor x="82" y="390" name="_top"/>
  <anchor x="80" y="601" name="top"/>
  <outline>
    <contour>
      <point x="80" y="415" type="line"/>
      <point x="147" y="498" type="line"/>
      <point x="80" y="581" type="line"/>
      <point x="14" y="496" type="line"/>
    </contour>
    <contour>
      <point x="80" y="443" type="line"/>
      <point x="37" y="497" type="line"/>
      <point x="81" y="553" type="line"/>
      <point x="125" y="499" type="line"/>
    </contour>
  </outline>
</glyph>
<glyph name="dotStopabove-ar" format="2">
  <unicode hex="06EC"/>
  <anchor x="40" y="373" name="_top"/>
  <anchor x="41" y="534" name="top"/>
  <outline>
    <contour>
      <point x="40" y="446" type="curve" smooth="yes"/>
      <point x="54" y="446"/>
      <point x="64" y="460"/>
      <point x="64" y="477" type="curve" smooth="yes"/>
      <point x="64" y="494"/>
      <point x="54" y="508"/>
      <point x="40" y="508" type="curve" smooth="yes"/>
      <point x="26" y="508"/>
      <point x="16" y="494"/>
      <point x="16" y="477" type="curve" smooth="yes"/>
      <point x="16" y="460"/>
      <point x="26" y="446"/>
    </contour>
  </outline>
</glyph>
<glyph name="four-persian" format="2">
  <advance width="449"/>
  <unicode hex="06F4"/>
  <outline>
    <contour>
      <point x="118" y="-5" type="curve"/>
      <point x="141" y="-3" type="line"/>
      <point x="134" y="158"/>
      <point x="112" y="353"/>
      <point x="85" y="517" type="curve"/>
      <point x="72" y="515" type="line"/>
      <point x="90" y="390"/>
      <point x="160" y="355"/>
      <point x="277" y="355" type="curve" smooth="yes"/>
      <point x="352" y="355"/>
      <point x="392" y="366"/>
      <point x="428" y="380" type="curve"/>
      <point x="425" y="402" type="line"/>
      <point x="392" y="390"/>
      <point x="364" y="384"/>
      <point x="335" y="384" type="curve" smooth="yes"/>
      <point x="267" y="384"/>
      <point x="232" y="440"/>
      <point x="232" y="520" type="curve" smooth="yes"/>
      <point x="232" y="597"/>
      <point x="276" y="650"/>
      <point x="344" y="650" type="curve" smooth="yes"/>
      <point x="364" y="650"/>
      <point x="383" y="646"/>
      <point x="404" y="638" type="curve"/>
      <point x="407" y="660" type="line"/>
      <point x="388" y="669"/>
      <point x="367" y="674"/>
      <point x="343" y="674" type="curve" smooth="yes"/>
      <point x="260" y="674"/>
      <point x="208" y="607"/>
      <point x="208" y="519" type="curve" smooth="yes"/>
      <point x="208" y="428"/>
      <point x="253" y="371"/>
      <point x="314" y="362" type="curve"/>
      <point x="319" y="379" type="line"/>
      <point x="293" y="378"/>
      <point x="298" y="378"/>
      <point x="277" y="378" type="curve" smooth="yes"/>
      <point x="154" y="378"/>
      <point x="110" y="427"/>
      <point x="84" y="533" type="curve" smooth="yes"/>
      <point x="74" y="574"/>
      <point x="67" y="616"/>
      <point x="58" y="662" type="curve"/>
      <point x="34" y="657" type="line"/>
      <point x="80" y="451"/>
      <point x="107" y="203"/>
    </contour>
  </outline>
</glyph>
<glyph name="five-persian" format="2">
  <advance width="467"/>
  <unicode hex="06F5"/>
  <outline>
    <contour>
      <point x="151" y="-5" type="curve" smooth="yes"/>
      <point x="213" y="-5"/>
      <point x="231" y="57"/>
      <point x="233" y="88" type="curve"/>
      <point x="227" y="87" type="line"/>
      <point x="227" y="40"/>
      <point x="256" y="-5"/>
      <point x="311" y="-5" type="curve" smooth="yes"/>
      <point x="382" y="-5"/>
      <point x="413" y="61"/>
      <point x="413" y="163" type="curve" smooth="yes"/>
      <point x="413" y="328"/>
      <point x="320" y="479"/>
      <point x="197" y="634" type="curve"/>
      <point x="178" y="616" type="line"/>
      <point x="300" y="464"/>
      <point x="388" y="314"/>
      <point x="388" y="160" type="curve" smooth="yes"/>
      <point x="388" y="60"/>
      <point x="359" y="21"/>
      <point x="312" y="21" type="curve" smooth="yes"/>
      <point x="275" y="21"/>
      <point x="240" y="43"/>
      <point x="241" y="167" type="curve"/>
      <point x="218" y="166" type="line"/>
      <point x="219" y="57"/>
      <point x="194" y="21"/>
      <point x="148" y="21" type="curve" smooth="yes"/>
      <point x="105" y="21"/>
      <point x="78" y="50"/>
      <point x="78" y="158" type="curve" smooth="yes"/>
      <point x="78" y="315"/>
      <point x="176" y="469"/>
      <point x="241" y="562" type="curve"/>
      <point x="226" y="582" type="line"/>
      <point x="159" y="484"/>
      <point x="54" y="325"/>
      <point x="54" y="158" type="curve" smooth="yes"/>
      <point x="54" y="46"/>
      <point x="89" y="-5"/>
    </contour>
  </outline>
</glyph>
<glyph name="six-persian" format="2">
  <advance width="382"/>
  <unicode hex="06F6"/>
  <outline>
    <contour>
      <point x="68" y="-5" type="line"/>
      <point x="134" y="148"/>
      <point x="239" y="284"/>
      <point x="362" y="370" type="curve"/>
      <point x="351" y="391" type="line"/>
      <point x="311" y="365"/>
      <point x="271" y="348"/>
      <point x="224" y="348" type="curve" smooth="yes"/>
      <point x="141" y="348"/>
      <point x="94" y="403"/>
      <point x="94" y="492" type="curve" smooth="yes"/>
      <point x="94" y="585"/>
      <point x="150" y="648"/>
      <point x="232" y="648" type="curve" smooth="yes"/>
      <point x="266" y="648"/>
      <point x="289" y="641"/>
      <point x="315" y="631" type="curve"/>
      <point x="318" y="655" type="line"/>
      <point x="291" y="667"/>
      <point x="265" y="674"/>
      <point x="234" y="674" type="curve" smooth="yes"/>
      <point x="135" y="674"/>
      <point x="70" y="597"/>
      <point x="70" y="490" type="curve" smooth="yes"/>
      <point x="70" y="394"/>
      <point x="122" y="323"/>
      <point x="222" y="323" type="curve" smooth="yes"/>
      <point x="262" y="323"/>
      <point x="289" y="335"/>
      <point x="316" y="348" type="curve"/>
      <point x="307" y="359" type="line"/>
      <point x="212" y="284"/>
      <point x="113" y="161"/>
      <point x="46" y="5" type="curve"/>
    </contour>
  </outline>
</glyph>
<glyph name="aleflow-ar" format="2">
  <advance width="211"/>
  <unicode hex="08AD"/>
  <anchor x="102" y="-263" name="bottom"/>
  <anchor x="95" y="210" name="top"/>
  <outline>
    <contour>
      <point x="100" y="-203" type="curve"/>
      <point x="124" y="-203" type="line"/>
      <point x="127" y="-84"/>
      <point x="123" y="33"/>
      <point x="109" y="155" type="curve"/>
      <point x="85" y="153" type="line"/>
      <point x="99" y="31"/>
      <point x="103" y="-84"/>
    </contour>
  </outline>
</glyph>
<glyph name="fathaCurly-ar" format="2">
  <unicode hex="08E4"/>
  <anchor x="118" y="390" name="_top"/>
  <anchor x="121" y="624" name="top"/>
  <outline>
    <contour>
      <point x="38" y="419" type="curve"/>
      <point x="55" y="427" type="line"/>
      <point x="50" y="441"/>
      <point x="45" y="455"/>
      <point x="45" y="468" type="curve" smooth="yes"/>
      <point x="45" y="484"/>
      <point x="51" y="492"/>
      <point x="69" y="501" type="curve" smooth="yes"/>
      <point x="94" y="513"/>
      <point x="149" y="530"/>
      <point x="181" y="546" type="curve" smooth="yes"/>
      <point x="199" y="555"/>
      <point x="206" y="573"/>
      <point x="206" y="594" type="curve" smooth="yes"/>
      <point x="206" y="614"/>
      <point x="199" y="638"/>
      <point x="193" y="651" type="curve"/>
      <point x="175" y="643" type="line"/>
      <point x="180" y="627"/>
      <point x="185" y="614"/>
      <point x="185" y="598" type="curve" smooth="yes"/>
      <point x="185" y="581"/>
      <point x="180" y="572"/>
      <point x="165" y="565" type="curve" smooth="yes"/>
      <point x="139" y="553"/>
      <point x="86" y="535"/>
      <point x="57" y="522" type="curve" smooth="yes"/>
      <point x="31" y="510"/>
      <point x="24" y="494"/>
      <point x="24" y="472" type="curve" smooth="yes"/>
      <point x="24" y="457"/>
      <point x="29" y="438"/>
    </contour>
  </outline>
</glyph>
<glyph name="dammaCurly-ar" format="2">
  <unicode hex="08E5"/>
  <anchor x="140" y="383" name="_top"/>
  <anchor x="142" y="664" name="top"/>
  <outline>
    <contour>
      <point x="56" y="414" type="line"/>
      <point x="154" y="427"/>
      <point x="228" y="464"/>
      <point x="228" y="555" type="curve" smooth="yes"/>
      <point x="228" y="605"/>
      <point x="205" y="635"/>
      <point x="170" y="635" type="curve" smooth="yes"/>
      <point x="134" y="635"/>
      <point x="110" y="601"/>
      <point x="110" y="558" type="curve" smooth="yes"/>
      <point x="110" y="518"/>
      <point x="130" y="482"/>
      <point x="167" y="463" type="curve"/>
      <point x="182" y="479" type="line"/>
      <point x="149" y="494"/>
      <point x="131" y="523"/>
      <point x="131" y="556" type="curve" smooth="yes"/>
      <point x="131" y="590"/>
      <point x="144" y="612"/>
      <point x="169" y="612" type="curve" smooth="yes"/>
      <point x="194" y="612"/>
      <point x="208" y="592"/>
      <point x="208" y="555" type="curve" smooth="yes"/>
      <point x="208" y="486"/>
      <point x="161" y="453"/>
      <point x="53" y="437" type="curve"/>
      <point x="63" y="434" type="line"/>
      <point x="56" y="462"/>
      <point x="49" y="492"/>
      <point x="43" y="521" type="curve"/>
      <point x="24" y="515" type="line"/>
      <point x="30" y="486"/>
      <point x="37" y="454"/>
      <point x="45" y="426" type="curve"/>
    </contour>
  </outline>
</glyph>
<glyph name="toneloopabove-ar" format="2">
  <unicode hex="08EC"/>
  <anchor x="110" y="390" name="_top"/>
  <anchor x="111" y="610" name="top"/>
  <outline>
    <contour>
      <point x="86" y="428" type="curve" smooth="yes"/>
      <point x="136" y="428"/>
      <point x="172" y="478"/>
      <point x="219" y="566" type="curve"/>
      <point x="203" y="577" type="line"/>
      <point x="157" y="493"/>
      <point x="126" y="449"/>
      <point x="87" y="449" type="curve" smooth="yes"/>
      <point x="54" y="449"/>
      <point x="42" y="469"/>
      <point x="42" y="503" type="curve" smooth="yes"/>
      <point x="42" y="534"/>
      <point x="56" y="556"/>
      <point x="86" y="556" type="curve" smooth="yes"/>
      <point x="116" y="556"/>
      <point x="150" y="525"/>
      <point x="214" y="456" type="curve"/>
      <point x="226" y="471" type="line"/>
      <point x="162" y="545"/>
      <point x="122" y="577"/>
      <point x="85" y="577" type="curve" smooth="yes"/>
      <point x="44" y="577"/>
      <point x="24" y="542"/>
      <point x="24" y="503" type="curve" smooth="yes"/>
      <point x="24" y="453"/>
      <point x="50" y="428"/>
    </contour>
  </outline>
</glyph>
<glyph name="highwaw-ar" format="2">
  <unicode hex="08F3"/>
  <anchor x="80" y="390" name="_top"/>
  <anchor x="86" y="675" name="top"/>
  <outline>
    <contour>
      <point x="57" y="431" type="curve" smooth="yes"/>
      <point x="114" y="431"/>
      <point x="144" y="473"/>
      <point x="144" y="546" type="curve" smooth="yes"/>
      <point x="144" y="624"/>
      <point x="119" y="655"/>
      <point x="86" y="655" type="curve" smooth="yes"/>
      <point x="57" y="655"/>
      <point x="32" y="625"/>
      <point x="32" y="579" type="curve" smooth="yes"/>
      <point x="32" y="540"/>
      <point x="49" y="522"/>
      <point x="85" y="522" type="curve" smooth="yes"/>
      <point x="105" y="522"/>
      <point x="122" y="528"/>
      <point x="136" y="536" type="curve"/>
      <point x="134" y="554" type="line"/>
      <point x="121" y="547"/>
      <point x="106" y="542"/>
      <point x="86" y="542" type="curve" smooth="yes"/>
      <point x="58" y="542"/>
      <point x="49" y="553"/>
      <point x="49" y="580" type="curve" smooth="yes"/>
      <point x="49" y="614"/>
      <point x="64" y="635"/>
      <point x="85" y="635" type="curve" smooth="yes"/>
      <point x="111" y="635"/>
      <point x="125" y="606"/>
      <point x="125" y="543" type="curve" smooth="yes"/>
      <point x="125" y="485"/>
      <point x="104" y="451"/>
      <point x="57" y="451" type="curve" smooth="yes"/>
      <point x="44" y="451"/>
      <point x="33" y="453"/>
      <point x="24" y="455" type="curve"/>
      <point x="25" y="436" type="line"/>
      <point x="33" y="433"/>
      <point x="43" y="431"/>
    </contour>
  </outline>
</glyph>
<glyph name="fathaRing-ar" format="2">
  <unicode hex="08F4"/>
  <anchor x="92" y="383" name="_top"/>
  <anchor x="93" y="592" name="top"/>
  <outline>
    <contour>
      <point x="92" y="422" type="curve" smooth="yes"/>
      <point x="127" y="422"/>
      <point x="150" y="446"/>
      <point x="150" y="492" type="curve" smooth="yes"/>
      <point x="150" y="542"/>
      <point x="126" y="572"/>
      <point x="94" y="572" type="curve" smooth="yes"/>
      <point x="61" y="572"/>
      <point x="35" y="537"/>
      <point x="35" y="488" type="curve" smooth="yes"/>
      <point x="35" y="447"/>
      <point x="55" y="422"/>
    </contour>
    <contour>
      <point x="92" y="445" type="curve" smooth="yes"/>
      <point x="67" y="445"/>
      <point x="56" y="460"/>
      <point x="56" y="490" type="curve" smooth="yes"/>
      <point x="56" y="523"/>
      <point x="69" y="548"/>
      <point x="94" y="548" type="curve" smooth="yes"/>
      <point x="116" y="548"/>
      <point x="128" y="526"/>
      <point x="128" y="492" type="curve" smooth="yes"/>
      <point x="128" y="462"/>
      <point x="117" y="445"/>
    </contour>
    <contour>
      <point x="5" y="455" type="line"/>
      <point x="178" y="518" type="line"/>
      <point x="178" y="540" type="line"/>
      <point x="5" y="476" type="line"/>
    </contour>
  </outline>
</glyph>
<glyph name="leftarrowheadabove-ar" format="2">
  <unicode hex="08F7"/>
  <anchor x="96" y="388" name="_top"/>
  <anchor x="99" y="599" name="top"/>
  <outline>
    <contour>
      <point x="152" y="418" type="curve"/>
      <point x="159" y="438" type="line"/>
      <point x="123" y="459"/>
      <point x="71" y="489"/>
      <point x="33" y="506" type="curve"/>
      <point x="32" y="493" type="line"/>
      <point x="65" y="510"/>
      <point x="119" y="545"/>
      <point x="157" y="570" type="curve"/>
      <point x="149" y="589" type="line"/>
      <point x="110" y="563"/>
      <point x="59" y="530"/>
      <point x="24" y="510" type="curve"/>
      <point x="26" y="487" type="line"/>
      <point x="64" y="470"/>
      <point x="117" y="437"/>
    </contour>
  </outline>
</glyph>
<glyph name="marksidewaysnoonghunna-ar" format="2">
  <unicode hex="08FF"/>
  <anchor x="55" y="388" name="_top"/>
  <anchor x="58" y="634" name="top"/>
  <outline>
    <contour>
      <point x="30" y="423" type="line"/>
      <point x="87" y="444"/>
      <point x="97" y="495"/>
      <point x="97" y="533" type="curve" smooth="yes"/>
      <point x="97" y="579"/>
      <point x="82" y="601"/>
      <point x="58" y="601" type="curve" smooth="yes"/>
      <point x="34" y="601"/>
      <point x="24" y="579"/>
      <point x="24" y="559" type="curve" smooth="yes"/>
      <point x="24" y="537"/>
      <point x="37" y="523"/>
      <point x="56" y="523" type="curve" smooth="yes"/>
      <point x="72" y="523"/>
      <point x="82" y="528"/>
      <point x="91" y="551" type="curve"/>
      <point x="79" y="550" type="line"/>
      <point x="81" y="496"/>
      <point x="75" y="463"/>
      <point x="23" y="440" type="curve"/>
    </contour>
  </outline>
</glyph>
<glyph name="zerowidthnonjoiner" format="2">
  <unicode hex="200C"/>
  <outline>
    <contour>
      <point x="-10" y="-28" type="line"/>
      <point x="10" y="-28" type="line"/>
      <point x="10" y="639" type="line"/>
      <point x="-10" y="639" type="line"/>
    </contour>
  </outline>
</glyph>
<glyph name="zerowidthjoiner" format="2">
  <unicode hex="200D"/>
  <outline>
    <contour>
      <point x="76" y="534" type="line"/>
      <point x="90" y="551" type="line"/>
      <point x="-63" y="742" type="line"/>
      <point x="-77" y="725" type="line"/>
    </contour>
    <contour>
      <point x="-8" y="-28" type="line"/>
      <point x="11" y="-28" type="line"/>
      <point x="11" y="639" type="line"/>
      <point x="-8" y="639" type="line"/>
    </contour>
    <contour>
      <point x="-73" y="538" type="line"/>
      <point x="80" y="729" type="line"/>
      <point x="66" y="746" type="line"/>
      <point x="-86" y="555" type="line"/>
    </contour>
  </outline>
</glyph>
<glyph name="lefttorightmark" format="2">
  <unicode hex="200E"/>
  <outline>
    <contour>
      <point x="-11" y="-28" type="line"/>
      <point x="8" y="-28" type="line"/>
      <point x="8" y="609" type="line"/>
      <point x="134" y="609" type="line"/>
      <point x="70" y="531" type="line"/>
      <point x="83" y="514" type="line"/>
      <point x="170" y="620" type="line"/>
      <point x="84" y="728" type="line"/>
      <point x="70" y="710" type="line"/>
      <point x="135" y="633" type="line"/>
      <point x="-11" y="633" type="line"/>
    </contour>
  </outline>
</glyph>
<glyph name="righttoleftmark" format="2">
  <unicode hex="200F"/>
  <outline>
    <contour>
      <point x="-9" y="-28" type="line"/>
      <point x="10" y="-28" type="line"/>
      <point x="10" y="633" type="line"/>
      <point x="-136" y="633" type="line"/>
      <point x="-71" y="710" type="line"/>
      <point x="-85" y="728" type="line"/>
      <point x="-171" y="620" type="line"/>
      <point x="-84" y="514" type="line"/>
      <point x="-70" y="531" type="line"/>
      <point x="-135" y="609" type="line"/>
      <point x="-9" y="609" type="line"/>
    </contour>
  </outline>
</glyph>
<glyph name="nonbreakinghyphen" format="2">
  <advance width="258"/>
  <unicode hex="2011"/>
  <outline>
    <contour>
      <point x="32" y="259" type="line"/>
      <point x="226" y="259" type="line"/>
      <point x="226" y="284" type="line"/>
      <point x="32" y="284" type="line"/>
    </contour>
  </outline>
</glyph>
<glyph name="dottedCircle" format="2">
  <advance width="502"/>
  <unicode hex="25CC"/>
  <anchor x="251" y="-34" name="bottom"/>
  <anchor x="247" y="628" name="top"/>
  <outline>
    <contour>
      <point x="403" y="471" type="curve" smooth="yes"/>
      <point x="410" y="471"/>
      <point x="416" y="478"/>
      <point x="416" y="487" type="curve" smooth="yes"/>
      <point x="416" y="495"/>
      <point x="410" y="502"/>
      <point x="403" y="502" type="curve" smooth="yes"/>
      <point x="397" y="502"/>
      <point x="391" y="495"/>
      <point x="391" y="487" type="curve" smooth="yes"/>
      <point x="391" y="478"/>
      <point x="397" y="471"/>
    </contour>
    <contour>
      <point x="98" y="97" type="curve" smooth="yes"/>
      <point x="105" y="97"/>
      <point x="110" y="104"/>
      <point x="110" y="112" type="curve" smooth="yes"/>
      <point x="110" y="121"/>
      <point x="105" y="128"/>
      <point x="98" y="128" type="curve" smooth="yes"/>
      <point x="91" y="128"/>
      <point x="86" y="121"/>
      <point x="86" y="112" type="curve" smooth="yes"/>
      <point x="86" y="104"/>
      <point x="91" y="97"/>
    </contour>
    <contour>
      <point x="166" y="38" type="curve" smooth="yes"/>
      <point x="172" y="38"/>
      <point x="178" y="45"/>
      <point x="178" y="53" type="curve" smooth="yes"/>
      <point x="178" y="62"/>
      <point x="172" y="69"/>
      <point x="166" y="69" type="curve" smooth="yes"/>
      <point x="158" y="69"/>
      <point x="153" y="62"/>
      <point x="153" y="53" type="curve" smooth="yes"/>
      <point x="153" y="45"/>
      <point x="158" y="38"/>
    </contour>
    <contour>
      <point x="53" y="183" type="curve" smooth="yes"/>
      <point x="59" y="183"/>
      <point x="65" y="190"/>
      <point x="65" y="198" type="curve" smooth="yes"/>
      <point x="65" y="207"/>
      <point x="59" y="214"/>
      <point x="53" y="214" type="curve" smooth="yes"/>
      <point x="46" y="214"/>
      <point x="40" y="207"/>
      <point x="40" y="198" type="curve" smooth="yes"/>
      <point x="40" y="190"/>
      <point x="46" y="183"/>
    </contour>
    <contour>
      <point x="251" y="15" type="curve" smooth="yes"/>
      <point x="258" y="15"/>
      <point x="263" y="22"/>
      <point x="263" y="30" type="curve" smooth="yes"/>
      <point x="263" y="39"/>
      <point x="258" y="46"/>
      <point x="251" y="46" type="curve" smooth="yes"/>
      <point x="244" y="46"/>
      <point x="238" y="39"/>
      <point x="238" y="30" type="curve" smooth="yes"/>
      <point x="238" y="22"/>
      <point x="244" y="15"/>
    </contour>
    <contour>
      <point x="37" y="284" type="curve" smooth="yes"/>
      <point x="43" y="284"/>
      <point x="49" y="291"/>
      <point x="49" y="299" type="curve" smooth="yes"/>
      <point x="49" y="308"/>
      <point x="43" y="315"/>
      <point x="37" y="315" type="curve" smooth="yes"/>
      <point x="30" y="315"/>
      <point x="24" y="308"/>
      <point x="24" y="299" type="curve" smooth="yes"/>
      <point x="24" y="291"/>
      <point x="30" y="284"/>
    </contour>
    <contour>
      <point x="53" y="385" type="curve" smooth="yes"/>
      <point x="59" y="385"/>
      <point x="65" y="392"/>
      <point x="65" y="401" type="curve" smooth="yes"/>
      <point x="65" y="409"/>
      <point x="59" y="416"/>
      <point x="53" y="416" type="curve" smooth="yes"/>
      <point x="46" y="416"/>
      <point x="40" y="409"/>
      <point x="40" y="401" type="curve" smooth="yes"/>
      <point x="40" y="392"/>
      <point x="46" y="385"/>
    </contour>
    <contour>
      <point x="336" y="38" type="curve" smooth="yes"/>
      <point x="343" y="38"/>
      <point x="349" y="45"/>
      <point x="349" y="53" type="curve" smooth="yes"/>
      <point x="349" y="62"/>
      <point x="343" y="69"/>
      <point x="336" y="69" type="curve" smooth="yes"/>
      <point x="330" y="69"/>
      <point x="324" y="62"/>
      <point x="324" y="53" type="curve" smooth="yes"/>
      <point x="324" y="45"/>
      <point x="330" y="38"/>
    </contour>
    <contour>
      <point x="98" y="471" type="curve" smooth="yes"/>
      <point x="105" y="471"/>
      <point x="110" y="478"/>
      <point x="110" y="487" type="curve" smooth="yes"/>
      <point x="110" y="495"/>
      <point x="105" y="502"/>
      <point x="98" y="502" type="curve" smooth="yes"/>
      <point x="91" y="502"/>
      <point x="86" y="495"/>
      <point x="86" y="487" type="curve" smooth="yes"/>
      <point x="86" y="478"/>
      <point x="91" y="471"/>
    </contour>
    <contour>
      <point x="403" y="97" type="curve" smooth="yes"/>
      <point x="410" y="97"/>
      <point x="416" y="104"/>
      <point x="416" y="112" type="curve" smooth="yes"/>
      <point x="416" y="121"/>
      <point x="410" y="128"/>
      <point x="403" y="128" type="curve" smooth="yes"/>
      <point x="397" y="128"/>
      <point x="391" y="121"/>
      <point x="391" y="112" type="curve" smooth="yes"/>
      <point x="391" y="104"/>
      <point x="397" y="97"/>
    </contour>
    <contour>
      <point x="166" y="530" type="curve" smooth="yes"/>
      <point x="172" y="530"/>
      <point x="178" y="537"/>
      <point x="178" y="546" type="curve" smooth="yes"/>
      <point x="178" y="554"/>
      <point x="172" y="561"/>
      <point x="166" y="561" type="curve" smooth="yes"/>
      <point x="158" y="561"/>
      <point x="153" y="554"/>
      <point x="153" y="546" type="curve" smooth="yes"/>
      <point x="153" y="537"/>
      <point x="158" y="530"/>
    </contour>
    <contour>
      <point x="449" y="183" type="curve" smooth="yes"/>
      <point x="456" y="183"/>
      <point x="462" y="190"/>
      <point x="462" y="198" type="curve" smooth="yes"/>
      <point x="462" y="207"/>
      <point x="456" y="214"/>
      <point x="449" y="214" type="curve" smooth="yes"/>
      <point x="442" y="214"/>
      <point x="437" y="207"/>
      <point x="437" y="198" type="curve" smooth="yes"/>
      <point x="437" y="190"/>
      <point x="442" y="183"/>
    </contour>
    <contour>
      <point x="465" y="284" type="curve" smooth="yes"/>
      <point x="472" y="284"/>
      <point x="478" y="291"/>
      <point x="478" y="299" type="curve" smooth="yes"/>
      <point x="478" y="308"/>
      <point x="472" y="315"/>
      <point x="465" y="315" type="curve" smooth="yes"/>
      <point x="458" y="315"/>
      <point x="453" y="308"/>
      <point x="453" y="299" type="curve" smooth="yes"/>
      <point x="453" y="291"/>
      <point x="458" y="284"/>
    </contour>
    <contour>
      <point x="251" y="553" type="curve" smooth="yes"/>
      <point x="258" y="553"/>
      <point x="263" y="560"/>
      <point x="263" y="569" type="curve" smooth="yes"/>
      <point x="263" y="577"/>
      <point x="258" y="584"/>
      <point x="251" y="584" type="curve" smooth="yes"/>
      <point x="244" y="584"/>
      <point x="238" y="577"/>
      <point x="238" y="569" type="curve" smooth="yes"/>
      <point x="238" y="560"/>
      <point x="244" y="553"/>
    </contour>
    <contour>
      <point x="449" y="385" type="curve" smooth="yes"/>
      <point x="456" y="385"/>
      <point x="462" y="392"/>
      <point x="462" y="401" type="curve" smooth="yes"/>
      <point x="462" y="409"/>
      <point x="456" y="416"/>
      <point x="449" y="416" type="curve" smooth="yes"/>
      <point x="442" y="416"/>
      <point x="437" y="409"/>
      <point x="437" y="401" type="curve" smooth="yes"/>
      <point x="437" y="392"/>
      <point x="442" y="385"/>
    </contour>
    <contour>
      <point x="336" y="530" type="curve" smooth="yes"/>
      <point x="343" y="530"/>
      <point x="349" y="537"/>
      <point x="349" y="546" type="curve" smooth="yes"/>
      <point x="349" y="554"/>
      <point x="343" y="561"/>
      <point x="336" y="561" type="curve" smooth="yes"/>
      <point x="330" y="561"/>
      <point x="324" y="554"/>
      <point x="324" y="546" type="curve" smooth="yes"/>
      <point x="324" y="537"/>
      <point x="330" y="530"/>
    </contour>
  </outline>
</glyph>
<glyph name="keheh-ar.fina" format="2">
  <advance width="754"/>
  <unicode hex="FB8F"/>
  <guideline x="652" y="-5" angle="0"/>
  <anchor x="323" y="-111" name="bottom"/>
  <anchor x="323" y="-20" name="bottom.dot"/>
  <anchor x="678" y="544" name="center"/>
  <anchor x="223" y="539" name="top"/>
  <anchor x="456" y="565" name="top.dot"/>
  <outline>
    <contour>
      <point x="755" y="-5" type="curve" smooth="yes"/>
      <point x="762" y="-5"/>
      <point x="766" y="2"/>
      <point x="766" y="8" type="curve" smooth="yes"/>
      <point x="766" y="14"/>
      <point x="764" y="21"/>
      <point x="758" y="21" type="curve" smooth="yes"/>
      <point x="682" y="21"/>
      <point x="654" y="65"/>
      <point x="588" y="163" type="curve" smooth="yes"/>
      <point x="389" y="459" type="line"/>
      <point x="382" y="442" type="line"/>
      <point x="730" y="676" type="line"/>
      <point x="722" y="700" type="line"/>
      <point x="377" y="469" type="line"/>
      <point x="372" y="440" type="line"/>
      <point x="437" y="344"/>
      <point x="507" y="238"/>
      <point x="566" y="149" type="curve" smooth="yes"/>
      <point x="631" y="52"/>
      <point x="670" y="-5"/>
    </contour>
    <contour>
      <point x="325" y="-15" type="line"/>
      <point x="502" y="-15"/>
      <point x="553" y="67"/>
      <point x="567" y="176" type="curve"/>
      <point x="546" y="197" type="line"/>
      <point x="534" y="67"/>
      <point x="471" y="11"/>
      <point x="333" y="11" type="curve"/>
    </contour>
    <component base="_part.beh.fina" xOffset="-8"/>
  </outline>
</glyph>
<glyph name="noonghunna-ar.fina" format="2">
  <advance width="599"/>
  <unicode hex="FB9F"/>
  <anchor x="259" y="-284" name="bottom"/>
  <anchor x="260" y="-243" name="bottom.dot"/>
  <anchor x="274" y="260" name="top.dot"/>
  <outline>
    <contour>
      <point x="250" y="-240" type="curve" smooth="yes"/>
      <point x="424" y="-240"/>
      <point x="500" y="-109"/>
      <point x="492" y="92" type="curve"/>
      <point x="480" y="93" type="line"/>
      <point x="489" y="45"/>
      <point x="517" y="-5"/>
      <point x="600" y="-5" type="curve" smooth="yes"/>
      <point x="606" y="-5"/>
      <point x="611" y="2"/>
      <point x="611" y="8" type="curve" smooth="yes"/>
      <point x="611" y="14"/>
      <point x="609" y="21"/>
      <point x="602" y="21" type="curve" smooth="yes"/>
      <point x="550" y="21"/>
      <point x="509" y="42"/>
      <point x="493" y="108" type="curve" smooth="yes"/>
      <point x="482" y="151"/>
      <point x="479" y="174"/>
      <point x="466" y="244" type="curve"/>
      <point x="442" y="239" type="line"/>
      <point x="458" y="160"/>
      <point x="469" y="114"/>
      <point x="469" y="56" type="curve" smooth="yes"/>
      <point x="469" y="-91"/>
      <point x="415" y="-214"/>
      <point x="253" y="-214" type="curve" smooth="yes"/>
      <point x="118" y="-214"/>
      <point x="64" y="-132"/>
      <point x="64" y="1" type="curve" smooth="yes"/>
      <point x="64" y="72"/>
      <point x="74" y="124"/>
      <point x="88" y="175" type="curve"/>
      <point x="66" y="181" type="line"/>
      <point x="50" y="129"/>
      <point x="40" y="68"/>
      <point x="40" y="-2" type="curve" smooth="yes"/>
      <point x="40" y="-145"/>
      <point x="104" y="-240"/>
    </contour>
  </outline>
</glyph>
<glyph name="hehgoal-ar.fina" format="2">
  <advance width="494"/>
  <unicode hex="FBA7"/>
  <anchor x="220" y="-111" name="bottom"/>
  <anchor x="216" y="488" name="top"/>
  <anchor x="216" y="339" name="top.dot"/>
  <outline>
    <contour>
      <point x="495" y="-5" type="curve" smooth="yes"/>
      <point x="502" y="-5"/>
      <point x="506" y="2"/>
      <point x="506" y="8" type="curve" smooth="yes"/>
      <point x="506" y="14"/>
      <point x="504" y="21"/>
      <point x="498" y="21" type="curve" smooth="yes"/>
      <point x="436" y="21"/>
      <point x="406" y="81"/>
      <point x="353" y="166" type="curve" smooth="yes"/>
      <point x="300" y="251"/>
      <point x="270" y="293"/>
      <point x="215" y="293" type="curve" smooth="yes"/>
      <point x="146" y="293"/>
      <point x="86" y="214"/>
      <point x="33" y="109" type="curve"/>
      <point x="53" y="96" type="line"/>
      <point x="105" y="196"/>
      <point x="157" y="267"/>
      <point x="215" y="267" type="curve" smooth="yes"/>
      <point x="257" y="267"/>
      <point x="280" y="230"/>
      <point x="335" y="145" type="curve" smooth="yes"/>
      <point x="388" y="62"/>
      <point x="425" y="-5"/>
    </contour>
  </outline>
</glyph>
<glyph name="hehgoal-ar.medi" format="2">
  <advance width="410"/>
  <unicode hex="FBA9"/>
  <anchor x="236" y="-358" name="bottom"/>
  <anchor x="218" y="298" name="top"/>
  <outline>
    <contour>
      <point x="236" y="-299" type="curve"/>
      <point x="255" y="-282" type="line"/>
      <point x="253" y="-263"/>
      <point x="250" y="-225"/>
      <point x="250" y="-188" type="curve" smooth="yes"/>
      <point x="250" y="-63"/>
      <point x="289" y="-5"/>
      <point x="411" y="-5" type="curve" smooth="yes"/>
      <point x="418" y="-5"/>
      <point x="422" y="2"/>
      <point x="422" y="8" type="curve" smooth="yes"/>
      <point x="422" y="14"/>
      <point x="420" y="21"/>
      <point x="414" y="21" type="curve" smooth="yes"/>
      <point x="285" y="21"/>
      <point x="227" y="-40"/>
      <point x="227" y="-194" type="curve" smooth="yes"/>
      <point x="227" y="-232"/>
      <point x="230" y="-254"/>
      <point x="234" y="-285" type="curve"/>
      <point x="242" y="-276" type="line"/>
      <point x="143" y="-225"/>
      <point x="109" y="-128"/>
      <point x="109" y="2" type="curve" smooth="yes"/>
      <point x="109" y="50"/>
      <point x="114" y="110"/>
      <point x="123" y="172" type="curve"/>
      <point x="101" y="175" type="line"/>
      <point x="85" y="60"/>
      <point x="53" y="21"/>
      <point x="3" y="21" type="curve"/>
      <point x="0" y="-5" type="line"/>
      <point x="67" y="-5"/>
      <point x="96" y="49"/>
      <point x="103" y="93" type="curve"/>
      <point x="94" y="97" type="line"/>
      <point x="90" y="63"/>
      <point x="86" y="29"/>
      <point x="86" y="-4" type="curve" smooth="yes"/>
      <point x="86" y="-145"/>
      <point x="130" y="-247"/>
    </contour>
  </outline>
</glyph>
<glyph name="hehDoachashmee-ar.fina" format="2">
  <advance width="497"/>
  <unicode hex="FBAB"/>
  <anchor x="303" y="-325" name="bottom"/>
  <anchor x="303" y="503" name="top"/>
  <anchor x="303" y="439" name="top.dot"/>
  <outline>
    <contour>
      <point x="306" y="-268" type="curve" smooth="yes"/>
      <point x="378" y="-268"/>
      <point x="421" y="-213"/>
      <point x="421" y="-129" type="curve" smooth="yes"/>
      <point x="421" y="-69"/>
      <point x="394" y="-4"/>
      <point x="340" y="19" type="curve"/>
      <point x="338" y="11" type="line"/>
      <point x="381" y="-6"/>
      <point x="453" y="-5"/>
      <point x="498" y="-5" type="curve" smooth="yes"/>
      <point x="504" y="-5"/>
      <point x="509" y="2"/>
      <point x="509" y="8" type="curve" smooth="yes"/>
      <point x="509" y="14"/>
      <point x="506" y="21"/>
      <point x="500" y="21" type="curve" smooth="yes"/>
      <point x="434" y="21"/>
      <point x="356" y="24"/>
      <point x="287" y="43" type="curve"/>
      <point x="284" y="18" type="line"/>
      <point x="379" y="0"/>
      <point x="395" y="-82"/>
      <point x="395" y="-134" type="curve" smooth="yes"/>
      <point x="395" y="-194"/>
      <point x="364" y="-242"/>
      <point x="308" y="-242" type="curve" smooth="yes"/>
      <point x="226" y="-242"/>
      <point x="173" y="-150"/>
      <point x="173" y="22" type="curve" smooth="yes"/>
      <point x="173" y="202"/>
      <point x="261" y="359"/>
      <point x="314" y="359" type="curve" smooth="yes"/>
      <point x="353" y="359"/>
      <point x="389" y="282"/>
      <point x="389" y="203" type="curve" smooth="yes"/>
      <point x="389" y="153"/>
      <point x="382" y="99"/>
      <point x="322" y="64" type="curve" smooth="yes"/>
      <point x="271" y="35"/>
      <point x="206" y="21"/>
      <point x="122" y="21" type="curve" smooth="yes"/>
      <point x="94" y="21"/>
      <point x="58" y="24"/>
      <point x="26" y="32" type="curve"/>
      <point x="24" y="6" type="line"/>
      <point x="54" y="-2"/>
      <point x="88" y="-5"/>
      <point x="120" y="-5" type="curve" smooth="yes"/>
      <point x="206" y="-5"/>
      <point x="276" y="11"/>
      <point x="331" y="42" type="curve" smooth="yes"/>
      <point x="390" y="75"/>
      <point x="413" y="126"/>
      <point x="413" y="203" type="curve" smooth="yes"/>
      <point x="413" y="305"/>
      <point x="366" y="385"/>
      <point x="315" y="385" type="curve" smooth="yes"/>
      <point x="244" y="385"/>
      <point x="149" y="210"/>
      <point x="149" y="17" type="curve" smooth="yes"/>
      <point x="149" y="-174"/>
      <point x="218" y="-268"/>
    </contour>
  </outline>
</glyph>
<glyph name="yehbarree-ar.fina" format="2">
  <advance width="526"/>
  <unicode hex="FBAF"/>
  <anchor x="294" y="-341" name="bottom"/>
  <anchor x="174" y="96" name="top"/>
  <outline>
    <contour>
      <point x="282" y="-298" type="curve" smooth="yes"/>
      <point x="372" y="-298"/>
      <point x="450" y="-288"/>
      <point x="513" y="-275" type="curve"/>
      <point x="514" y="-250" type="line"/>
      <point x="450" y="-262"/>
      <point x="382" y="-272"/>
      <point x="282" y="-272" type="curve" smooth="yes"/>
      <point x="106" y="-272"/>
      <point x="64" y="-220"/>
      <point x="64" y="-149" type="curve" smooth="yes"/>
      <point x="64" y="-65"/>
      <point x="120" y="-5"/>
      <point x="252" y="-5" type="curve" smooth="yes"/>
      <point x="321" y="-5"/>
      <point x="422" y="-5"/>
      <point x="527" y="-5" type="curve" smooth="yes"/>
      <point x="534" y="-5"/>
      <point x="538" y="2"/>
      <point x="538" y="8" type="curve" smooth="yes"/>
      <point x="538" y="14"/>
      <point x="536" y="21"/>
      <point x="530" y="21" type="curve" smooth="yes"/>
      <point x="427" y="21"/>
      <point x="324" y="21"/>
      <point x="252" y="21" type="curve" smooth="yes"/>
      <point x="112" y="21"/>
      <point x="40" y="-41"/>
      <point x="40" y="-149" type="curve" smooth="yes"/>
      <point x="40" y="-240"/>
      <point x="92" y="-298"/>
    </contour>
  </outline>
</glyph>
<glyph name="uniFBBC" format="2">
  <unicode hex="FBBC"/>
  <anchor x="84" y="0" name="_top"/>
  <outline>
    <contour>
      <point x="122" y="-208" type="line"/>
      <point x="143" y="-208" type="line"/>
      <point x="139" y="-37" type="line"/>
      <point x="118" y="-37" type="line"/>
    </contour>
    <contour>
      <point x="33" y="-208" type="line"/>
      <point x="54" y="-208" type="line"/>
      <point x="50" y="-37" type="line"/>
      <point x="29" y="-37" type="line"/>
    </contour>
  </outline>
</glyph>
<glyph name="kaf_alefMaksura-ar" format="2">
  <advance width="829"/>
  <unicode hex="FC3D"/>
  <anchor x="286" y="-246" name="bottom.dot"/>
  <anchor x="670" y="-111" name="bottom_1"/>
  <anchor x="286" y="-291" name="bottom_2"/>
  <anchor x="92" y="181" name="top.dot_2"/>
  <anchor x="626" y="659" name="top_1"/>
  <anchor x="292" y="289" name="top_2"/>
  <outline>
    <contour>
      <point x="283" y="-240" type="curve" smooth="yes"/>
      <point x="466" y="-240"/>
      <point x="580" y="-147"/>
      <point x="580" y="-42" type="curve" smooth="yes"/>
      <point x="580" y="-6"/>
      <point x="562" y="18"/>
      <point x="534" y="33" type="curve"/>
      <point x="532" y="26" type="line"/>
      <point x="544" y="20"/>
      <point x="576" y="14"/>
      <point x="600" y="14" type="curve" smooth="yes"/>
      <point x="705" y="14"/>
      <point x="750" y="59"/>
      <point x="750" y="141" type="curve" smooth="yes"/>
      <point x="750" y="232"/>
      <point x="688" y="307"/>
      <point x="486" y="458" type="curve"/>
      <point x="483" y="447" type="line"/>
      <point x="820" y="674" type="line"/>
      <point x="812" y="698" type="line"/>
      <point x="474" y="469" type="line"/>
      <point x="469" y="440" type="line"/>
      <point x="678" y="285"/>
      <point x="726" y="216"/>
      <point x="726" y="137" type="curve" smooth="yes"/>
      <point x="726" y="76"/>
      <point x="694" y="40"/>
      <point x="602" y="40" type="curve" smooth="yes"/>
      <point x="551" y="40"/>
      <point x="510" y="55"/>
      <point x="450" y="85" type="curve"/>
      <point x="442" y="62" type="line"/>
      <point x="538" y="16"/>
      <point x="556" y="-5"/>
      <point x="556" y="-42" type="curve" smooth="yes"/>
      <point x="556" y="-126"/>
      <point x="460" y="-214"/>
      <point x="287" y="-214" type="curve" smooth="yes"/>
      <point x="133" y="-214"/>
      <point x="64" y="-142"/>
      <point x="64" y="-19" type="curve" smooth="yes"/>
      <point x="64" y="32"/>
      <point x="74" y="85"/>
      <point x="95" y="159" type="curve"/>
      <point x="73" y="165" type="line"/>
      <point x="50" y="90"/>
      <point x="40" y="33"/>
      <point x="40" y="-22" type="curve" smooth="yes"/>
      <point x="40" y="-179"/>
      <point x="143" y="-240"/>
    </contour>
  </outline>
</glyph>
<glyph name="kaf_alefMaksura-ar.fina" format="2">
  <advance width="889"/>
  <unicode hex="FC83"/>
  <anchor x="286" y="-246" name="bottom.dot"/>
  <anchor x="705" y="-111" name="bottom_1"/>
  <anchor x="286" y="-291" name="bottom_2"/>
  <anchor x="92" y="181" name="top.dot_2"/>
  <anchor x="652" y="660" name="top_1"/>
  <anchor x="292" y="289" name="top_2"/>
  <outline>
    <contour>
      <point x="890" y="-5" type="curve" smooth="yes"/>
      <point x="896" y="-5"/>
      <point x="901" y="2"/>
      <point x="901" y="8" type="curve" smooth="yes"/>
      <point x="901" y="14"/>
      <point x="898" y="21"/>
      <point x="892" y="21" type="curve" smooth="yes"/>
      <point x="817" y="21"/>
      <point x="788" y="65"/>
      <point x="723" y="163" type="curve" smooth="yes"/>
      <point x="526" y="459" type="line"/>
      <point x="518" y="442" type="line"/>
      <point x="860" y="674" type="line"/>
      <point x="852" y="698" type="line"/>
      <point x="514" y="469" type="line"/>
      <point x="509" y="440" type="line"/>
      <point x="574" y="344"/>
      <point x="642" y="238"/>
      <point x="701" y="149" type="curve" smooth="yes"/>
      <point x="766" y="52"/>
      <point x="805" y="-5"/>
    </contour>
    <contour>
      <point x="283" y="-240" type="curve" smooth="yes"/>
      <point x="466" y="-240"/>
      <point x="580" y="-147"/>
      <point x="580" y="-42" type="curve" smooth="yes"/>
      <point x="580" y="-8"/>
      <point x="565" y="26"/>
      <point x="509" y="50" type="curve"/>
      <point x="506" y="39" type="line"/>
      <point x="518" y="33"/>
      <point x="556" y="16"/>
      <point x="580" y="16" type="curve" smooth="yes"/>
      <point x="658" y="16"/>
      <point x="700" y="64"/>
      <point x="703" y="174" type="curve"/>
      <point x="682" y="195" type="line"/>
      <point x="678" y="79"/>
      <point x="647" y="40"/>
      <point x="583" y="40" type="curve" smooth="yes"/>
      <point x="542" y="40"/>
      <point x="508" y="57"/>
      <point x="450" y="85" type="curve"/>
      <point x="442" y="62" type="line"/>
      <point x="538" y="16"/>
      <point x="556" y="-6"/>
      <point x="556" y="-42" type="curve" smooth="yes"/>
      <point x="556" y="-126"/>
      <point x="460" y="-214"/>
      <point x="287" y="-214" type="curve" smooth="yes"/>
      <point x="133" y="-214"/>
      <point x="64" y="-142"/>
      <point x="64" y="-19" type="curve" smooth="yes"/>
      <point x="64" y="32"/>
      <point x="74" y="85"/>
      <point x="95" y="159" type="curve"/>
      <point x="73" y="165" type="line"/>
      <point x="50" y="90"/>
      <point x="40" y="33"/>
      <point x="40" y="-22" type="curve" smooth="yes"/>
      <point x="40" y="-179"/>
      <point x="143" y="-240"/>
    </contour>
  </outline>
</glyph>
<glyph name="seen_alefMaksura-ar" format="2">
  <advance width="1194"/>
  <unicode hex="FCFB"/>
  <anchor x="278" y="-246" name="bottom.dot_2"/>
  <anchor x="911" y="-111" name="bottom_1"/>
  <anchor x="278" y="-281" name="bottom_2"/>
  <anchor x="911" y="347" name="top.dot_1"/>
  <anchor x="92" y="181" name="top.dot_2"/>
  <anchor x="909" y="448" name="top_1"/>
  <anchor x="214" y="356" name="top_2"/>
  <outline>
    <contour>
      <point x="266" y="-240" type="curve" smooth="yes"/>
      <point x="458" y="-240"/>
      <point x="570" y="-153"/>
      <point x="570" y="-51" type="curve" smooth="yes"/>
      <point x="570" y="16"/>
      <point x="538" y="36"/>
      <point x="440" y="64" type="curve" smooth="yes"/>
      <point x="356" y="88"/>
      <point x="322" y="109"/>
      <point x="322" y="168" type="curve" smooth="yes"/>
      <point x="322" y="253"/>
      <point x="394" y="330"/>
      <point x="490" y="330" type="curve" smooth="yes"/>
      <point x="562" y="330"/>
      <point x="594" y="282"/>
      <point x="633" y="177" type="curve" smooth="yes"/>
      <point x="682" y="44"/>
      <point x="715" y="-10"/>
      <point x="795" y="-10" type="curve" smooth="yes"/>
      <point x="858" y="-10"/>
      <point x="898" y="19"/>
      <point x="914" y="104" type="curve"/>
      <point x="907" y="102" type="line"/>
      <point x="913" y="32"/>
      <point x="944" y="-10"/>
      <point x="1024" y="-10" type="curve" smooth="yes"/>
      <point x="1103" y="-10"/>
      <point x="1146" y="35"/>
      <point x="1146" y="137" type="curve" smooth="yes"/>
      <point x="1146" y="213"/>
      <point x="1133" y="279"/>
      <point x="1110" y="363" type="curve"/>
      <point x="1087" y="355" type="line"/>
      <point x="1112" y="267"/>
      <point x="1122" y="200"/>
      <point x="1122" y="131" type="curve" smooth="yes"/>
      <point x="1122" y="55"/>
      <point x="1093" y="16"/>
      <point x="1028" y="16" type="curve" smooth="yes"/>
      <point x="957" y="16"/>
      <point x="934" y="46"/>
      <point x="928" y="110" type="curve" smooth="yes"/>
      <point x="925" y="144"/>
      <point x="927" y="218"/>
      <point x="925" y="284" type="curve"/>
      <point x="901" y="282" type="line"/>
      <point x="908" y="65"/>
      <point x="872" y="16"/>
      <point x="795" y="16" type="curve" smooth="yes"/>
      <point x="728" y="16"/>
      <point x="702" y="61"/>
      <point x="657" y="186" type="curve" smooth="yes"/>
      <point x="615" y="302"/>
      <point x="572" y="356"/>
      <point x="490" y="356" type="curve" smooth="yes"/>
      <point x="386" y="356"/>
      <point x="298" y="268"/>
      <point x="298" y="165" type="curve" smooth="yes"/>
      <point x="298" y="91"/>
      <point x="346" y="63"/>
      <point x="434" y="39" type="curve" smooth="yes"/>
      <point x="526" y="14"/>
      <point x="546" y="-4"/>
      <point x="546" y="-52" type="curve" smooth="yes"/>
      <point x="546" y="-140"/>
      <point x="440" y="-214"/>
      <point x="270" y="-214" type="curve" smooth="yes"/>
      <point x="127" y="-214"/>
      <point x="64" y="-149"/>
      <point x="64" y="-19" type="curve" smooth="yes"/>
      <point x="64" y="32"/>
      <point x="75" y="103"/>
      <point x="96" y="165" type="curve"/>
      <point x="74" y="171" type="line"/>
      <point x="48" y="97"/>
      <point x="40" y="28"/>
      <point x="40" y="-22" type="curve" smooth="yes"/>
      <point x="40" y="-176"/>
      <point x="125" y="-240"/>
    </contour>
  </outline>
</glyph>
<glyph name="sad_alefMaksura-ar" format="2">
  <advance width="1231"/>
  <unicode hex="FD05"/>
  <anchor x="278" y="-246" name="bottom.dot_2"/>
  <anchor x="923" y="-112" name="bottom_1"/>
  <anchor x="278" y="-281" name="bottom_2"/>
  <anchor x="1011" y="439" name="top.dot_1"/>
  <anchor x="92" y="181" name="top.dot_2"/>
  <anchor x="994" y="536" name="top_1"/>
  <anchor x="214" y="356" name="top_2"/>
  <outline>
    <contour>
      <point x="266" y="-240" type="curve" smooth="yes"/>
      <point x="458" y="-240"/>
      <point x="570" y="-153"/>
      <point x="570" y="-51" type="curve" smooth="yes"/>
      <point x="570" y="16"/>
      <point x="538" y="36"/>
      <point x="440" y="64" type="curve" smooth="yes"/>
      <point x="356" y="88"/>
      <point x="322" y="109"/>
      <point x="322" y="168" type="curve" smooth="yes"/>
      <point x="322" y="253"/>
      <point x="394" y="330"/>
      <point x="490" y="330" type="curve" smooth="yes"/>
      <point x="564" y="330"/>
      <point x="592" y="284"/>
      <point x="633" y="177" type="curve" smooth="yes"/>
      <point x="690" y="29"/>
      <point x="726" y="-5"/>
      <point x="892" y="-5" type="curve" smooth="yes"/>
      <point x="1104" y="-5"/>
      <point x="1194" y="63"/>
      <point x="1194" y="193" type="curve" smooth="yes"/>
      <point x="1194" y="306"/>
      <point x="1141" y="398"/>
      <point x="1047" y="398" type="curve" smooth="yes"/>
      <point x="917" y="398"/>
      <point x="806" y="216"/>
      <point x="710" y="56" type="curve"/>
      <point x="730" y="42" type="line"/>
      <point x="821" y="192"/>
      <point x="925" y="372"/>
      <point x="1048" y="372" type="curve" smooth="yes"/>
      <point x="1131" y="372"/>
      <point x="1170" y="282"/>
      <point x="1170" y="194" type="curve" smooth="yes"/>
      <point x="1170" y="94"/>
      <point x="1107" y="21"/>
      <point x="888" y="21" type="curve" smooth="yes"/>
      <point x="727" y="21"/>
      <point x="704" y="62"/>
      <point x="657" y="186" type="curve" smooth="yes"/>
      <point x="611" y="306"/>
      <point x="572" y="356"/>
      <point x="490" y="356" type="curve" smooth="yes"/>
      <point x="386" y="356"/>
      <point x="298" y="268"/>
      <point x="298" y="165" type="curve" smooth="yes"/>
      <point x="298" y="91"/>
      <point x="346" y="63"/>
      <point x="434" y="39" type="curve" smooth="yes"/>
      <point x="526" y="14"/>
      <point x="546" y="-4"/>
      <point x="546" y="-52" type="curve" smooth="yes"/>
      <point x="546" y="-140"/>
      <point x="440" y="-214"/>
      <point x="270" y="-214" type="curve" smooth="yes"/>
      <point x="127" y="-214"/>
      <point x="64" y="-149"/>
      <point x="64" y="-19" type="curve" smooth="yes"/>
      <point x="64" y="32"/>
      <point x="75" y="103"/>
      <point x="96" y="165" type="curve"/>
      <point x="74" y="171" type="line"/>
      <point x="48" y="97"/>
      <point x="40" y="28"/>
      <point x="40" y="-22" type="curve" smooth="yes"/>
      <point x="40" y="-176"/>
      <point x="125" y="-240"/>
    </contour>
  </outline>
</glyph>
<glyph name="seen_reh-ar" format="2">
  <advance width="1014"/>
  <unicode hex="FD0E"/>
  <anchor x="731" y="-111" name="bottom_1"/>
  <anchor x="94" y="-297" name="bottom_2"/>
  <anchor x="731" y="347" name="top.dot_1"/>
  <anchor x="236" y="270" name="top.dot_2"/>
  <anchor x="729" y="448" name="top_1"/>
  <anchor x="233" y="401" name="top_2"/>
  <outline>
    <contour>
      <point x="53" y="-260" type="curve" smooth="yes"/>
      <point x="204" y="-260"/>
      <point x="286" y="-150"/>
      <point x="286" y="35" type="curve" smooth="yes"/>
      <point x="286" y="88"/>
      <point x="276" y="148"/>
      <point x="261" y="201" type="curve"/>
      <point x="250" y="191" type="line"/>
      <point x="332" y="197"/>
      <point x="411" y="212"/>
      <point x="486" y="251" type="curve"/>
      <point x="474" y="256" type="line"/>
      <point x="474" y="231"/>
      <point x="473" y="201"/>
      <point x="473" y="177" type="curve" smooth="yes"/>
      <point x="473" y="41"/>
      <point x="496" y="-10"/>
      <point x="599" y="-10" type="curve" smooth="yes"/>
      <point x="670" y="-10"/>
      <point x="718" y="19"/>
      <point x="734" y="104" type="curve"/>
      <point x="727" y="102" type="line"/>
      <point x="733" y="32"/>
      <point x="764" y="-10"/>
      <point x="844" y="-10" type="curve" smooth="yes"/>
      <point x="923" y="-10"/>
      <point x="966" y="35"/>
      <point x="966" y="137" type="curve" smooth="yes"/>
      <point x="966" y="213"/>
      <point x="953" y="279"/>
      <point x="930" y="363" type="curve"/>
      <point x="906" y="355" type="line"/>
      <point x="932" y="267"/>
      <point x="942" y="200"/>
      <point x="942" y="131" type="curve" smooth="yes"/>
      <point x="942" y="55"/>
      <point x="911" y="16"/>
      <point x="848" y="16" type="curve" smooth="yes"/>
      <point x="777" y="16"/>
      <point x="754" y="46"/>
      <point x="748" y="110" type="curve" smooth="yes"/>
      <point x="745" y="144"/>
      <point x="747" y="218"/>
      <point x="745" y="284" type="curve"/>
      <point x="721" y="282" type="line"/>
      <point x="728" y="65"/>
      <point x="694" y="16"/>
      <point x="599" y="16" type="curve" smooth="yes"/>
      <point x="514" y="16"/>
      <point x="497" y="56"/>
      <point x="497" y="186" type="curve" smooth="yes"/>
      <point x="497" y="211"/>
      <point x="498" y="239"/>
      <point x="497" y="273" type="curve"/>
      <point x="473" y="272" type="line"/>
      <point x="410" y="238"/>
      <point x="322" y="219"/>
      <point x="250" y="217" type="curve"/>
      <point x="237" y="191" type="line"/>
      <point x="252" y="139"/>
      <point x="262" y="85"/>
      <point x="262" y="34" type="curve" smooth="yes"/>
      <point x="262" y="-139"/>
      <point x="188" y="-234"/>
      <point x="54" y="-234" type="curve" smooth="yes"/>
      <point x="6" y="-234"/>
      <point x="-26" y="-223"/>
      <point x="-60" y="-205" type="curve"/>
      <point x="-60" y="-231" type="line"/>
      <point x="-34" y="-248"/>
      <point x="1" y="-260"/>
    </contour>
  </outline>
</glyph>
<glyph name="sad_reh-ar" format="2">
  <advance width="1052"/>
  <unicode hex="FD0F"/>
  <anchor x="745" y="-112" name="bottom_1"/>
  <anchor x="94" y="-297" name="bottom_2"/>
  <anchor x="833" y="439" name="top.dot_1"/>
  <anchor x="236" y="270" name="top.dot_2"/>
  <anchor x="816" y="536" name="top_1"/>
  <anchor x="233" y="401" name="top_2"/>
  <outline>
    <contour>
      <point x="53" y="-260" type="curve" smooth="yes"/>
      <point x="204" y="-260"/>
      <point x="286" y="-150"/>
      <point x="286" y="35" type="curve" smooth="yes"/>
      <point x="286" y="88"/>
      <point x="276" y="148"/>
      <point x="261" y="201" type="curve"/>
      <point x="250" y="191" type="line"/>
      <point x="332" y="197"/>
      <point x="411" y="212"/>
      <point x="486" y="251" type="curve"/>
      <point x="474" y="256" type="line"/>
      <point x="473" y="18"/>
      <point x="509" y="-5"/>
      <point x="714" y="-5" type="curve" smooth="yes"/>
      <point x="926" y="-5"/>
      <point x="1015" y="63"/>
      <point x="1015" y="193" type="curve" smooth="yes"/>
      <point x="1015" y="306"/>
      <point x="962" y="398"/>
      <point x="869" y="398" type="curve" smooth="yes"/>
      <point x="734" y="398"/>
      <point x="621" y="205"/>
      <point x="524" y="43" type="curve"/>
      <point x="544" y="29" type="line"/>
      <point x="637" y="181"/>
      <point x="744" y="372"/>
      <point x="870" y="372" type="curve" smooth="yes"/>
      <point x="952" y="372"/>
      <point x="991" y="282"/>
      <point x="991" y="194" type="curve" smooth="yes"/>
      <point x="991" y="94"/>
      <point x="929" y="21"/>
      <point x="710" y="21" type="curve" smooth="yes"/>
      <point x="533" y="21"/>
      <point x="513" y="55"/>
      <point x="502" y="126" type="curve" smooth="yes"/>
      <point x="495" y="171"/>
      <point x="494" y="217"/>
      <point x="494" y="273" type="curve"/>
      <point x="473" y="272" type="line"/>
      <point x="410" y="238"/>
      <point x="322" y="219"/>
      <point x="250" y="217" type="curve"/>
      <point x="237" y="191" type="line"/>
      <point x="252" y="139"/>
      <point x="262" y="85"/>
      <point x="262" y="34" type="curve" smooth="yes"/>
      <point x="262" y="-139"/>
      <point x="188" y="-234"/>
      <point x="54" y="-234" type="curve" smooth="yes"/>
      <point x="3" y="-234"/>
      <point x="-26" y="-223"/>
      <point x="-60" y="-205" type="curve"/>
      <point x="-60" y="-231" type="line"/>
      <point x="-34" y="-248"/>
      <point x="1" y="-260"/>
    </contour>
  </outline>
</glyph>
<glyph name="seen_alefMaksura-ar.fina" format="2">
  <advance width="1270"/>
  <unicode hex="FD17"/>
  <anchor x="278" y="-246" name="bottom.dot_2"/>
  <anchor x="911" y="-111" name="bottom_1"/>
  <anchor x="278" y="-281" name="bottom_2"/>
  <anchor x="911" y="347" name="top.dot_1"/>
  <anchor x="92" y="181" name="top.dot_2"/>
  <anchor x="909" y="448" name="top_1"/>
  <anchor x="214" y="356" name="top_2"/>
  <outline>
    <contour>
      <point x="266" y="-240" type="curve" smooth="yes"/>
      <point x="458" y="-240"/>
      <point x="570" y="-153"/>
      <point x="570" y="-51" type="curve" smooth="yes"/>
      <point x="570" y="16"/>
      <point x="538" y="36"/>
      <point x="440" y="64" type="curve" smooth="yes"/>
      <point x="356" y="88"/>
      <point x="322" y="109"/>
      <point x="322" y="168" type="curve" smooth="yes"/>
      <point x="322" y="253"/>
      <point x="394" y="330"/>
      <point x="490" y="330" type="curve" smooth="yes"/>
      <point x="564" y="330"/>
      <point x="594" y="282"/>
      <point x="633" y="177" type="curve" smooth="yes"/>
      <point x="682" y="44"/>
      <point x="715" y="-10"/>
      <point x="795" y="-10" type="curve" smooth="yes"/>
      <point x="858" y="-10"/>
      <point x="898" y="19"/>
      <point x="914" y="104" type="curve"/>
      <point x="907" y="102" type="line"/>
      <point x="913" y="32"/>
      <point x="944" y="-10"/>
      <point x="1024" y="-10" type="curve" smooth="yes"/>
      <point x="1074" y="-10"/>
      <point x="1131" y="12"/>
      <point x="1141" y="102" type="curve"/>
      <point x="1134" y="102" type="line"/>
      <point x="1145" y="29"/>
      <point x="1188" y="-5"/>
      <point x="1270" y="-5" type="curve" smooth="yes"/>
      <point x="1277" y="-5"/>
      <point x="1282" y="2"/>
      <point x="1282" y="8" type="curve" smooth="yes"/>
      <point x="1282" y="14"/>
      <point x="1279" y="21"/>
      <point x="1273" y="21" type="curve" smooth="yes"/>
      <point x="1204" y="21"/>
      <point x="1172" y="33"/>
      <point x="1156" y="99" type="curve" smooth="yes"/>
      <point x="1145" y="143"/>
      <point x="1141" y="233"/>
      <point x="1136" y="322" type="curve"/>
      <point x="1112" y="320" type="line"/>
      <point x="1116" y="235"/>
      <point x="1120" y="182"/>
      <point x="1120" y="125" type="curve" smooth="yes"/>
      <point x="1120" y="57"/>
      <point x="1087" y="16"/>
      <point x="1028" y="16" type="curve" smooth="yes"/>
      <point x="957" y="16"/>
      <point x="934" y="46"/>
      <point x="928" y="110" type="curve" smooth="yes"/>
      <point x="925" y="144"/>
      <point x="927" y="218"/>
      <point x="925" y="284" type="curve"/>
      <point x="901" y="282" type="line"/>
      <point x="908" y="65"/>
      <point x="872" y="16"/>
      <point x="795" y="16" type="curve" smooth="yes"/>
      <point x="728" y="16"/>
      <point x="702" y="61"/>
      <point x="657" y="186" type="curve" smooth="yes"/>
      <point x="615" y="302"/>
      <point x="572" y="356"/>
      <point x="490" y="356" type="curve" smooth="yes"/>
      <point x="386" y="356"/>
      <point x="298" y="268"/>
      <point x="298" y="165" type="curve" smooth="yes"/>
      <point x="298" y="91"/>
      <point x="346" y="63"/>
      <point x="434" y="39" type="curve" smooth="yes"/>
      <point x="526" y="14"/>
      <point x="546" y="-4"/>
      <point x="546" y="-52" type="curve" smooth="yes"/>
      <point x="546" y="-140"/>
      <point x="440" y="-214"/>
      <point x="270" y="-214" type="curve" smooth="yes"/>
      <point x="127" y="-214"/>
      <point x="64" y="-149"/>
      <point x="64" y="-19" type="curve" smooth="yes"/>
      <point x="64" y="32"/>
      <point x="75" y="103"/>
      <point x="96" y="165" type="curve"/>
      <point x="74" y="171" type="line"/>
      <point x="48" y="97"/>
      <point x="40" y="28"/>
      <point x="40" y="-22" type="curve" smooth="yes"/>
      <point x="40" y="-176"/>
      <point x="125" y="-240"/>
    </contour>
  </outline>
</glyph>
<glyph name="seen_reh-ar.fina" format="2">
  <advance width="1090"/>
  <unicode hex="FD2A"/>
  <anchor x="731" y="-111" name="bottom_1"/>
  <anchor x="94" y="-297" name="bottom_2"/>
  <anchor x="731" y="347" name="top.dot_1"/>
  <anchor x="236" y="270" name="top.dot_2"/>
  <anchor x="729" y="448" name="top_1"/>
  <anchor x="233" y="401" name="top_2"/>
  <outline>
    <contour>
      <point x="53" y="-260" type="curve" smooth="yes"/>
      <point x="204" y="-260"/>
      <point x="286" y="-150"/>
      <point x="286" y="35" type="curve" smooth="yes"/>
      <point x="286" y="88"/>
      <point x="276" y="148"/>
      <point x="261" y="201" type="curve"/>
      <point x="250" y="191" type="line"/>
      <point x="332" y="197"/>
      <point x="411" y="212"/>
      <point x="486" y="251" type="curve"/>
      <point x="474" y="256" type="line"/>
      <point x="474" y="231"/>
      <point x="473" y="201"/>
      <point x="473" y="177" type="curve" smooth="yes"/>
      <point x="473" y="41"/>
      <point x="496" y="-10"/>
      <point x="599" y="-10" type="curve" smooth="yes"/>
      <point x="670" y="-10"/>
      <point x="718" y="19"/>
      <point x="734" y="104" type="curve"/>
      <point x="727" y="102" type="line"/>
      <point x="733" y="32"/>
      <point x="764" y="-10"/>
      <point x="844" y="-10" type="curve" smooth="yes"/>
      <point x="894" y="-10"/>
      <point x="951" y="12"/>
      <point x="961" y="102" type="curve"/>
      <point x="954" y="102" type="line"/>
      <point x="965" y="29"/>
      <point x="1008" y="-5"/>
      <point x="1090" y="-5" type="curve" smooth="yes"/>
      <point x="1097" y="-5"/>
      <point x="1102" y="2"/>
      <point x="1102" y="8" type="curve" smooth="yes"/>
      <point x="1102" y="14"/>
      <point x="1099" y="21"/>
      <point x="1093" y="21" type="curve" smooth="yes"/>
      <point x="1024" y="21"/>
      <point x="992" y="33"/>
      <point x="976" y="99" type="curve" smooth="yes"/>
      <point x="965" y="143"/>
      <point x="961" y="233"/>
      <point x="956" y="322" type="curve"/>
      <point x="932" y="320" type="line"/>
      <point x="936" y="235"/>
      <point x="940" y="182"/>
      <point x="940" y="125" type="curve" smooth="yes"/>
      <point x="940" y="57"/>
      <point x="907" y="16"/>
      <point x="848" y="16" type="curve" smooth="yes"/>
      <point x="777" y="16"/>
      <point x="754" y="46"/>
      <point x="748" y="110" type="curve" smooth="yes"/>
      <point x="745" y="144"/>
      <point x="747" y="218"/>
      <point x="745" y="284" type="curve"/>
      <point x="721" y="282" type="line"/>
      <point x="728" y="65"/>
      <point x="694" y="16"/>
      <point x="599" y="16" type="curve" smooth="yes"/>
      <point x="514" y="16"/>
      <point x="497" y="56"/>
      <point x="497" y="186" type="curve" smooth="yes"/>
      <point x="497" y="211"/>
      <point x="498" y="239"/>
      <point x="497" y="273" type="curve"/>
      <point x="473" y="272" type="line"/>
      <point x="410" y="238"/>
      <point x="322" y="219"/>
      <point x="250" y="217" type="curve"/>
      <point x="237" y="191" type="line"/>
      <point x="252" y="139"/>
      <point x="262" y="85"/>
      <point x="262" y="34" type="curve" smooth="yes"/>
      <point x="262" y="-139"/>
      <point x="188" y="-234"/>
      <point x="54" y="-234" type="curve" smooth="yes"/>
      <point x="3" y="-234"/>
      <point x="-26" y="-223"/>
      <point x="-60" y="-205" type="curve"/>
      <point x="-60" y="-231" type="line"/>
      <point x="-34" y="-248"/>
      <point x="1" y="-260"/>
    </contour>
  </outline>
</glyph>
<glyph name="parenleft-ar" format="2">
  <advance width="376"/>
  <unicode hex="FD3E"/>
  <outline>
    <contour>
      <point x="280" y="-228" type="curve"/>
      <point x="299" y="-228" type="line"/>
      <point x="241" y="-135"/>
      <point x="207" y="-29"/>
      <point x="194" y="52" type="curve"/>
      <point x="222" y="62"/>
      <point x="242" y="94"/>
      <point x="242" y="127" type="curve" smooth="yes"/>
      <point x="242" y="137"/>
      <point x="241" y="146"/>
      <point x="238" y="153" type="curve"/>
      <point x="244" y="150"/>
      <point x="251" y="149"/>
      <point x="259" y="149" type="curve" smooth="yes"/>
      <point x="292" y="149"/>
      <point x="320" y="182"/>
      <point x="320" y="231" type="curve" smooth="yes"/>
      <point x="320" y="280"/>
      <point x="292" y="313"/>
      <point x="259" y="313" type="curve" smooth="yes"/>
      <point x="251" y="313"/>
      <point x="244" y="312"/>
      <point x="238" y="309" type="curve"/>
      <point x="241" y="316"/>
      <point x="242" y="325"/>
      <point x="242" y="335" type="curve" smooth="yes"/>
      <point x="242" y="369"/>
      <point x="221" y="401"/>
      <point x="192" y="410" type="curve"/>
      <point x="205" y="500"/>
      <point x="241" y="611"/>
      <point x="299" y="704" type="curve"/>
      <point x="280" y="704" type="line"/>
      <point x="220" y="614"/>
      <point x="186" y="506"/>
      <point x="174" y="411" type="curve"/>
      <point x="136" y="410"/>
      <point x="110" y="375"/>
      <point x="110" y="335" type="curve" smooth="yes"/>
      <point x="110" y="325"/>
      <point x="111" y="316"/>
      <point x="114" y="309" type="curve"/>
      <point x="108" y="312"/>
      <point x="101" y="313"/>
      <point x="93" y="313" type="curve" smooth="yes"/>
      <point x="60" y="313"/>
      <point x="32" y="280"/>
      <point x="32" y="231" type="curve" smooth="yes"/>
      <point x="32" y="182"/>
      <point x="60" y="149"/>
      <point x="93" y="149" type="curve" smooth="yes"/>
      <point x="101" y="149"/>
      <point x="108" y="150"/>
      <point x="114" y="153" type="curve"/>
      <point x="111" y="146"/>
      <point x="110" y="137"/>
      <point x="110" y="127" type="curve" smooth="yes"/>
      <point x="110" y="86"/>
      <point x="137" y="51"/>
      <point x="176" y="51" type="curve"/>
      <point x="190" y="-37"/>
      <point x="220" y="-138"/>
    </contour>
    <contour>
      <point x="94" y="166" type="curve" smooth="yes"/>
      <point x="63" y="166"/>
      <point x="46" y="200"/>
      <point x="46" y="231" type="curve" smooth="yes"/>
      <point x="46" y="262"/>
      <point x="63" y="296"/>
      <point x="94" y="296" type="curve" smooth="yes"/>
      <point x="108" y="296"/>
      <point x="119" y="288"/>
      <point x="127" y="279" type="curve"/>
      <point x="118" y="264"/>
      <point x="112" y="247"/>
      <point x="112" y="229" type="curve" smooth="yes"/>
      <point x="112" y="211"/>
      <point x="117" y="195"/>
      <point x="125" y="181" type="curve"/>
      <point x="118" y="173"/>
      <point x="107" y="166"/>
    </contour>
    <contour>
      <point x="176" y="68" type="curve" smooth="yes"/>
      <point x="151" y="68"/>
      <point x="124" y="90"/>
      <point x="124" y="129" type="curve" smooth="yes"/>
      <point x="124" y="145"/>
      <point x="130" y="158"/>
      <point x="136" y="167" type="curve"/>
      <point x="146" y="157"/>
      <point x="160" y="151"/>
      <point x="174" y="151" type="curve" smooth="yes"/>
      <point x="190" y="151"/>
      <point x="203" y="158"/>
      <point x="214" y="170" type="curve"/>
      <point x="222" y="160"/>
      <point x="228" y="147"/>
      <point x="228" y="129" type="curve" smooth="yes"/>
      <point x="228" y="90"/>
      <point x="201" y="68"/>
    </contour>
    <contour>
      <point x="175" y="168" type="curve" smooth="yes"/>
      <point x="146" y="168"/>
      <point x="126" y="195"/>
      <point x="126" y="230" type="curve" smooth="yes"/>
      <point x="126" y="266"/>
      <point x="147" y="290"/>
      <point x="174" y="290" type="curve" smooth="yes"/>
      <point x="201" y="290"/>
      <point x="222" y="263"/>
      <point x="222" y="228" type="curve" smooth="yes"/>
      <point x="222" y="199"/>
      <point x="204" y="168"/>
    </contour>
    <contour>
      <point x="258" y="166" type="curve" smooth="yes"/>
      <point x="243" y="166"/>
      <point x="233" y="174"/>
      <point x="224" y="184" type="curve"/>
      <point x="232" y="197"/>
      <point x="236" y="212"/>
      <point x="236" y="229" type="curve" smooth="yes"/>
      <point x="236" y="247"/>
      <point x="231" y="263"/>
      <point x="223" y="276" type="curve"/>
      <point x="231" y="287"/>
      <point x="242" y="296"/>
      <point x="258" y="296" type="curve" smooth="yes"/>
      <point x="289" y="296"/>
      <point x="306" y="262"/>
      <point x="306" y="231" type="curve" smooth="yes"/>
      <point x="306" y="200"/>
      <point x="289" y="166"/>
    </contour>
    <contour>
      <point x="212" y="290" type="curve"/>
      <point x="202" y="301"/>
      <point x="189" y="307"/>
      <point x="174" y="307" type="curve" smooth="yes"/>
      <point x="161" y="307"/>
      <point x="149" y="302"/>
      <point x="138" y="292" type="curve"/>
      <point x="130" y="302"/>
      <point x="124" y="315"/>
      <point x="124" y="333" type="curve" smooth="yes"/>
      <point x="124" y="372"/>
      <point x="151" y="394"/>
      <point x="176" y="394" type="curve" smooth="yes"/>
      <point x="201" y="394"/>
      <point x="228" y="372"/>
      <point x="228" y="333" type="curve" smooth="yes"/>
      <point x="228" y="314"/>
      <point x="221" y="300"/>
    </contour>
  </outline>
</glyph>
<glyph name="sad_lam_yeh-ar" format="2">
  <advance width="1253"/>
  <unicode hex="FDF0"/>
  <outline>
    <contour>
      <point x="410" y="-298" type="curve" smooth="yes"/>
      <point x="564" y="-298"/>
      <point x="722" y="-288"/>
      <point x="857" y="-275" type="curve"/>
      <point x="858" y="-250" type="line"/>
      <point x="722" y="-262"/>
      <point x="574" y="-272"/>
      <point x="410" y="-272" type="curve" smooth="yes"/>
      <point x="182" y="-272"/>
      <point x="64" y="-246"/>
      <point x="64" y="-146" type="curve" smooth="yes"/>
      <point x="64" y="-56"/>
      <point x="114" y="-19"/>
      <point x="294" y="-5" type="curve" smooth="yes"/>
      <point x="386" y="2"/>
      <point x="433" y="40"/>
      <point x="446" y="107" type="curve"/>
      <point x="439" y="108" type="line"/>
      <point x="450" y="27"/>
      <point x="482" y="-5"/>
      <point x="554" y="-5" type="curve" smooth="yes"/>
      <point x="646" y="-5"/>
      <point x="674" y="44"/>
      <point x="686" y="116" type="curve"/>
      <point x="676" y="114" type="line"/>
      <point x="697" y="34"/>
      <point x="723" y="-5"/>
      <point x="914" y="-5" type="curve" smooth="yes"/>
      <point x="1126" y="-5"/>
      <point x="1216" y="63"/>
      <point x="1216" y="193" type="curve" smooth="yes"/>
      <point x="1216" y="306"/>
      <point x="1163" y="398"/>
      <point x="1070" y="398" type="curve" smooth="yes"/>
      <point x="935" y="398"/>
      <point x="822" y="205"/>
      <point x="725" y="43" type="curve"/>
      <point x="745" y="29" type="line"/>
      <point x="837" y="181"/>
      <point x="944" y="372"/>
      <point x="1071" y="372" type="curve" smooth="yes"/>
      <point x="1153" y="372"/>
      <point x="1192" y="282"/>
      <point x="1192" y="194" type="curve" smooth="yes"/>
      <point x="1192" y="94"/>
      <point x="1130" y="21"/>
      <point x="918" y="21" type="curve" smooth="yes"/>
      <point x="762" y="21"/>
      <point x="726" y="40"/>
      <point x="705" y="94" type="curve" smooth="yes"/>
      <point x="691" y="131"/>
      <point x="695" y="180"/>
      <point x="694" y="270" type="curve"/>
      <point x="670" y="269" type="line"/>
      <point x="674" y="59"/>
      <point x="639" y="21"/>
      <point x="553" y="21" type="curve" smooth="yes"/>
      <point x="480" y="21"/>
      <point x="456" y="52"/>
      <point x="453" y="177" type="curve" smooth="yes"/>
      <point x="440" y="714" type="line"/>
      <point x="416" y="714" type="line"/>
      <point x="430" y="175" type="line" smooth="yes"/>
      <point x="433" y="70"/>
      <point x="393" y="28"/>
      <point x="296" y="21" type="curve" smooth="yes"/>
      <point x="102" y="7"/>
      <point x="40" y="-38"/>
      <point x="40" y="-146" type="curve" smooth="yes"/>
      <point x="40" y="-267"/>
      <point x="156" y="-298"/>
    </contour>
  </outline>
</glyph>
<glyph name="qaf_lam_yeh-ar" format="2">
  <advance width="945"/>
  <unicode hex="FDF1"/>
  <outline>
    <contour>
      <point x="407" y="-298" type="curve" smooth="yes"/>
      <point x="561" y="-298"/>
      <point x="719" y="-288"/>
      <point x="854" y="-275" type="curve"/>
      <point x="854" y="-250" type="line"/>
      <point x="718" y="-262"/>
      <point x="571" y="-272"/>
      <point x="407" y="-272" type="curve" smooth="yes"/>
      <point x="170" y="-272"/>
      <point x="61" y="-246"/>
      <point x="61" y="-146" type="curve" smooth="yes"/>
      <point x="61" y="-56"/>
      <point x="110" y="-15"/>
      <point x="290" y="-5" type="curve" smooth="yes"/>
      <point x="393" y="1"/>
      <point x="432" y="40"/>
      <point x="444" y="107" type="curve"/>
      <point x="434" y="108" type="line"/>
      <point x="445" y="27"/>
      <point x="487" y="-5"/>
      <point x="559" y="-5" type="curve" smooth="yes"/>
      <point x="701" y="-5"/>
      <point x="804" y="0"/>
      <point x="852" y="47" type="curve" smooth="yes"/>
      <point x="896" y="90"/>
      <point x="908" y="142"/>
      <point x="908" y="235" type="curve" smooth="yes"/>
      <point x="908" y="392"/>
      <point x="859" y="509"/>
      <point x="760" y="509" type="curve" smooth="yes"/>
      <point x="678" y="509"/>
      <point x="621" y="426"/>
      <point x="621" y="323" type="curve" smooth="yes"/>
      <point x="621" y="227"/>
      <point x="667" y="176"/>
      <point x="756" y="176" type="curve" smooth="yes"/>
      <point x="810" y="176"/>
      <point x="860" y="190"/>
      <point x="896" y="208" type="curve"/>
      <point x="895" y="234" type="line"/>
      <point x="859" y="216"/>
      <point x="805" y="202"/>
      <point x="760" y="202" type="curve" smooth="yes"/>
      <point x="675" y="202"/>
      <point x="645" y="242"/>
      <point x="645" y="328" type="curve" smooth="yes"/>
      <point x="645" y="409"/>
      <point x="685" y="482"/>
      <point x="758" y="482" type="curve" smooth="yes"/>
      <point x="847" y="482"/>
      <point x="884" y="376"/>
      <point x="884" y="237" type="curve" smooth="yes"/>
      <point x="884" y="151"/>
      <point x="878" y="107"/>
      <point x="842" y="70" type="curve" smooth="yes"/>
      <point x="799" y="25"/>
      <point x="694" y="21"/>
      <point x="562" y="21" type="curve" smooth="yes"/>
      <point x="489" y="21"/>
      <point x="454" y="52"/>
      <point x="451" y="167" type="curve" smooth="yes"/>
      <point x="437" y="714" type="line"/>
      <point x="413" y="714" type="line"/>
      <point x="427" y="165" type="line" smooth="yes"/>
      <point x="430" y="66"/>
      <point x="394" y="27"/>
      <point x="293" y="21" type="curve" smooth="yes"/>
      <point x="98" y="9"/>
      <point x="37" y="-38"/>
      <point x="37" y="-146" type="curve" smooth="yes"/>
      <point x="37" y="-267"/>
      <point x="153" y="-298"/>
    </contour>
    <contour>
      <point x="713" y="597" type="curve"/>
      <point x="741" y="630" type="line"/>
      <point x="731" y="643"/>
      <point x="725" y="651"/>
      <point x="713" y="664" type="curve"/>
      <point x="685" y="630" type="line"/>
      <point x="697" y="617"/>
      <point x="703" y="610"/>
    </contour>
    <contour>
      <point x="795" y="597" type="curve"/>
      <point x="823" y="630" type="line"/>
      <point x="813" y="643"/>
      <point x="807" y="651"/>
      <point x="795" y="664" type="curve"/>
      <point x="767" y="630" type="line"/>
      <point x="779" y="617"/>
      <point x="785" y="610"/>
    </contour>
  </outline>
</glyph>
<glyph name="allahlong-ar" format="2">
  <advance width="883"/>
  <unicode hex="FDFA"/>
  <guideline x="19" y="57" angle="270"/>
  <guideline x="253" y="197" angle="0"/>
  <guideline x="323" y="230" angle="0"/>
  <guideline x="498" y="435" angle="0"/>
  <guideline x="409" y="215" angle="0"/>
  <outline>
    <contour>
      <point x="356" y="315" type="curve" smooth="yes"/>
      <point x="426" y="315"/>
      <point x="464" y="350"/>
      <point x="464" y="388" type="curve" smooth="yes"/>
      <point x="464" y="407"/>
      <point x="454" y="423"/>
      <point x="434" y="431" type="curve"/>
      <point x="435" y="425" type="line"/>
      <point x="482" y="426"/>
      <point x="506" y="444"/>
      <point x="508" y="470" type="curve"/>
      <point x="504" y="470" type="line"/>
      <point x="509" y="441"/>
      <point x="525" y="425"/>
      <point x="574" y="425" type="curve" smooth="yes"/>
      <point x="635" y="425"/>
      <point x="645" y="454"/>
      <point x="649" y="475" type="curve"/>
      <point x="646" y="475" type="line"/>
      <point x="652" y="441"/>
      <point x="663" y="425"/>
      <point x="733" y="425" type="curve" smooth="yes"/>
      <point x="811" y="425"/>
      <point x="843" y="450"/>
      <point x="843" y="499" type="curve" smooth="yes"/>
      <point x="843" y="539"/>
      <point x="823" y="572"/>
      <point x="790" y="572" type="curve" smooth="yes"/>
      <point x="740" y="572"/>
      <point x="701" y="506"/>
      <point x="665" y="445" type="curve"/>
      <point x="677" y="440" type="line"/>
      <point x="712" y="496"/>
      <point x="746" y="558"/>
      <point x="790" y="558" type="curve" smooth="yes"/>
      <point x="814" y="558"/>
      <point x="829" y="530"/>
      <point x="829" y="499" type="curve" smooth="yes"/>
      <point x="829" y="464"/>
      <point x="812" y="440"/>
      <point x="734" y="440" type="curve" smooth="yes"/>
      <point x="681" y="440"/>
      <point x="667" y="447"/>
      <point x="661" y="463" type="curve" smooth="yes"/>
      <point x="656" y="476"/>
      <point x="655" y="493"/>
      <point x="655" y="525" type="curve"/>
      <point x="642" y="525" type="line"/>
      <point x="643" y="461"/>
      <point x="633" y="440"/>
      <point x="574" y="440" type="curve" smooth="yes"/>
      <point x="529" y="440"/>
      <point x="514" y="454"/>
      <point x="513" y="487" type="curve" smooth="yes"/>
      <point x="508" y="688" type="line"/>
      <point x="495" y="688" type="line"/>
      <point x="500" y="488" type="line" smooth="yes"/>
      <point x="501" y="447"/>
      <point x="472" y="439"/>
      <point x="418" y="439" type="curve"/>
      <point x="417" y="425" type="line"/>
      <point x="444" y="417"/>
      <point x="451" y="405"/>
      <point x="451" y="388" type="curve" smooth="yes"/>
      <point x="451" y="357"/>
      <point x="422" y="330"/>
      <point x="357" y="330" type="curve" smooth="yes"/>
      <point x="302" y="330"/>
      <point x="282" y="350"/>
      <point x="282" y="396" type="curve" smooth="yes"/>
      <point x="282" y="407"/>
      <point x="283" y="418"/>
      <point x="285" y="431" type="curve"/>
      <point x="273" y="432" type="line"/>
      <point x="270" y="418"/>
      <point x="270" y="407"/>
      <point x="270" y="395" type="curve" smooth="yes"/>
      <point x="270" y="337"/>
      <point x="306" y="315"/>
    </contour>
    <contour>
      <point x="405" y="477" type="line"/>
      <point x="419" y="477" type="line"/>
      <point x="412" y="728" type="line"/>
      <point x="399" y="728" type="line"/>
    </contour>
    <contour>
      <point x="192" y="425" type="curve" smooth="yes"/>
      <point x="227" y="425"/>
      <point x="242" y="442"/>
      <point x="244" y="465" type="curve"/>
      <point x="239" y="464" type="line"/>
      <point x="244" y="436"/>
      <point x="257" y="425"/>
      <point x="286" y="425" type="curve" smooth="yes"/>
      <point x="321" y="425"/>
      <point x="342" y="444"/>
      <point x="340" y="491" type="curve" smooth="yes"/>
      <point x="334" y="651" type="line"/>
      <point x="321" y="651" type="line"/>
      <point x="326" y="491" type="line" smooth="yes"/>
      <point x="327" y="451"/>
      <point x="316" y="440"/>
      <point x="287" y="440" type="curve" smooth="yes"/>
      <point x="257" y="440"/>
      <point x="250" y="449"/>
      <point x="249" y="480" type="curve" smooth="yes"/>
      <point x="244" y="651" type="line"/>
      <point x="231" y="651" type="line"/>
      <point x="235" y="479" type="line" smooth="yes"/>
      <point x="236" y="450"/>
      <point x="224" y="440"/>
      <point x="193" y="440" type="curve" smooth="yes"/>
      <point x="168" y="440"/>
      <point x="157" y="449"/>
      <point x="156" y="483" type="curve" smooth="yes"/>
      <point x="151" y="627" type="line"/>
      <point x="137" y="627" type="line"/>
      <point x="144" y="476" type="line" smooth="yes"/>
      <point x="146" y="442"/>
      <point x="158" y="425"/>
    </contour>
    <contour>
      <point x="100" y="455" type="curve" smooth="yes"/>
      <point x="126" y="455"/>
      <point x="139" y="462"/>
      <point x="151" y="467" type="curve"/>
      <point x="150" y="481" type="line"/>
      <point x="139" y="476"/>
      <point x="127" y="469"/>
      <point x="101" y="469" type="curve" smooth="yes"/>
      <point x="73" y="469"/>
      <point x="58" y="478"/>
      <point x="58" y="504" type="curve" smooth="yes"/>
      <point x="58" y="545"/>
      <point x="105" y="570"/>
      <point x="146" y="585" type="curve"/>
      <point x="146" y="599" type="line"/>
      <point x="102" y="585"/>
      <point x="45" y="553"/>
      <point x="45" y="503" type="curve" smooth="yes"/>
      <point x="45" y="472"/>
      <point x="65" y="455"/>
    </contour>
    <contour>
      <point x="331" y="186" type="curve" smooth="yes"/>
      <point x="450" y="186"/>
      <point x="481" y="201"/>
      <point x="487" y="232" type="curve"/>
      <point x="484" y="232" type="line"/>
      <point x="486" y="201"/>
      <point x="498" y="190"/>
      <point x="535" y="190" type="curve" smooth="yes"/>
      <point x="574" y="190"/>
      <point x="594" y="205"/>
      <point x="597" y="232" type="curve"/>
      <point x="593" y="232" type="line"/>
      <point x="598" y="200"/>
      <point x="616" y="190"/>
      <point x="662" y="190" type="curve" smooth="yes"/>
      <point x="712" y="190"/>
      <point x="788" y="195"/>
      <point x="834" y="216" type="curve"/>
      <point x="832" y="230" type="line"/>
      <point x="810" y="220"/>
      <point x="786" y="216"/>
      <point x="771" y="216" type="curve" smooth="yes"/>
      <point x="744" y="216"/>
      <point x="723" y="233"/>
      <point x="723" y="274" type="curve" smooth="yes"/>
      <point x="723" y="313"/>
      <point x="743" y="335"/>
      <point x="777" y="335" type="curve" smooth="yes"/>
      <point x="790" y="335"/>
      <point x="800" y="332"/>
      <point x="814" y="326" type="curve"/>
      <point x="814" y="340" type="line"/>
      <point x="804" y="346"/>
      <point x="790" y="350"/>
      <point x="775" y="350" type="curve" smooth="yes"/>
      <point x="737" y="350"/>
      <point x="710" y="321"/>
      <point x="710" y="274" type="curve" smooth="yes"/>
      <point x="710" y="222"/>
      <point x="741" y="202"/>
      <point x="766" y="202" type="curve"/>
      <point x="766" y="211" type="line"/>
      <point x="737" y="208"/>
      <point x="709" y="205"/>
      <point x="663" y="205" type="curve" smooth="yes"/>
      <point x="618" y="205"/>
      <point x="603" y="215"/>
      <point x="602" y="259" type="curve" smooth="yes"/>
      <point x="596" y="553" type="line"/>
      <point x="583" y="553" type="line"/>
      <point x="589" y="256" type="line" smooth="yes"/>
      <point x="590" y="216"/>
      <point x="574" y="205"/>
      <point x="536" y="205" type="curve" smooth="yes"/>
      <point x="502" y="205"/>
      <point x="496" y="215"/>
      <point x="494" y="232" type="curve" smooth="yes"/>
      <point x="492" y="249"/>
      <point x="492" y="268"/>
      <point x="492" y="291" type="curve"/>
      <point x="480" y="291" type="line"/>
      <point x="480" y="262"/>
      <point x="481" y="241"/>
      <point x="476" y="231" type="curve" smooth="yes"/>
      <point x="467" y="213"/>
      <point x="442" y="201"/>
      <point x="332" y="201" type="curve" smooth="yes"/>
      <point x="262" y="201"/>
      <point x="220" y="203"/>
      <point x="194" y="210" type="curve" smooth="yes"/>
      <point x="162" y="219"/>
      <point x="160" y="232"/>
      <point x="159" y="266" type="curve" smooth="yes"/>
      <point x="154" y="392" type="line"/>
      <point x="141" y="392" type="line"/>
      <point x="145" y="265" type="line" smooth="yes"/>
      <point x="146" y="226"/>
      <point x="154" y="206"/>
      <point x="190" y="196" type="curve" smooth="yes"/>
      <point x="216" y="188"/>
      <point x="259" y="186"/>
    </contour>
    <contour>
      <point x="104" y="220" type="curve" smooth="yes"/>
      <point x="129" y="220"/>
      <point x="142" y="227"/>
      <point x="154" y="232" type="curve"/>
      <point x="153" y="246" type="line"/>
      <point x="141" y="241"/>
      <point x="129" y="234"/>
      <point x="105" y="234" type="curve" smooth="yes"/>
      <point x="73" y="234"/>
      <point x="60" y="246"/>
      <point x="60" y="269" type="curve" smooth="yes"/>
      <point x="60" y="309"/>
      <point x="110" y="335"/>
      <point x="148" y="350" type="curve"/>
      <point x="148" y="364" type="line"/>
      <point x="105" y="350"/>
      <point x="47" y="318"/>
      <point x="47" y="268" type="curve" smooth="yes"/>
      <point x="47" y="237"/>
      <point x="68" y="220"/>
    </contour>
    <contour>
      <point x="757" y="-121" type="curve" smooth="yes"/>
      <point x="807" y="-117"/>
      <point x="834" y="-79"/>
      <point x="834" y="-4" type="curve" smooth="yes"/>
      <point x="834" y="54"/>
      <point x="817" y="101"/>
      <point x="779" y="101" type="curve" smooth="yes"/>
      <point x="750" y="101"/>
      <point x="730" y="66"/>
      <point x="730" y="26" type="curve" smooth="yes"/>
      <point x="730" y="-9"/>
      <point x="745" y="-29"/>
      <point x="779" y="-29" type="curve" smooth="yes"/>
      <point x="798" y="-29"/>
      <point x="818" y="-22"/>
      <point x="830" y="-13" type="curve"/>
      <point x="830" y="2" type="line"/>
      <point x="817" y="-8"/>
      <point x="798" y="-14"/>
      <point x="781" y="-14" type="curve" smooth="yes"/>
      <point x="756" y="-14"/>
      <point x="742" y="-4"/>
      <point x="742" y="27" type="curve" smooth="yes"/>
      <point x="742" y="51"/>
      <point x="754" y="86"/>
      <point x="778" y="86" type="curve" smooth="yes"/>
      <point x="811" y="86"/>
      <point x="821" y="42"/>
      <point x="821" y="-7" type="curve" smooth="yes"/>
      <point x="821" y="-72"/>
      <point x="796" y="-103"/>
      <point x="758" y="-106" type="curve" smooth="yes"/>
      <point x="742" y="-107"/>
      <point x="726" y="-105"/>
      <point x="714" y="-100" type="curve"/>
      <point x="714" y="-114" type="line"/>
      <point x="724" y="-119"/>
      <point x="742" y="-122"/>
    </contour>
    <contour>
      <point x="160" y="-76" type="curve" smooth="yes"/>
      <point x="188" y="-76"/>
      <point x="205" y="-57"/>
      <point x="205" y="-19" type="curve" smooth="yes"/>
      <point x="205" y="20"/>
      <point x="190" y="59"/>
      <point x="165" y="69" type="curve"/>
      <point x="168" y="62" type="line"/>
      <point x="214" y="65"/>
      <point x="250" y="83"/>
      <point x="258" y="117" type="curve"/>
      <point x="253" y="122" type="line"/>
      <point x="254" y="72"/>
      <point x="257" y="32"/>
      <point x="262" y="14" type="curve" smooth="yes"/>
      <point x="271" y="-21"/>
      <point x="298" y="-39"/>
      <point x="378" y="-39" type="curve" smooth="yes"/>
      <point x="463" y="-39"/>
      <point x="487" y="-17"/>
      <point x="498" y="11" type="curve"/>
      <point x="495" y="12" type="line"/>
      <point x="495" y="-29"/>
      <point x="510" y="-41"/>
      <point x="541" y="-41" type="curve" smooth="yes"/>
      <point x="570" y="-41"/>
      <point x="586" y="-22"/>
      <point x="590" y="8" type="curve"/>
      <point x="588" y="9" type="line"/>
      <point x="589" y="-16"/>
      <point x="602" y="-41"/>
      <point x="633" y="-41" type="curve" smooth="yes"/>
      <point x="658" y="-41"/>
      <point x="677" y="-24"/>
      <point x="677" y="12" type="curve" smooth="yes"/>
      <point x="677" y="43"/>
      <point x="672" y="60"/>
      <point x="663" y="93" type="curve"/>
      <point x="651" y="89" type="line"/>
      <point x="660" y="55"/>
      <point x="664" y="38"/>
      <point x="664" y="11" type="curve" smooth="yes"/>
      <point x="664" y="-17"/>
      <point x="655" y="-26"/>
      <point x="634" y="-26" type="curve" smooth="yes"/>
      <point x="614" y="-26"/>
      <point x="603" y="-15"/>
      <point x="599" y="6" type="curve" smooth="yes"/>
      <point x="596" y="21"/>
      <point x="597" y="41"/>
      <point x="597" y="66" type="curve"/>
      <point x="584" y="66" type="line"/>
      <point x="585" y="-13"/>
      <point x="566" y="-26"/>
      <point x="541" y="-26" type="curve" smooth="yes"/>
      <point x="517" y="-26"/>
      <point x="510" y="-19"/>
      <point x="507" y="4" type="curve" smooth="yes"/>
      <point x="505" y="21"/>
      <point x="507" y="36"/>
      <point x="508" y="52" type="curve"/>
      <point x="496" y="53" type="line"/>
      <point x="490" y="-14"/>
      <point x="453" y="-24"/>
      <point x="377" y="-24" type="curve" smooth="yes"/>
      <point x="283" y="-24"/>
      <point x="271" y="0"/>
      <point x="268" y="65" type="curve" smooth="yes"/>
      <point x="256" y="320" type="line"/>
      <point x="244" y="320" type="line"/>
      <point x="250" y="140" type="line" smooth="yes"/>
      <point x="251" y="98"/>
      <point x="214" y="76"/>
      <point x="151" y="76" type="curve" smooth="yes"/>
      <point x="118" y="76"/>
      <point x="90" y="47"/>
      <point x="90" y="2" type="curve" smooth="yes"/>
      <point x="90" y="-42"/>
      <point x="122" y="-76"/>
    </contour>
    <contour>
      <point x="160" y="-61" type="curve" smooth="yes"/>
      <point x="131" y="-61"/>
      <point x="104" y="-35"/>
      <point x="104" y="0" type="curve" smooth="yes"/>
      <point x="104" y="35"/>
      <point x="121" y="60"/>
      <point x="144" y="60" type="curve" smooth="yes"/>
      <point x="173" y="60"/>
      <point x="191" y="25"/>
      <point x="191" y="-18" type="curve" smooth="yes"/>
      <point x="191" y="-47"/>
      <point x="182" y="-61"/>
    </contour>
    <contour>
      <point x="35" y="-129" type="line"/>
      <point x="99" y="-101"/>
      <point x="101" y="-39"/>
      <point x="101" y="-8" type="curve"/>
      <point x="90" y="2" type="line"/>
      <point x="90" y="-27"/>
      <point x="90" y="-87"/>
      <point x="29" y="-116" type="curve"/>
    </contour>
    <contour>
      <point x="693" y="629" type="line"/>
      <point x="828" y="677" type="line"/>
      <point x="828" y="690" type="line"/>
      <point x="693" y="642" type="line"/>
    </contour>
    <contour>
      <point x="541" y="647" type="line"/>
      <point x="676" y="695" type="line"/>
      <point x="676" y="708" type="line"/>
      <point x="541" y="660" type="line"/>
    </contour>
    <contour>
      <point x="215" y="679" type="curve" smooth="yes"/>
      <point x="228" y="679"/>
      <point x="235" y="694"/>
      <point x="234" y="710" type="curve"/>
      <point x="231" y="709" type="line"/>
      <point x="232" y="694"/>
      <point x="238" y="689"/>
      <point x="246" y="689" type="curve" smooth="yes"/>
      <point x="258" y="689"/>
      <point x="265" y="701"/>
      <point x="265" y="718" type="curve" smooth="yes"/>
      <point x="265" y="729"/>
      <point x="264" y="736"/>
      <point x="262" y="745" type="curve"/>
      <point x="253" y="742" type="line"/>
      <point x="255" y="733"/>
      <point x="256" y="725"/>
      <point x="256" y="718" type="curve" smooth="yes"/>
      <point x="256" y="706"/>
      <point x="253" y="700"/>
      <point x="246" y="700" type="curve" smooth="yes"/>
      <point x="241" y="700"/>
      <point x="239" y="705"/>
      <point x="238" y="717" type="curve" smooth="yes"/>
      <point x="237" y="734" type="line"/>
      <point x="228" y="732" type="line"/>
      <point x="228" y="720" type="line" smooth="yes"/>
      <point x="228" y="695"/>
      <point x="222" y="690"/>
      <point x="216" y="690" type="curve" smooth="yes"/>
      <point x="209" y="690"/>
      <point x="207" y="695"/>
      <point x="207" y="706" type="curve" smooth="yes"/>
      <point x="207" y="710"/>
      <point x="208" y="717"/>
      <point x="209" y="725" type="curve"/>
      <point x="200" y="722" type="line"/>
      <point x="199" y="715"/>
      <point x="198" y="710"/>
      <point x="198" y="705" type="curve" smooth="yes"/>
      <point x="198" y="687"/>
      <point x="204" y="679"/>
    </contour>
    <contour>
      <point x="359" y="101" type="curve"/>
      <point x="369" y="115" type="line"/>
      <point x="365" y="121"/>
      <point x="361" y="125"/>
      <point x="357" y="129" type="curve"/>
      <point x="347" y="115" type="line"/>
      <point x="352" y="110"/>
      <point x="354" y="107"/>
    </contour>
    <contour>
      <point x="395" y="101" type="curve"/>
      <point x="405" y="115" type="line"/>
      <point x="401" y="121"/>
      <point x="397" y="125"/>
      <point x="393" y="129" type="curve"/>
      <point x="383" y="115" type="line"/>
      <point x="388" y="110"/>
      <point x="390" y="107"/>
    </contour>
  </outline>
</glyph>
<glyph name="jallajalalouhou-ar" format="2">
  <advance width="982"/>
  <unicode hex="FDFB"/>
  <guideline x="-314" y="1501" angle="0"/>
  <guideline x="-314" y="1380" angle="0"/>
  <outline>
    <contour>
      <point x="352" y="-64" type="curve" smooth="yes"/>
      <point x="450" y="-64"/>
      <point x="578" y="-40"/>
      <point x="593" y="71" type="curve"/>
      <point x="590" y="71" type="line"/>
      <point x="598" y="31"/>
      <point x="626" y="9"/>
      <point x="674" y="9" type="curve" smooth="yes"/>
      <point x="792" y="9"/>
      <point x="845" y="111"/>
      <point x="948" y="142" type="curve"/>
      <point x="948" y="156" type="line"/>
      <point x="921" y="155"/>
      <point x="901" y="159"/>
      <point x="881" y="167" type="curve" smooth="yes"/>
      <point x="824" y="189"/>
      <point x="791" y="231"/>
      <point x="738" y="231" type="curve" smooth="yes"/>
      <point x="715" y="231"/>
      <point x="701" y="223"/>
      <point x="687" y="219" type="curve"/>
      <point x="687" y="202" type="line"/>
      <point x="702" y="210"/>
      <point x="716" y="214"/>
      <point x="737" y="214" type="curve" smooth="yes"/>
      <point x="801" y="214"/>
      <point x="848" y="138"/>
      <point x="937" y="142" type="curve"/>
      <point x="937" y="153" type="line"/>
      <point x="844" y="127"/>
      <point x="784" y="26"/>
      <point x="677" y="26" type="curve" smooth="yes"/>
      <point x="632" y="26"/>
      <point x="601" y="48"/>
      <point x="598" y="108" type="curve" smooth="yes"/>
      <point x="578" y="557" type="line"/>
      <point x="563" y="557" type="line"/>
      <point x="582" y="107" type="line" smooth="yes"/>
      <point x="587" y="-16"/>
      <point x="463" y="-46"/>
      <point x="354" y="-46" type="curve" smooth="yes"/>
      <point x="263" y="-46"/>
      <point x="163" y="-24"/>
      <point x="81" y="16" type="curve"/>
      <point x="78" y="-2" type="line"/>
      <point x="162" y="-42"/>
      <point x="261" y="-64"/>
    </contour>
    <contour>
      <point x="592" y="193" type="curve" smooth="yes"/>
      <point x="742" y="193"/>
      <point x="799" y="294"/>
      <point x="908" y="324" type="curve"/>
      <point x="908" y="341" type="line"/>
      <point x="881" y="339"/>
      <point x="859" y="343"/>
      <point x="839" y="351" type="curve" smooth="yes"/>
      <point x="790" y="371"/>
      <point x="751" y="415"/>
      <point x="698" y="415" type="curve" smooth="yes"/>
      <point x="678" y="415"/>
      <point x="661" y="410"/>
      <point x="647" y="403" type="curve"/>
      <point x="647" y="387" type="line"/>
      <point x="662" y="393"/>
      <point x="676" y="398"/>
      <point x="698" y="398" type="curve" smooth="yes"/>
      <point x="765" y="398"/>
      <point x="812" y="317"/>
      <point x="897" y="326" type="curve"/>
      <point x="897" y="336" type="line"/>
      <point x="792" y="304"/>
      <point x="733" y="210"/>
      <point x="593" y="210" type="curve" smooth="yes"/>
      <point x="537" y="210"/>
      <point x="496" y="235"/>
      <point x="491" y="330" type="curve" smooth="yes"/>
      <point x="479" y="578" type="line"/>
      <point x="465" y="578" type="line"/>
      <point x="474" y="344" type="line"/>
      <point x="481" y="294" type="line" smooth="yes"/>
      <point x="492" y="215"/>
      <point x="534" y="193"/>
    </contour>
    <contour>
      <point x="261" y="97" type="line"/>
      <point x="280" y="99"/>
      <point x="303" y="103"/>
      <point x="322" y="108" type="curve" smooth="yes"/>
      <point x="410" y="131"/>
      <point x="484" y="195"/>
      <point x="487" y="326" type="curve"/>
      <point x="474" y="344" type="line"/>
      <point x="476" y="211"/>
      <point x="406" y="150"/>
      <point x="322" y="125" type="curve" smooth="yes"/>
      <point x="302" y="119"/>
      <point x="281" y="116"/>
      <point x="258" y="113" type="curve"/>
    </contour>
    <contour>
      <point x="454" y="227" type="curve"/>
      <point x="465" y="241" type="line"/>
      <point x="413" y="323"/>
      <point x="327" y="442"/>
      <point x="266" y="515" type="curve"/>
      <point x="255" y="504" type="line"/>
      <point x="315" y="430"/>
      <point x="402" y="312"/>
    </contour>
    <contour>
      <point x="268" y="180" type="curve" smooth="yes"/>
      <point x="334" y="180"/>
      <point x="363" y="211"/>
      <point x="360" y="290" type="curve" smooth="yes"/>
      <point x="351" y="574" type="line"/>
      <point x="336" y="574" type="line"/>
      <point x="345" y="289" type="line" smooth="yes"/>
      <point x="347" y="221"/>
      <point x="325" y="197"/>
      <point x="270" y="197" type="curve" smooth="yes"/>
      <point x="227" y="197"/>
      <point x="206" y="212"/>
      <point x="204" y="264" type="curve" smooth="yes"/>
      <point x="195" y="491" type="line"/>
      <point x="180" y="491" type="line"/>
      <point x="189" y="259" type="line" smooth="yes"/>
      <point x="191" y="208"/>
      <point x="218" y="180"/>
    </contour>
    <contour>
      <point x="120" y="226" type="curve" smooth="yes"/>
      <point x="158" y="226"/>
      <point x="181" y="237"/>
      <point x="198" y="244" type="curve"/>
      <point x="197" y="260" type="line"/>
      <point x="179" y="252"/>
      <point x="159" y="243"/>
      <point x="121" y="243" type="curve" smooth="yes"/>
      <point x="75" y="243"/>
      <point x="48" y="261"/>
      <point x="48" y="299" type="curve" smooth="yes"/>
      <point x="48" y="364"/>
      <point x="130" y="413"/>
      <point x="190" y="431" type="curve"/>
      <point x="190" y="448" type="line"/>
      <point x="122" y="426"/>
      <point x="33" y="376"/>
      <point x="33" y="296" type="curve" smooth="yes"/>
      <point x="33" y="256"/>
      <point x="62" y="226"/>
    </contour>
    <contour>
      <point x="755" y="484" type="line"/>
      <point x="924" y="546" type="line"/>
      <point x="924" y="561" type="line"/>
      <point x="755" y="499" type="line"/>
    </contour>
    <contour>
      <point x="643" y="521" type="line"/>
      <point x="812" y="585" type="line"/>
      <point x="812" y="600" type="line"/>
      <point x="643" y="536" type="line"/>
    </contour>
    <contour>
      <point x="824" y="-57" type="curve"/>
      <point x="839" y="-38" type="line"/>
      <point x="833" y="-30"/>
      <point x="829" y="-26"/>
      <point x="822" y="-19" type="curve"/>
      <point x="807" y="-38" type="line"/>
      <point x="813" y="-45"/>
      <point x="817" y="-49"/>
    </contour>
    <contour>
      <point x="925" y="10" type="curve"/>
      <point x="940" y="28" type="line"/>
      <point x="934" y="36"/>
      <point x="929" y="41"/>
      <point x="923" y="47" type="curve"/>
      <point x="908" y="29" type="line"/>
      <point x="913" y="23"/>
      <point x="919" y="17"/>
    </contour>
  </outline>
</glyph>
<glyph name="rial" format="2">
  <advance width="1228"/>
  <unicode hex="FDFC"/>
  <outline>
    <contour>
      <point x="931" y="-260" type="curve" smooth="yes"/>
      <point x="1082" y="-260"/>
      <point x="1160" y="-140"/>
      <point x="1160" y="45" type="curve" smooth="yes"/>
      <point x="1160" y="137"/>
      <point x="1134" y="225"/>
      <point x="1093" y="308" type="curve"/>
      <point x="1071" y="294" type="line"/>
      <point x="1113" y="214"/>
      <point x="1136" y="130"/>
      <point x="1136" y="44" type="curve" smooth="yes"/>
      <point x="1136" y="-129"/>
      <point x="1066" y="-234"/>
      <point x="933" y="-234" type="curve" smooth="yes"/>
      <point x="882" y="-234"/>
      <point x="852" y="-223"/>
      <point x="818" y="-205" type="curve"/>
      <point x="818" y="-231" type="line"/>
      <point x="845" y="-248"/>
      <point x="879" y="-260"/>
    </contour>
    <contour>
      <point x="772" y="-5" type="curve" smooth="yes"/>
      <point x="875" y="-5"/>
      <point x="926" y="39"/>
      <point x="926" y="155" type="curve" smooth="yes"/>
      <point x="926" y="221"/>
      <point x="914" y="292"/>
      <point x="898" y="360" type="curve"/>
      <point x="875" y="355" type="line"/>
      <point x="891" y="288"/>
      <point x="902" y="213"/>
      <point x="902" y="152" type="curve" smooth="yes"/>
      <point x="902" y="50"/>
      <point x="858" y="21"/>
      <point x="774" y="21" type="curve" smooth="yes"/>
      <point x="689" y="21"/>
      <point x="654" y="68"/>
      <point x="650" y="196" type="curve" smooth="yes"/>
      <point x="633" y="714" type="line"/>
      <point x="609" y="714" type="line"/>
      <point x="626" y="184" type="line" smooth="yes"/>
      <point x="630" y="63"/>
      <point x="670" y="-5"/>
    </contour>
    <contour>
      <point x="241" y="-239" type="curve" smooth="yes"/>
      <point x="378" y="-239"/>
      <point x="474" y="-144"/>
      <point x="467" y="130" type="curve" smooth="yes"/>
      <point x="452" y="714" type="line"/>
      <point x="428" y="714" type="line"/>
      <point x="443" y="138" type="line" smooth="yes"/>
      <point x="450" y="-134"/>
      <point x="365" y="-213"/>
      <point x="242" y="-213" type="curve" smooth="yes"/>
      <point x="118" y="-213"/>
      <point x="64" y="-132"/>
      <point x="64" y="1" type="curve" smooth="yes"/>
      <point x="64" y="72"/>
      <point x="76" y="122"/>
      <point x="89" y="175" type="curve"/>
      <point x="66" y="181" type="line"/>
      <point x="52" y="129"/>
      <point x="40" y="68"/>
      <point x="40" y="-2" type="curve" smooth="yes"/>
      <point x="40" y="-144"/>
      <point x="102" y="-239"/>
    </contour>
    <contour>
      <point x="742.612" y="-151.704" type="curve"/>
      <point x="767.182" y="-120.376" type="line"/>
      <point x="758.407" y="-108.035"/>
      <point x="753.142" y="-100.44"/>
      <point x="742.612" y="-88.099" type="curve"/>
      <point x="718.041" y="-120.376" type="line"/>
      <point x="728.571" y="-132.717"/>
      <point x="733.836" y="-139.362"/>
    </contour>
    <contour>
      <point x="825.612" y="-151.704" type="curve"/>
      <point x="850.182" y="-120.376" type="line"/>
      <point x="841.407" y="-108.035"/>
      <point x="836.142" y="-100.44"/>
      <point x="825.612" y="-88.099" type="curve"/>
      <point x="801.041" y="-120.376" type="line"/>
      <point x="811.571" y="-132.717"/>
      <point x="816.836" y="-139.362"/>
    </contour>
  </outline>
</glyph>
